<?xml version="1.0" standalone="no"?>
<!DOCTYPE svg PUBLIC "-//W3C//DTD SVG 20010904//EN"
 "http://www.w3.org/TR/2001/REC-SVG-20010904/DTD/svg10.dtd">
<svg version="1.0" xmlns="http://www.w3.org/2000/svg"
 width="1080.000000pt" height="1080.000000pt" viewBox="0 0 1080.000000 1080.000000"
 preserveAspectRatio="xMidYMid meet">

<g transform="translate(0.000000,1080.000000) scale(0.100000,-0.100000)"
fill="#000000" stroke="none">
<path d="M6566 6088 c-15 -16 -20 -18 -27 -7 -6 10 -9 4 -9 -18 0 -31 8 -38
35 -34 6 1 3 -5 -6 -14 -12 -12 -21 -14 -41 -6 -21 8 -29 6 -42 -8 -14 -16
-14 -19 2 -35 12 -14 13 -16 2 -11 -10 5 -8 0 4 -14 21 -23 15 -37 -19 -43
-11 -2 -20 -8 -20 -15 0 -6 -3 -15 -7 -19 -12 -12 -9 -36 3 -28 7 4 7 -2 -1
-16 -8 -16 -11 -54 -8 -116 5 -89 19 -131 39 -118 5 3 9 0 9 -5 0 -6 7 -19 17
-30 14 -17 30 -20 129 -20 123 -1 146 3 137 26 -4 9 0 14 8 13 31 -5 39 1 39
28 0 17 3 23 8 14 6 -9 12 -5 21 14 9 21 9 30 -1 42 -8 9 -8 13 -2 9 7 -4 14
0 17 8 9 22 6 279 -3 290 -5 6 -10 15 -12 20 -1 6 -9 9 -16 8 -9 -1 -12 6 -9
18 4 16 2 19 -14 14 -25 -8 -65 32 -62 60 2 11 0 14 -3 8 -3 -7 -12 -13 -19
-13 -7 0 -16 -6 -18 -12 -4 -10 -6 -10 -6 0 -1 7 -5 10 -11 7 -5 -3 -10 1 -10
9 0 10 -9 16 -25 16 -17 0 -23 -4 -19 -14 3 -8 1 -17 -5 -21 -6 -3 -11 1 -11
11 0 16 -1 16 -16 -2 -15 -18 -15 -18 -9 4 8 26 6 26 -19 0z m114 -42 c0 -3
-4 -8 -10 -11 -5 -3 -10 -1 -10 4 0 6 5 11 10 11 6 0 10 -2 10 -4z m-130 -496
c0 -5 -5 -10 -11 -10 -5 0 -7 5 -4 10 3 6 8 10 11 10 2 0 4 -4 4 -10z"/>
<path d="M6754 6079 c-3 -5 2 -9 10 -9 10 0 13 -6 10 -17 -5 -17 -5 -17 9 -1
8 10 17 15 20 11 4 -3 7 -2 7 4 0 13 -49 23 -56 12z"/>
<path d="M6506 6045 c4 -8 8 -15 10 -15 2 0 4 7 4 15 0 8 -4 15 -10 15 -5 0
-7 -7 -4 -15z"/>
<path d="M4497 5803 c-4 -3 -20 -6 -37 -5 -28 1 -34 -6 -31 -33 0 -6 -8 -11
-19 -12 -12 -1 -20 4 -20 14 0 10 -6 13 -16 9 -9 -3 -20 -6 -25 -6 -5 0 -8 -3
-8 -7 4 -23 -2 -43 -11 -38 -5 3 -10 -3 -10 -15 0 -13 -4 -19 -11 -14 -7 4 -9
0 -5 -14 5 -13 1 -28 -10 -41 -22 -26 -24 -33 -30 -168 -4 -81 -2 -113 6 -113
6 0 9 -4 6 -8 -3 -5 0 -26 6 -48 6 -21 13 -33 15 -26 3 8 12 -1 22 -20 9 -18
20 -31 25 -30 5 2 13 -3 18 -12 7 -13 28 -16 114 -15 57 0 104 5 104 10 0 5
13 9 29 9 20 0 30 6 34 20 3 10 0 21 -7 23 -6 3 2 8 17 12 18 5 26 12 23 21
-3 8 -2 14 2 14 5 0 8 10 9 23 8 188 10 326 3 322 -10 -6 -20 19 -20 52 0 22
-1 23 -16 9 -31 -32 -59 -17 -39 21 12 23 11 28 -12 50 -18 19 -27 23 -36 14
-14 -14 -47 -15 -47 -1 0 11 -13 13 -23 3z m98 -33 c5 1 11 -4 13 -12 3 -11 2
-11 -6 0 -5 8 -13 13 -18 12 -5 0 -10 7 -11 17 -3 17 -2 17 5 0 4 -10 12 -18
17 -17z m-215 -20 c0 -5 -4 -10 -10 -10 -5 0 -10 5 -10 10 0 6 5 10 10 10 6 0
10 -4 10 -10z"/>
</g>
</svg>
