<?xml version="1.0" standalone="no"?>
<!DOCTYPE svg PUBLIC "-//W3C//DTD SVG 20010904//EN"
 "http://www.w3.org/TR/2001/REC-SVG-20010904/DTD/svg10.dtd">
<svg version="1.0" xmlns="http://www.w3.org/2000/svg"
 width="999.000000pt" height="996.000000pt" viewBox="0 0 999.000000 996.000000"
 preserveAspectRatio="xMidYMid meet">

<g transform="translate(0.000000,996.000000) scale(0.100000,-0.100000)"
fill="#42679F" stroke="none">
<path d="M5710 9651 c0 -5 6 -12 13 -15 6 -2 -3 -4 -20 -3 -18 1 -33 4 -33 8
0 9 -21 6 -40 -6 -8 -5 -22 -10 -30 -10 -8 0 -19 -3 -25 -6 -5 -3 -23 -6 -39
-7 -17 -1 -33 -7 -37 -14 -4 -7 -21 -9 -43 -5 -20 3 -36 2 -36 -2 0 -3 -9 -7
-20 -8 -11 -1 -33 -10 -48 -21 -15 -11 -45 -25 -67 -33 -22 -7 -44 -17 -49
-21 -6 -4 -18 -8 -29 -8 -17 0 -47 -21 -47 -34 0 -3 8 -3 18 -1 107 27 140 38
201 69 49 25 84 36 114 36 23 0 66 9 96 21 45 17 70 20 140 16 99 -5 193 -22
236 -41 17 -8 48 -20 70 -27 42 -14 167 -87 173 -101 2 -4 8 -8 13 -8 5 0 17
-8 28 -17 48 -46 131 -120 153 -135 12 -10 69 -56 124 -103 56 -46 104 -81
108 -78 3 4 6 1 6 -5 0 -10 55 -71 65 -72 3 0 10 0 15 0 6 0 10 -4 10 -10 0
-20 290 -295 353 -335 18 -10 40 -28 49 -38 9 -10 22 -16 27 -12 6 3 11 2 11
-3 0 -5 33 -30 73 -57 40 -26 83 -62 95 -81 14 -22 27 -31 37 -28 11 5 13 2 9
-11 -4 -9 -3 -20 2 -24 13 -9 71 -77 81 -96 6 -10 16 -13 26 -9 16 6 17 8 2
31 -9 13 -34 41 -56 62 -21 21 -39 43 -39 47 0 16 -120 135 -130 129 -6 -4
-14 2 -18 12 -7 17 -22 25 -49 26 -7 0 -10 4 -7 9 3 4 0 8 -5 8 -6 0 -11 5
-11 11 0 5 6 7 13 3 6 -4 4 1 -5 11 -15 16 -19 16 -34 4 -10 -8 -15 -9 -11 -2
5 7 -1 17 -13 23 -20 11 -36 25 -165 147 -33 31 -62 56 -63 54 -7 -6 -59 48
-78 80 -5 9 -30 34 -56 57 -26 22 -45 43 -42 46 2 3 1 4 -2 1 -4 -2 -31 16
-61 40 -30 25 -59 45 -64 45 -5 0 -9 5 -9 11 0 14 -78 89 -93 89 -7 0 -6 4 3
10 13 8 13 10 -1 10 -9 0 -28 9 -43 21 -14 11 -26 18 -26 15 0 -3 -8 2 -19 12
-10 9 -31 27 -47 39 -16 12 -46 37 -66 56 -21 19 -38 32 -38 29 0 -3 -8 4 -17
14 -24 25 -79 55 -87 47 -3 -3 -6 2 -6 13 0 14 -2 16 -9 6 -6 -11 -10 -10 -15
4 -5 14 -9 15 -15 6 -6 -10 -12 -7 -24 12 -9 13 -30 27 -47 31 -16 4 -30 11
-30 16 0 6 -5 7 -10 4 -6 -4 -7 -11 -4 -17 4 -7 2 -8 -4 -4 -7 4 -12 14 -12
22 0 9 -6 14 -12 11 -7 -2 -21 0 -30 5 -12 5 -18 5 -18 -2 0 -5 -5 -10 -11
-10 -5 0 -7 5 -4 10 6 10 -41 15 -104 11 -27 -2 -33 0 -28 13 4 9 2 16 -3 16
-6 0 -10 -7 -10 -15 0 -8 -4 -15 -10 -15 -5 0 -10 4 -10 9 0 5 -7 11 -15 15
-8 3 -15 1 -15 -3z m855 -489 c-3 -3 -11 0 -18 7 -9 10 -8 11 6 5 10 -3 15 -9
12 -12z"/>
<path d="M4605 9587 c-22 -5 -48 -13 -57 -18 -10 -5 -22 -9 -27 -9 -5 0 -22
-5 -38 -12 -15 -6 -30 -12 -33 -13 -3 -1 -18 -7 -33 -13 -16 -7 -32 -12 -36
-12 -5 0 -14 -7 -21 -15 -7 -8 -16 -12 -21 -9 -5 3 -9 0 -9 -5 0 -6 -9 -11
-20 -11 -11 0 -20 -4 -20 -10 0 -5 -9 -10 -19 -10 -11 0 -26 -8 -33 -18 -7
-11 -30 -22 -50 -26 -21 -4 -38 -11 -38 -16 0 -5 -11 -12 -25 -16 -14 -3 -25
-13 -25 -21 0 -8 -4 -11 -10 -8 -5 3 -17 -3 -26 -14 -10 -11 -24 -17 -32 -13
-10 3 -13 1 -8 -6 5 -8 2 -10 -8 -6 -10 4 -16 1 -16 -7 0 -12 -2 -12 -9 0 -7
11 -11 10 -19 -5 -6 -11 -20 -20 -32 -21 -12 -1 -30 -8 -39 -16 -9 -8 -22 -12
-28 -10 -7 3 -13 0 -13 -6 0 -6 -6 -11 -14 -11 -8 0 -24 -13 -36 -30 -19 -27
-50 -45 -35 -20 11 18 -11 10 -35 -12 -14 -13 -26 -22 -27 -20 -7 6 -24 1 -19
-6 3 -5 -4 -8 -16 -7 -11 1 -32 -9 -46 -22 -13 -12 -28 -21 -32 -18 -11 7 -31
-20 -22 -30 4 -5 1 -5 -6 -1 -14 8 -152 -78 -152 -94 0 -6 -8 -10 -19 -10 -10
0 -26 -10 -35 -22 -9 -13 -14 -17 -11 -10 9 17 -10 15 -25 -3 -7 -8 -16 -12
-21 -9 -5 3 -9 1 -9 -3 0 -5 -13 -17 -30 -26 -16 -10 -35 -23 -42 -30 -7 -7
-30 -21 -51 -31 -20 -11 -37 -23 -37 -27 0 -5 -6 -6 -13 -3 -29 11 -147 -60
-147 -88 0 -10 -5 -18 -11 -18 -5 0 -7 5 -4 10 14 22 -43 -4 -61 -28 -6 -8
-22 -16 -37 -17 -34 -4 -49 -14 -41 -27 4 -6 -1 -8 -15 -3 -19 6 -74 -22 -91
-46 -3 -4 -17 -10 -31 -14 -14 -3 -38 -19 -55 -34 -17 -16 -39 -31 -50 -35
-11 -3 -39 -24 -62 -45 -23 -22 -42 -37 -42 -34 0 3 -14 -10 -32 -28 -17 -19
-35 -33 -40 -31 -4 1 -8 -5 -8 -13 0 -8 -4 -15 -10 -15 -5 0 -10 -4 -10 -10 0
-5 -29 -39 -64 -74 -36 -36 -59 -67 -53 -70 9 -3 8 -5 -1 -5 -17 -1 -49 -35
-45 -48 2 -6 -5 -18 -16 -25 -21 -15 -91 -139 -91 -162 0 -7 -9 -23 -20 -36
-11 -12 -17 -27 -14 -31 3 -5 0 -9 -5 -9 -6 0 -11 -6 -11 -13 0 -7 -13 -38
-29 -68 -17 -30 -32 -65 -34 -79 -2 -14 -11 -42 -21 -62 -9 -21 -16 -46 -16
-56 0 -10 -5 -23 -12 -30 -7 -7 -9 -12 -6 -12 3 0 0 -21 -8 -47 -9 -29 -11
-49 -5 -51 5 -2 1 -12 -9 -22 -10 -10 -23 -36 -28 -57 -5 -21 -14 -58 -20 -83
-6 -26 -7 -46 -2 -48 5 -2 3 -13 -5 -25 -8 -12 -17 -47 -20 -77 -3 -30 -8 -63
-11 -73 -3 -10 0 -24 6 -32 10 -12 9 -15 -4 -15 -9 0 -17 -4 -17 -10 -1 -5 -2
-13 -3 -17 -1 -5 -5 -26 -10 -48 -4 -22 -12 -45 -18 -52 -5 -7 -7 -16 -4 -21
3 -6 -1 -25 -8 -44 -8 -19 -17 -65 -21 -104 -3 -38 -10 -91 -15 -119 -5 -27
-12 -81 -15 -120 -7 -76 -12 -114 -21 -172 -3 -21 -8 -58 -9 -83 -2 -25 -5
-45 -6 -45 -1 0 -2 -18 -3 -40 -1 -23 -5 -45 -9 -51 -3 -6 -9 -35 -12 -64 -4
-30 -8 -57 -10 -60 -2 -3 -6 -30 -10 -60 -3 -30 -11 -72 -17 -92 -12 -41 -5
-73 14 -62 8 4 10 3 5 -2 -5 -5 -13 -9 -19 -9 -13 0 -49 -109 -65 -195 -2 -13
-6 -26 -9 -29 -2 -2 1 -10 8 -18 9 -11 8 -13 -2 -11 -7 2 -18 -9 -23 -24 -13
-34 7 -62 37 -54 20 5 20 4 2 -9 -16 -12 -21 -12 -33 1 -13 13 -17 11 -33 -19
-10 -19 -23 -52 -29 -74 -6 -22 -22 -53 -36 -69 l-25 -29 21 -10 c17 -7 24 -5
35 10 8 11 29 38 46 59 38 46 63 90 46 80 -7 -4 3 11 21 33 18 23 30 46 26 52
-3 6 -2 11 3 11 4 0 16 15 25 34 12 26 13 36 4 40 -7 2 -5 5 4 5 32 2 40 61 8
61 -11 0 -18 -4 -14 -9 3 -5 -1 -16 -9 -24 -8 -8 -12 -17 -9 -20 3 -3 -5 -18
-17 -34 l-22 -28 8 30 c5 17 8 40 9 53 0 12 3 22 7 22 8 0 20 39 48 163 24
106 24 108 5 101 -8 -4 -15 -1 -15 6 0 6 4 9 9 5 13 -7 27 20 35 65 26 157 28
173 16 180 -10 6 -10 8 0 12 23 7 63 318 41 318 -6 0 -11 4 -11 10 0 5 6 7 14
4 10 -4 15 6 18 35 2 24 -1 41 -7 41 -5 0 -4 4 4 9 9 6 17 43 23 107 4 53 22
153 38 222 17 68 30 134 30 146 0 11 7 39 14 61 8 22 17 60 20 85 3 25 10 68
15 95 12 64 13 77 3 71 -4 -2 -8 6 -8 20 0 13 4 24 9 24 4 0 6 4 3 9 -3 5 2 8
11 7 10 0 19 11 25 29 5 17 14 40 20 52 6 12 8 36 4 53 -4 23 0 40 14 60 22
32 27 70 8 70 -7 0 -3 8 9 18 11 9 38 53 58 97 53 114 57 125 42 126 -6 0 -1
5 12 10 15 6 21 15 17 24 -3 8 -2 15 3 15 4 0 28 40 52 90 24 49 50 89 58 90
8 0 12 3 8 6 -3 3 18 30 46 59 68 70 120 133 129 157 4 11 12 16 18 13 6 -4 9
-1 8 6 -2 7 8 18 22 26 14 7 24 17 23 22 -1 4 10 14 25 22 15 7 43 26 62 41
19 16 39 28 43 28 5 0 22 11 39 25 16 14 36 25 44 25 8 0 14 4 14 8 0 5 57 37
128 72 70 35 141 73 157 85 17 11 73 42 126 68 53 26 107 58 119 70 13 12 30
22 37 23 17 3 227 133 298 184 28 20 82 52 120 70 39 19 72 37 75 40 3 3 41
24 85 46 251 128 347 180 367 198 13 12 24 20 26 18 1 -2 41 15 88 37 47 23
89 41 93 41 5 0 22 7 37 15 16 8 36 15 45 15 9 0 19 3 23 7 15 15 84 33 131
33 69 0 143 -21 285 -80 66 -28 155 -62 197 -75 67 -22 114 -54 120 -81 1 -5
5 -17 8 -26 4 -11 3 -18 -5 -18 -6 0 -8 4 -5 10 3 5 -6 12 -20 16 -38 9 -96
-24 -120 -69 -11 -20 -26 -37 -33 -37 -6 0 -11 -3 -10 -7 1 -5 -8 -30 -20 -57
-31 -69 -44 -122 -46 -194 -2 -48 0 -62 11 -58 10 4 10 1 0 -15 -10 -16 -9
-21 3 -29 13 -8 13 -10 1 -10 -11 0 -10 -4 5 -16 17 -14 17 -15 1 -10 -16 5
-18 2 -13 -22 6 -33 18 -109 22 -139 1 -12 5 -34 8 -50 3 -15 8 -44 11 -63 14
-86 37 -170 46 -164 9 5 13 -20 10 -62 -2 -25 13 -96 40 -186 14 -49 25 -68
37 -69 14 0 14 -2 -3 -9 -11 -5 -15 -9 -10 -9 6 -1 12 -12 13 -26 1 -13 11
-57 22 -97 33 -114 40 -142 45 -163 3 -11 15 -63 27 -115 11 -52 25 -96 29
-98 4 -2 6 -9 3 -15 -2 -7 0 -53 6 -102 10 -88 13 -389 5 -436 -2 -13 -9 -55
-16 -94 -27 -161 -44 -226 -77 -299 -3 -5 2 -5 9 -1 8 5 3 -3 -10 -18 -12 -14
-21 -30 -17 -35 8 -13 -48 -98 -73 -112 -12 -6 -27 -24 -36 -39 -14 -28 -14
-29 6 -24 18 5 20 3 14 -16 -4 -14 -3 -21 5 -19 7 2 15 -3 17 -11 4 -9 0 -11
-15 -6 -17 5 -23 1 -28 -19 -3 -14 -11 -26 -16 -26 -6 0 -4 -8 3 -17 8 -9 9
-14 3 -10 -7 4 -18 -8 -28 -31 -10 -20 -21 -45 -27 -55 -5 -10 -7 -23 -3 -29
4 -7 3 -8 -4 -4 -7 4 -20 -7 -33 -28 -12 -20 -26 -36 -32 -36 -6 0 -7 -3 -4
-6 4 -4 -2 -19 -12 -33 -10 -14 -22 -36 -25 -48 -4 -13 -12 -23 -17 -23 -5 0
-9 -7 -9 -15 0 -9 -6 -18 -14 -21 -8 -3 -13 -11 -10 -18 2 -6 -3 -21 -13 -31
-35 -39 -92 -134 -84 -139 5 -3 20 3 33 13 43 34 228 315 228 347 0 8 5 14 10
14 6 0 10 6 10 14 0 7 9 25 20 39 11 14 20 30 20 37 0 6 7 18 15 26 8 9 15 26
15 40 0 32 1 34 27 62 12 13 27 39 33 56 8 26 19 36 53 47 23 7 60 21 82 30
22 10 42 17 45 16 3 -1 16 6 30 16 13 9 32 17 42 17 9 0 23 7 31 15 8 8 35 16
58 17 44 3 44 3 47 -34 2 -20 10 -42 18 -48 16 -14 20 -35 4 -25 -15 9 -12
-22 3 -37 8 -7 12 -21 9 -32 -4 -14 -2 -17 8 -11 9 5 11 4 6 -4 -13 -20 13
-81 35 -81 24 0 24 3 -2 70 -24 64 -48 255 -44 356 2 39 11 95 19 124 19 64
19 63 4 55 -7 -4 -5 0 4 8 10 7 27 39 39 70 22 59 27 64 111 140 83 75 97 87
105 87 5 0 20 11 35 25 15 14 38 30 50 35 13 6 44 23 69 39 68 42 150 46 249
11 41 -15 89 -29 106 -33 42 -8 143 -70 184 -112 19 -19 40 -35 48 -35 7 0 11
-4 7 -9 -3 -5 1 -15 8 -23 29 -29 87 -137 87 -162 0 -14 8 -34 18 -44 9 -10
18 -26 20 -36 2 -11 12 -34 22 -53 15 -28 19 -31 30 -18 7 8 16 13 20 10 5 -3
2 7 -5 22 -13 27 -29 90 -20 81 3 -2 31 21 62 51 39 38 75 62 111 75 l52 18
78 -37 c42 -21 84 -44 92 -51 25 -20 226 -118 258 -125 4 -1 19 -10 34 -20 14
-10 29 -19 33 -19 4 0 20 -10 35 -22 15 -13 42 -31 60 -41 18 -10 30 -20 27
-24 -3 -3 0 -11 7 -19 8 -7 17 -39 21 -71 4 -32 9 -73 11 -90 2 -18 1 -33 -4
-33 -4 0 -14 -28 -22 -62 -7 -35 -21 -84 -31 -110 -9 -26 -14 -49 -11 -52 2
-3 -2 -8 -11 -12 -9 -3 -19 -21 -23 -40 -3 -19 -11 -34 -17 -34 -6 0 -8 -3 -4
-6 3 -4 -1 -21 -10 -38 -10 -17 -19 -42 -20 -55 -2 -13 -11 -30 -19 -38 -7 -8
-14 -17 -15 -21 0 -4 -3 -16 -6 -27 -3 -11 -7 -53 -10 -94 -3 -62 -2 -72 10
-63 14 12 16 39 4 59 -4 6 -4 13 0 15 11 4 62 110 67 138 1 3 5 11 10 19 5 8
4 17 -5 23 -11 8 -10 9 3 4 13 -4 21 6 34 40 l17 45 29 -30 c16 -17 38 -33 49
-36 10 -4 19 -10 19 -15 0 -4 19 -11 43 -15 88 -13 96 -16 90 -31 -3 -8 3 -24
12 -34 11 -12 13 -20 7 -20 -7 0 -12 -15 -12 -35 0 -19 4 -35 9 -35 4 0 6 -12
3 -26 -4 -21 -2 -25 9 -19 12 8 12 6 0 -8 -11 -14 -12 -33 -2 -110 29 -239 43
-406 42 -476 -1 -14 5 -28 11 -33 10 -6 10 -8 0 -8 -15 0 -13 -71 2 -82 8 -6
6 -11 -3 -17 -7 -5 -11 -13 -8 -18 3 -5 8 -126 11 -268 6 -274 14 -424 23
-439 10 -15 3 -265 -8 -294 -16 -45 -43 -92 -52 -92 -5 0 -7 -6 -4 -13 3 -8
-7 -18 -24 -26 -16 -7 -27 -16 -25 -19 12 -19 -73 -79 -89 -64 -5 4 -5 1 -1
-6 7 -12 -6 -21 -39 -26 -9 -1 -20 -7 -23 -13 -4 -6 -27 -13 -51 -17 -42 -6
-69 -16 -42 -16 7 0 9 -4 6 -10 -3 -5 -16 -10 -29 -10 -12 0 -27 -5 -34 -12
-9 -9 -12 -8 -12 6 0 9 5 14 10 11 6 -3 10 -1 10 4 0 17 -19 13 -31 -7 -8 -12
-20 -17 -35 -14 -14 2 -24 0 -24 -7 0 -7 -10 -10 -25 -7 -14 3 -25 0 -25 -5 0
-5 -10 -9 -22 -8 -22 0 -22 1 -3 8 11 5 -17 7 -65 4 -47 -2 -92 -4 -100 -3 -8
0 -33 1 -55 1 -22 1 -46 6 -53 12 -10 8 -16 7 -22 -2 -5 -9 -10 -9 -14 -3 -4
7 -17 7 -35 2 -15 -4 -34 -4 -42 0 -7 5 -17 6 -21 3 -5 -2 -15 0 -22 6 -14 12
-126 8 -146 -4 -5 -3 -10 -1 -10 6 0 8 -3 9 -13 0 -8 -6 -17 -8 -21 -4 -9 9
-86 13 -86 4 0 -4 -25 -7 -55 -7 -32 0 -50 3 -43 8 8 5 3 8 -15 8 -16 0 -26
-4 -23 -8 2 -4 -4 -8 -14 -9 -11 -1 -19 1 -19 5 3 18 -3 21 -24 13 -14 -5 -30
-5 -40 0 -13 8 -17 6 -17 -6 0 -9 -5 -13 -10 -10 -6 4 -8 9 -6 13 2 4 -29 6
-70 5 -41 0 -74 2 -74 6 0 4 -34 8 -76 10 -41 1 -85 5 -97 7 -12 3 -42 7 -67
10 -25 3 -50 7 -57 9 -6 2 -14 -1 -16 -8 -3 -8 -10 -7 -24 6 -11 10 -24 17
-29 16 -17 -5 -74 13 -69 20 2 5 -13 5 -35 1 -22 -4 -40 -4 -40 -1 0 4 -10 8
-22 9 -13 1 -32 4 -43 6 -11 1 -28 -2 -37 -7 -11 -8 -21 -7 -30 1 -11 9 -17 9
-27 -1 -9 -9 -14 -9 -21 3 -6 10 -24 15 -54 14 -33 -1 -43 2 -39 13 4 11 0 11
-22 3 -21 -8 -26 -8 -22 2 6 16 -74 18 -85 3 -5 -6 -8 -5 -8 4 0 9 -8 11 -27
7 -18 -4 -23 -3 -15 2 10 7 5 11 -18 16 -48 9 -88 7 -95 -4 -4 -6 -11 -8 -16
-4 -5 3 -7 9 -5 13 3 4 0 8 -7 9 -21 2 -41 9 -89 31 -26 12 -60 20 -75 19 -21
-2 -27 1 -25 12 2 8 0 12 -4 7 -4 -4 -16 0 -26 10 -10 9 -18 13 -18 9 0 -6
-16 3 -95 52 -11 7 -32 17 -47 23 -16 6 -26 14 -23 19 7 11 -22 33 -35 25 -6
-4 -9 -2 -8 3 2 5 -25 37 -60 71 -34 34 -60 66 -57 72 4 5 -1 9 -10 9 -17 0
-54 37 -55 55 0 15 -37 44 -46 37 -4 -4 -4 -2 -1 4 4 7 -2 22 -12 35 -10 13
-26 42 -36 65 -16 38 -51 72 -62 60 -11 -10 31 -85 50 -90 16 -4 18 -8 9 -19
-9 -10 -3 -22 23 -53 19 -21 37 -47 41 -56 3 -10 12 -18 20 -18 8 0 13 -4 10
-9 -4 -5 12 -28 34 -50 23 -23 38 -41 35 -41 -11 0 33 -44 90 -89 91 -71 203
-141 239 -148 17 -3 33 -9 36 -13 6 -8 139 -55 195 -69 22 -6 69 -15 105 -20
36 -6 74 -12 85 -14 11 -3 38 -8 60 -11 22 -4 56 -9 75 -12 19 -4 100 -14 180
-24 80 -10 188 -27 240 -38 52 -11 122 -23 155 -26 103 -10 450 -25 685 -31
259 -6 409 -15 415 -25 2 -4 -13 -25 -34 -46 -23 -24 -37 -48 -36 -62 1 -16
-1 -19 -11 -11 -10 8 -16 -1 -28 -38 -8 -26 -24 -67 -36 -91 -11 -24 -23 -57
-25 -73 -3 -16 -7 -44 -10 -62 -6 -39 -6 -259 0 -307 10 -79 17 -110 25 -110
11 0 9 73 -3 81 -4 3 -3 12 5 20 9 10 13 55 14 164 2 149 12 212 47 298 9 21
12 35 7 32 -6 -3 -10 -1 -10 4 0 6 0 14 0 19 0 4 5 8 10 8 6 1 16 2 23 3 9 1
9 3 -1 10 -10 6 -9 10 7 14 15 4 19 10 14 23 -4 11 -3 15 5 10 6 -4 16 3 23
16 7 12 18 29 26 36 7 8 11 18 8 23 -4 5 1 9 9 9 9 0 13 6 10 13 -4 10 16 14
87 16 144 4 351 47 442 91 61 30 101 54 109 65 3 6 20 26 37 45 17 19 31 39
31 43 0 5 5 5 10 2 6 -3 10 1 10 9 0 9 4 16 9 16 5 0 11 8 15 18 3 9 19 40 35
69 15 29 27 54 25 56 -3 2 -6 67 -8 143 -3 76 -7 159 -10 184 -3 25 -8 106
-11 179 -3 81 -10 138 -16 142 -8 5 -8 9 1 14 9 6 11 56 6 209 -4 110 -9 236
-12 280 -4 43 -8 99 -9 125 -3 43 -19 215 -29 321 -3 25 -7 59 -10 75 -3 17
-8 54 -12 84 -3 30 -10 65 -15 78 -5 12 -6 23 -4 23 2 0 0 11 -5 25 -9 24 -8
25 31 25 22 0 65 11 95 25 30 14 57 25 60 25 19 0 104 90 110 117 4 13 10 23
15 23 5 0 9 5 9 12 0 6 7 19 15 28 9 10 26 50 39 90 19 60 22 90 20 183 -2 62
-5 130 -8 152 -3 22 -8 66 -12 97 -6 58 -37 172 -45 164 -2 -2 -4 8 -5 22 -1
33 -48 180 -77 244 -17 36 -27 47 -40 44 -14 -3 -16 -1 -7 9 8 9 5 22 -11 49
-11 20 -25 36 -30 36 -5 0 -9 6 -9 13 0 8 -11 19 -24 25 -13 6 -34 28 -45 49
-25 44 -67 69 -88 51 -10 -8 -12 -7 -8 4 4 9 -1 18 -10 22 -11 4 -14 2 -9 -7
5 -7 0 -6 -10 3 -10 8 -30 16 -44 18 -15 2 -32 8 -38 13 -7 5 -36 8 -65 5 -30
-3 -65 -5 -79 -5 -18 -1 -21 -4 -12 -10 10 -6 9 -10 -7 -14 -13 -3 -19 -1 -15
5 9 14 -58 6 -74 -9 -8 -7 -18 -11 -23 -8 -5 4 -9 1 -9 -5 0 -16 -60 -72 -61
-57 -1 7 -3 27 -5 45 -2 20 0 31 6 27 6 -3 10 3 10 15 0 12 -4 19 -9 16 -5 -3
-11 5 -13 19 -4 17 -1 25 8 25 8 0 14 4 14 10 0 5 -6 7 -14 4 -9 -4 -15 9 -19
47 -4 28 -13 59 -22 69 -8 9 -15 24 -15 34 0 10 -11 32 -25 50 -14 18 -25 37
-25 43 0 5 -9 18 -20 28 -11 10 -20 23 -20 29 0 6 -11 24 -25 40 -14 16 -25
38 -25 48 0 11 -4 17 -9 13 -5 -3 -12 -1 -16 5 -4 6 -12 7 -18 4 -9 -5 -9 -4
0 6 9 10 9 16 0 25 -35 37 -82 100 -79 108 1 5 -2 6 -7 3 -5 -4 -16 3 -25 15
-8 12 -19 18 -25 15 -6 -4 -9 -1 -5 7 6 16 -53 90 -66 82 -4 -3 -10 8 -13 23
-7 31 -39 55 -62 46 -13 -5 -11 -11 13 -33 15 -14 34 -40 40 -56 7 -17 26 -39
42 -50 17 -11 30 -24 30 -29 0 -5 11 -19 24 -31 14 -13 23 -25 21 -27 -2 -2
18 -28 45 -56 28 -29 50 -57 50 -61 0 -15 39 -43 50 -36 9 5 10 1 6 -13 -4
-11 -2 -23 4 -27 5 -3 10 -13 10 -21 0 -9 6 -22 13 -29 21 -24 32 -40 34 -50
3 -18 50 -95 54 -90 3 2 5 -4 6 -13 1 -9 4 -34 8 -54 7 -35 6 -38 -16 -39 -43
-2 -92 -9 -97 -13 -2 -3 -14 -1 -27 4 -27 10 -45 -4 -45 -36 0 -12 -6 -27 -13
-33 -11 -8 -17 -5 -27 14 -7 14 -19 25 -26 25 -8 0 -19 10 -26 23 -7 12 -23
23 -35 23 -24 1 -31 -10 -13 -21 6 -4 10 -12 9 -18 -4 -22 14 -91 27 -104 15
-16 44 -17 44 -3 0 7 6 7 19 0 29 -15 32 -13 29 16 -2 18 4 31 22 43 13 9 21
11 16 4 -4 -7 -2 -13 3 -13 6 0 11 5 11 10 0 14 113 13 143 -1 22 -10 25 -19
31 -87 4 -49 2 -78 -4 -80 -6 -2 -8 -8 -4 -13 3 -5 -3 -9 -12 -9 -10 0 -14 -3
-11 -6 4 -4 -2 -19 -13 -34 -11 -16 -20 -33 -20 -39 0 -6 -4 -11 -10 -11 -5 0
-10 -6 -10 -13 0 -8 -8 -29 -17 -48 -10 -20 -19 -67 -21 -116 -4 -78 -12 -98
-28 -72 -3 6 -14 9 -23 6 -10 -2 -26 2 -36 9 -12 9 -23 10 -36 3 -14 -7 -19
-6 -19 4 0 7 -12 13 -27 13 -39 1 -52 6 -79 32 -13 12 -29 22 -37 22 -8 0 -20
7 -27 15 -14 17 -67 45 -87 45 -21 0 -15 -18 10 -31 12 -7 28 -21 35 -31 7
-10 31 -27 53 -38 37 -19 57 -49 23 -36 -8 3 -13 2 -10 -2 3 -5 -11 -14 -30
-21 -18 -7 -34 -17 -34 -22 0 -6 -4 -8 -9 -5 -10 7 -56 -37 -78 -76 l-17 -27
-22 37 c-16 26 -19 40 -12 49 7 9 7 13 0 13 -5 0 -21 19 -35 43 -14 23 -47 65
-73 92 -26 28 -47 53 -46 58 1 4 -1 7 -5 7 -5 0 -23 13 -42 29 -27 23 -39 28
-53 20 -12 -7 -18 -6 -18 1 0 6 -5 8 -10 5 -6 -4 -9 -1 -8 6 2 7 -6 15 -17 17
-11 2 -27 10 -35 17 -8 7 -37 16 -65 20 -27 5 -53 13 -57 19 -6 8 -11 7 -17
-2 -6 -11 -10 -10 -15 3 -4 11 -13 15 -26 12 -11 -3 -20 -1 -20 4 0 5 -9 9
-21 9 -11 0 -17 -4 -14 -10 4 -6 -5 -9 -19 -8 -15 1 -26 7 -26 12 0 5 -9 1
-19 -8 -17 -15 -20 -16 -23 -2 -3 14 -6 14 -35 -1 -18 -8 -31 -18 -29 -22 3
-4 -5 -8 -17 -8 -12 -1 -28 -11 -36 -23 -7 -11 -19 -20 -25 -20 -6 0 -4 5 4
11 13 9 13 10 0 6 -8 -2 -15 -10 -15 -18 0 -8 -6 -15 -12 -15 -7 -1 -17 -2
-23 -3 -5 0 -10 -8 -10 -17 0 -8 -4 -13 -10 -9 -5 3 -19 0 -31 -7 -34 -20
-129 -115 -122 -122 4 -3 0 -6 -7 -6 -14 0 -50 -37 -50 -52 0 -5 -4 -7 -8 -4
-4 2 -13 -7 -19 -22 -80 -196 -84 -207 -87 -292 -5 -121 -5 -120 -13 -119 -5
1 -10 0 -13 -1 -6 -2 -34 -9 -55 -13 -8 -2 -21 -9 -27 -15 -7 -7 -21 -12 -31
-12 -10 0 -21 -9 -24 -20 -3 -11 -10 -20 -15 -20 -5 0 -6 6 -2 13 5 8 2 8 -9
-2 -15 -12 -34 -16 -94 -23 -7 -1 -11 -6 -10 -12 1 -6 -4 -10 -10 -8 -7 1 -13
-2 -13 -8 0 -18 -18 -10 -23 10 -3 11 -1 20 3 20 10 0 30 56 23 64 -4 3 -2 6
4 6 6 0 17 24 23 53 7 28 16 59 21 68 17 34 51 207 56 294 12 170 12 224 2
231 -6 4 -5 12 3 22 9 11 10 16 2 19 -7 2 -9 16 -5 35 10 50 -7 200 -40 353
-17 77 -33 147 -36 155 -7 17 -9 25 -16 60 -17 75 -69 236 -80 245 -6 6 -11
20 -9 33 2 13 0 31 -4 40 -3 9 -8 31 -10 47 -2 17 -12 36 -21 43 -11 7 -12 12
-4 12 14 0 5 41 -11 51 -7 4 -7 8 -1 10 6 2 2 41 -9 94 -28 131 -38 166 -46
161 -4 -2 -7 21 -6 52 0 32 -4 75 -8 97 -5 22 -11 51 -13 65 -2 14 -4 27 -5
30 -1 3 -1 40 0 83 2 110 23 181 86 298 21 39 59 61 91 53 24 -7 92 -64 75
-64 -4 0 0 -6 8 -13 8 -7 23 -28 34 -49 10 -20 27 -38 37 -41 22 -6 25 10 6
38 -8 11 -24 48 -36 82 -22 59 -25 62 -50 56 -15 -3 -22 -2 -18 3 5 5 14 9 20
9 20 1 7 36 -26 70 -18 18 -38 40 -46 49 -7 10 -19 15 -27 12 -8 -3 -14 -2
-14 3 0 4 -26 16 -57 27 -32 10 -61 23 -65 29 -4 5 -8 7 -8 3 0 -3 -28 4 -61
18 -34 13 -65 21 -70 19 -4 -3 -11 1 -16 8 -14 24 -137 66 -186 64 -25 -1 -43
-5 -40 -10 6 -9 -26 -4 -52 9 -13 7 -34 7 -60 1z m2538 -2052 c4 -8 2 -17 -2
-20 -5 -2 -11 4 -14 15 -6 23 8 27 16 5z m677 -45 c36 -6 78 -20 94 -32 16
-12 36 -21 43 -21 7 0 13 -7 13 -16 0 -9 20 -36 43 -61 59 -61 109 -137 134
-201 53 -134 97 -295 107 -389 3 -25 8 -64 11 -87 3 -24 7 -69 10 -100 2 -32
4 -61 4 -65 1 -5 9 -9 19 -9 16 -1 16 -2 0 -6 -10 -2 -18 -14 -19 -26 0 -12
-2 -29 -4 -37 -2 -8 -5 -24 -8 -35 -9 -40 -29 -85 -39 -85 -5 0 -7 -4 -4 -9 7
-11 -22 -71 -35 -71 -5 0 -9 -7 -9 -15 0 -17 -77 -105 -92 -105 -5 0 -25 -7
-46 -16 -20 -9 -45 -18 -54 -19 -10 -1 -21 -4 -24 -7 -3 -4 -19 -2 -36 3 -19
5 -38 4 -49 -2 -14 -7 -19 -7 -17 3 2 8 -8 11 -30 9 -24 -2 -38 3 -52 19 -10
12 -22 20 -27 19 -4 -1 -12 8 -18 20 -5 11 -15 21 -22 21 -8 0 -13 13 -13 30
0 17 4 30 9 30 10 0 23 32 26 60 1 8 6 24 12 35 23 43 36 187 26 274 -4 27
-15 53 -28 67 -12 12 -25 29 -28 38 -4 9 -15 19 -24 23 -10 4 -27 15 -38 25
-10 10 -26 16 -33 13 -11 -4 -13 0 -9 16 3 11 3 18 0 15 -4 -3 -12 -1 -19 5
-7 5 -25 11 -41 13 -15 1 -27 7 -26 13 1 6 -19 16 -45 23 -26 6 -65 23 -86 38
-37 25 -41 32 -52 97 -12 77 -10 140 8 195 12 36 15 43 17 58 0 5 12 22 26 38
14 16 25 32 25 37 0 4 8 15 18 26 9 10 31 34 47 52 88 98 176 124 335 99z
m-2343 -966 c-3 -3 -12 -4 -19 -1 -8 3 -5 6 6 6 11 1 17 -2 13 -5z m-3888
-1095 c-16 -10 -23 -4 -14 10 3 6 11 8 17 5 6 -4 5 -9 -3 -15z m6458 -1261
c-3 -7 -5 -2 -5 12 0 14 2 19 5 13 2 -7 2 -19 0 -25z"/>
<path d="M7433 7116 c-29 -28 -42 -49 -38 -57 5 -8 4 -10 -3 -5 -7 4 -12 2
-12 -4 0 -6 10 -10 22 -8 18 2 27 -7 51 -54 19 -39 35 -58 47 -58 10 0 27 -11
38 -25 11 -14 30 -25 42 -25 20 0 21 3 17 58 -11 126 -29 178 -71 206 -36 23
-42 21 -93 -28z"/>
<path d="M5659 9295 c-3 -2 -15 -6 -27 -8 -29 -4 -112 -132 -112 -174 0 -32
29 -8 54 45 45 94 60 107 118 106 33 0 55 -6 62 -16 11 -14 46 -36 96 -58 14
-6 36 -22 50 -34 14 -13 40 -32 58 -42 17 -10 32 -22 32 -26 0 -4 6 -8 13 -8
7 0 31 -16 53 -35 21 -19 44 -35 51 -35 6 0 13 -4 15 -8 5 -12 80 -54 86 -48
3 3 -3 8 -12 12 -9 3 -16 12 -16 18 0 12 -52 56 -66 56 -4 0 -24 17 -45 39
-21 21 -40 36 -43 34 -3 -3 -29 14 -58 39 -29 24 -66 50 -83 58 -16 8 -44 25
-60 37 -49 35 -97 53 -117 42 -12 -6 -18 -6 -18 1 0 10 -23 14 -31 5z"/>
<path d="M5420 9042 c-19 -2 -38 -9 -42 -15 -5 -8 -8 -8 -8 -1 0 15 -31 14
-55 -2 -14 -10 -15 -14 -5 -14 8 0 103 -2 210 -4 107 -3 237 -5 288 -5 59 -1
91 -5 87 -11 -4 -6 8 -10 30 -10 19 0 90 -18 156 -40 67 -22 134 -40 149 -40
15 0 33 -7 40 -15 7 -8 21 -15 32 -15 10 0 21 -6 24 -14 3 -8 17 -17 32 -21
15 -4 29 -10 32 -15 5 -8 50 -36 115 -71 63 -34 190 -141 190 -161 0 -4 15
-21 34 -37 23 -21 37 -27 42 -20 4 6 13 8 20 4 13 -7 -6 15 -61 72 -14 14 -24
29 -23 34 2 5 -1 9 -6 9 -5 0 -35 26 -67 57 -33 31 -63 56 -67 55 -5 -1 -20 7
-34 18 -14 11 -34 20 -45 20 -10 0 -21 7 -24 15 -4 8 -10 12 -15 9 -5 -3 -25
8 -45 25 -19 17 -42 31 -51 31 -9 0 -22 8 -30 18 -14 16 -14 16 -9 0 4 -12 0
-18 -10 -18 -10 0 -14 6 -11 14 8 21 -16 39 -31 24 -9 -9 -15 -8 -24 5 -7 9
-28 18 -46 19 -19 1 -36 6 -39 11 -2 4 -14 5 -25 1 -11 -3 -18 -2 -15 2 3 5
-1 15 -9 22 -8 7 -14 9 -14 5 0 -5 -11 -10 -25 -11 -14 -1 -25 3 -25 9 0 5 -4
8 -9 5 -5 -4 -11 -2 -13 4 -2 6 -14 12 -27 15 -14 2 -27 9 -30 14 -3 5 -36 8
-74 8 -37 -1 -67 1 -67 4 0 3 -13 6 -30 5 -16 -1 -30 -4 -30 -7 0 -3 -15 -4
-32 -2 -18 2 -60 5 -93 6 -33 2 -65 6 -72 10 -6 4 -14 1 -16 -5 -4 -9 -6 -9
-6 -1 -1 8 -10 9 -31 3 -17 -5 -33 -9 -37 -10 -3 -1 -9 2 -12 7 -3 4 -22 7
-41 5z m517 -48 c-3 -3 -12 -4 -19 -1 -8 3 -5 6 6 6 11 1 17 -2 13 -5z"/>
<path d="M3935 8660 c-3 -5 1 -10 10 -10 9 0 13 5 10 10 -3 6 -8 10 -10 10 -2
0 -7 -4 -10 -10z"/>
<path d="M3974 8659 c-3 -5 -2 -9 3 -10 4 0 18 -2 31 -5 12 -2 22 0 22 5 0 12
-49 20 -56 10z"/>
<path d="M4043 8653 c0 -10 28 -13 103 -13 105 0 203 -16 216 -34 5 -7 8 -7 8
2 0 6 5 12 11 12 5 0 8 -4 5 -8 -7 -12 66 -52 93 -52 12 0 20 -4 17 -8 -3 -5
12 -14 32 -22 20 -7 39 -16 42 -19 10 -12 50 -31 65 -31 8 0 15 -6 15 -13 0
-8 11 -20 25 -27 14 -7 25 -17 25 -22 0 -4 6 -8 13 -8 7 0 17 -8 22 -18 43
-80 73 -129 93 -148 13 -12 18 -24 13 -26 -6 -2 -5 -12 2 -25 7 -13 17 -19 23
-15 17 10 -54 157 -102 212 -50 57 -97 100 -108 100 -3 0 -22 11 -42 25 -20
14 -45 25 -55 25 -10 0 -22 6 -26 14 -4 8 -17 16 -28 18 -11 1 -23 8 -27 13
-7 10 -12 12 -50 14 -12 0 -18 4 -15 8 9 9 -52 35 -64 27 -5 -3 -9 -1 -9 4 0
6 -10 8 -22 4 -15 -4 -19 -2 -13 7 5 9 -1 11 -23 8 -18 -3 -33 0 -35 6 -2 7
-17 7 -50 -2 -26 -8 -54 -10 -64 -5 -29 13 -90 11 -90 -3z"/>
<path d="M3643 8630 c-4 -4 -25 -17 -45 -29 -31 -18 -37 -20 -32 -6 5 12 -3
10 -31 -9 -21 -14 -44 -26 -51 -26 -8 0 -14 -5 -14 -11 0 -5 -5 -7 -10 -4 -6
3 -23 -3 -38 -13 -15 -11 -38 -22 -52 -24 -22 -4 -23 -6 -7 -12 12 -6 24 -3
36 8 10 9 25 16 34 16 16 0 44 11 153 62 23 10 52 21 65 23 13 3 29 11 37 19
12 11 10 14 -11 14 -14 0 -29 -4 -34 -8z"/>
<path d="M6790 8504 c0 -13 55 -62 63 -57 6 3 7 1 3 -6 -4 -6 5 -22 23 -37 17
-14 29 -29 26 -34 -6 -10 16 -19 33 -13 16 6 15 21 -2 39 -8 7 -16 17 -18 21
-2 5 -25 28 -52 53 -27 25 -45 38 -41 30 6 -12 5 -13 -6 -2 -14 13 -29 16 -29
6z"/>
<path d="M3315 8480 c-10 -11 -22 -17 -27 -14 -4 3 -7 0 -6 -8 2 -7 -7 -14
-19 -16 -13 -2 -23 -9 -23 -17 0 -7 -13 -18 -30 -24 -16 -5 -30 -15 -30 -20 0
-6 -5 -11 -11 -11 -13 0 -74 -50 -62 -51 4 0 -1 -4 -12 -9 -20 -8 -20 -9 1 -9
22 -1 70 31 109 73 13 14 29 26 34 26 6 0 26 13 44 30 19 16 45 34 58 39 18 7
20 10 6 10 -10 1 -15 6 -12 11 10 17 -1 11 -20 -10z"/>
<path d="M7508 8293 c6 -2 12 -11 12 -19 0 -8 5 -14 10 -14 6 0 9 -3 9 -7 -3
-21 3 -33 17 -33 9 0 12 -5 8 -12 -4 -6 1 -17 10 -24 10 -7 17 -15 16 -19 -5
-16 87 -178 104 -185 12 -4 15 -9 9 -13 -12 -7 5 -57 19 -57 4 0 5 -7 2 -15
-4 -10 0 -15 15 -15 21 0 27 10 14 24 -5 4 -8 11 -8 14 -1 20 -114 238 -158
305 -37 56 -57 77 -72 76 -11 0 -14 -3 -7 -6z"/>
<path d="M3028 8263 c-18 -15 -37 -33 -41 -40 -4 -7 -15 -13 -22 -13 -8 0 -15
-7 -15 -17 0 -15 1 -15 18 0 10 10 22 14 27 10 4 -5 5 -2 1 5 -4 7 -2 12 7 12
7 0 23 11 35 25 12 14 26 25 32 25 5 0 10 5 10 10 0 17 -17 11 -52 -17z"/>
<path d="M3975 8270 c-4 -6 -16 -8 -27 -4 -12 3 -24 1 -28 -6 -6 -10 -18 -10
-49 -3 -22 6 -39 7 -36 3 3 -4 -16 -13 -41 -20 -25 -7 -48 -19 -51 -26 -2 -7
-11 -10 -18 -8 -15 6 -95 -41 -95 -57 0 -5 -5 -7 -12 -3 -7 5 -9 2 -5 -9 4
-11 2 -14 -9 -10 -7 3 -14 1 -14 -5 0 -5 -9 -12 -21 -15 -12 -3 -18 -10 -14
-17 3 -6 3 -9 -2 -8 -15 5 -68 -33 -93 -67 -14 -18 -43 -45 -65 -59 -21 -14
-35 -26 -30 -27 6 0 0 -4 -12 -9 -13 -5 -23 -17 -23 -25 0 -9 -4 -13 -10 -10
-5 3 -10 1 -10 -6 0 -6 -17 -27 -37 -45 -20 -19 -33 -34 -29 -34 4 0 -17 -29
-46 -65 -84 -103 -94 -117 -119 -175 -13 -30 -27 -56 -31 -58 -4 -2 -8 -14 -8
-27 0 -18 5 -23 21 -22 15 1 30 19 53 67 38 76 80 144 104 168 10 10 31 36 47
57 17 22 36 44 43 48 7 5 10 12 7 18 -4 5 0 9 8 9 19 0 109 101 103 116 -3 7
6 15 18 18 13 3 37 18 54 33 95 89 112 103 121 103 5 0 16 8 23 18 34 45 211
112 334 126 55 7 139 -7 182 -30 15 -8 39 -14 55 -14 15 0 27 -4 27 -10 0 -5
12 -13 26 -16 17 -4 22 -9 14 -14 -8 -5 -9 -10 -2 -14 6 -4 8 -14 5 -23 -5
-12 -3 -14 8 -8 11 6 12 5 2 -6 -7 -7 -13 -26 -13 -41 0 -16 6 -28 13 -28 9 0
9 -2 -1 -8 -8 -6 -12 -29 -11 -68 2 -64 -17 -159 -37 -184 -6 -8 -9 -21 -7
-27 3 -7 1 -13 -4 -13 -5 0 -17 -17 -28 -37 -11 -21 -26 -44 -32 -51 -7 -7
-13 -17 -13 -20 0 -4 -26 -34 -57 -67 -32 -33 -57 -63 -55 -67 1 -5 -7 -8 -18
-8 -11 0 -20 -5 -20 -11 0 -5 -5 -7 -10 -4 -6 4 -9 1 -8 -6 2 -9 -7 -13 -24
-13 -29 1 -37 -10 -15 -20 6 -4 1 -4 -12 -2 -13 3 -30 -2 -38 -10 -13 -12 -17
-12 -35 0 -13 9 -29 12 -46 6 -20 -5 -36 -1 -63 16 -44 28 -67 74 -75 151 -5
52 -3 62 24 104 37 58 105 99 178 106 45 5 54 9 54 25 0 18 -5 19 -58 14 -63
-6 -127 -28 -115 -39 3 -4 1 -7 -5 -7 -6 0 -13 -9 -17 -19 -3 -11 -13 -22 -22
-26 -14 -5 -14 -3 2 15 10 11 13 20 7 20 -6 0 -17 -10 -23 -22 -7 -13 -23 -33
-36 -45 -13 -13 -21 -23 -17 -23 3 0 2 -6 -3 -12 -6 -7 -10 -34 -10 -60 1 -41
3 -46 16 -35 10 7 9 4 -2 -10 -29 -34 -6 -95 58 -155 38 -37 41 -38 116 -38
50 0 90 6 115 17 22 9 43 17 47 17 12 1 37 38 32 46 -2 4 6 5 19 3 17 -4 36 8
78 51 50 49 141 173 138 186 -1 3 10 28 24 55 31 63 51 175 33 187 -9 6 -9 8
1 8 10 0 13 22 11 90 -1 77 -5 94 -25 121 -13 18 -21 35 -19 39 8 12 -43 18
-54 7 -8 -8 -11 -6 -11 5 0 9 -4 19 -8 22 -8 5 -54 16 -82 19 -8 1 -21 9 -28
17 -12 13 -13 13 -6 0 6 -12 4 -13 -7 -2 -16 15 -49 16 -49 2 0 -7 -6 -7 -19
0 -25 13 -38 13 -46 0z"/>
<path d="M4872 8157 c-7 -7 -8 -17 -4 -21 4 -4 7 -11 8 -14 4 -31 28 -102 35
-102 17 0 16 18 -5 83 -18 56 -24 66 -34 54z"/>
<path d="M2912 8143 c-10 -4 -67 -82 -95 -129 -9 -15 16 -13 31 3 7 7 10 13 7
13 -4 0 10 20 31 45 20 25 33 45 28 45 -4 0 1 7 12 15 19 14 12 19 -14 8z"/>
<path d="M4919 8000 c-6 -56 -3 -240 4 -240 4 0 5 -5 1 -12 -4 -7 -3 -8 4 -4
14 9 15 234 2 256 -9 13 -10 13 -11 0z"/>
<path d="M2793 7971 c3 -11 -1 -22 -8 -25 -8 -3 -18 -13 -24 -24 -8 -14 -7
-19 4 -19 8 0 17 9 21 19 3 10 10 18 15 18 5 0 9 11 9 25 0 14 -5 25 -11 25
-6 0 -9 -9 -6 -19z"/>
<path d="M2734 7875 c-3 -8 -3 -19 1 -24 3 -7 0 -8 -9 -5 -9 3 -16 1 -16 -5 0
-7 -10 -25 -22 -41 -16 -23 -19 -33 -10 -40 7 -6 10 -7 7 -3 -3 3 4 12 15 20
11 8 20 21 20 29 0 8 10 24 21 35 16 16 18 23 9 29 -9 6 -9 9 1 13 11 4 11 6
1 6 -7 1 -15 -6 -18 -14z"/>
<path d="M2643 7722 c-11 -15 -25 -37 -32 -49 -10 -19 -9 -23 4 -23 9 0 13 5
10 10 -3 6 -1 10 5 10 7 0 10 7 6 15 -3 9 0 15 9 15 7 0 17 9 20 21 10 31 1
32 -22 1z"/>
<path d="M2580 7618 c-37 -59 -113 -226 -113 -250 0 -16 -4 -28 -9 -28 -4 0
-8 -4 -8 -10 0 -21 28 -9 32 15 3 14 1 25 -5 25 -6 0 -2 6 8 14 11 8 16 19 12
30 -4 10 -3 15 3 11 11 -7 33 32 25 45 -3 6 -1 10 5 10 6 0 15 10 20 23 6 12
14 29 19 37 24 42 41 79 41 89 0 18 -14 13 -30 -11z"/>
<path d="M6285 7522 c-11 -20 -23 -35 -26 -32 -3 3 -14 -2 -24 -10 -17 -13
-18 -13 -11 0 6 12 4 11 -6 -1 -7 -9 -19 -14 -27 -11 -10 3 -11 0 -5 -9 6 -11
3 -10 -11 1 -17 14 -18 13 -12 -2 7 -19 -8 -34 -18 -18 -4 6 -15 4 -31 -6 -13
-9 -24 -13 -24 -9 0 4 -7 1 -16 -6 -9 -7 -23 -14 -31 -15 -30 -5 -44 -14 -37
-25 4 -8 -4 -9 -27 -4 -22 4 -29 3 -21 -3 10 -7 6 -9 -15 -9 -41 1 -85 -11
-93 -24 -5 -7 -10 -8 -14 -1 -8 13 6 23 84 60 91 43 141 63 170 68 51 10 130
36 135 44 8 14 -45 24 -57 12 -6 -6 -17 -8 -24 -5 -8 3 -14 0 -14 -7 0 -6 -5
-8 -10 -5 -6 4 -17 1 -25 -5 -8 -6 -19 -9 -25 -5 -5 3 -10 1 -10 -5 0 -6 -4
-9 -9 -5 -5 3 -12 1 -16 -5 -4 -6 -11 -8 -16 -5 -5 4 -9 0 -9 -7 0 -9 -3 -9
-10 2 -7 11 -10 11 -10 2 0 -7 -3 -11 -8 -8 -4 2 -23 -3 -42 -12 -37 -16 -44
-19 -59 -21 -5 0 -29 -20 -52 -42 -24 -23 -45 -36 -47 -30 -2 7 -14 4 -32 -9
-15 -11 -33 -20 -40 -20 -6 0 -8 -4 -5 -10 3 -5 1 -10 -4 -10 -6 0 -11 -7 -11
-16 0 -8 -4 -12 -10 -9 -28 17 -170 -96 -170 -136 0 -11 -4 -18 -9 -15 -4 3
-17 -4 -27 -16 -11 -12 -14 -18 -7 -15 6 4 13 4 16 0 2 -5 2 -2 0 5 -2 9 3 11
15 8 11 -4 31 7 57 31 38 35 137 103 151 103 3 0 20 6 37 14 18 7 64 23 102
34 149 44 278 93 336 127 68 40 70 41 63 20 -13 -32 25 -13 51 27 20 30 23 39
11 35 -10 -4 -15 -3 -11 3 3 6 14 10 23 10 15 0 15 2 2 10 -10 6 -11 10 -2 10
6 0 12 5 12 10 0 23 -27 7 -45 -28z m-465 -198 c0 -10 -6 -14 -14 -11 -8 3
-17 1 -20 -6 -2 -7 -5 -5 -5 5 -1 15 11 25 32 27 4 1 7 -6 7 -15z"/>
<path d="M6383 7497 c-41 -67 -24 -84 30 -27 40 42 48 75 20 77 -11 1 -30 -18
-50 -50z"/>
<path d="M3022 7423 c-12 -31 -7 -315 7 -362 30 -102 98 -210 123 -195 7 4 8
2 4 -4 -13 -22 162 -169 209 -176 6 -1 23 -11 38 -22 14 -12 41 -27 59 -34
121 -44 179 -94 201 -171 17 -57 20 -207 5 -276 -9 -41 -8 -56 2 -68 10 -12
10 -15 -2 -15 -10 0 -20 -18 -28 -47 -7 -27 -17 -53 -21 -58 -4 -6 -10 -22
-12 -35 -3 -14 -8 -38 -12 -53 -7 -25 -5 -28 11 -25 13 2 19 12 19 31 -1 15 2
27 6 27 3 0 11 11 17 24 8 19 8 26 -1 30 -9 3 -8 5 1 5 7 1 10 6 7 11 -3 6 -2
10 3 10 9 0 18 25 28 78 3 13 -1 22 -8 22 -7 0 -2 7 10 16 16 11 23 25 21 43
-1 14 1 34 5 43 8 18 1 214 -8 257 -10 45 -50 95 -106 133 -36 25 -120 62
-120 53 0 -3 -8 3 -18 13 -11 9 -17 20 -16 23 2 4 -8 9 -22 12 -20 3 -24 1
-19 -12 3 -9 -5 -4 -17 10 -13 14 -44 38 -70 53 -27 15 -48 31 -48 36 0 5 -9
11 -19 15 -25 8 -82 66 -75 76 2 4 -5 13 -16 19 -11 6 -20 17 -20 25 0 8 -3
15 -7 15 -7 0 -43 76 -50 105 -1 6 -7 30 -13 55 -12 48 -9 283 4 313 7 14 3
17 -18 17 -16 0 -30 -7 -34 -17z"/>
<path d="M2438 7293 c7 -3 16 -2 19 1 4 3 -2 6 -13 5 -11 0 -14 -3 -6 -6z"/>
<path d="M2416 7235 c-3 -8 0 -17 6 -21 6 -4 8 -3 4 4 -3 5 -1 12 6 14 8 3 9
6 1 11 -6 4 -13 0 -17 -8z"/>
<path d="M2412 7143 c-2 -19 -3 -38 -4 -42 -2 -17 3 -31 11 -31 11 0 13 97 3
104 -4 3 -9 -11 -10 -31z"/>
<path d="M4882 7148 c2 -13 8 -26 13 -30 6 -5 5 -8 -2 -8 -16 0 -17 -46 -2
-56 7 -4 8 -9 1 -13 -6 -3 -13 -59 -16 -123 -6 -104 -5 -117 9 -112 18 7 20
24 3 24 -9 0 -9 3 1 9 10 6 12 19 8 40 -4 19 -2 40 6 52 10 16 9 21 -3 29 -8
5 -10 10 -4 10 8 0 12 31 11 100 0 79 -3 100 -14 100 -9 0 -13 -8 -11 -22z"/>
<path d="M2416 7052 c-4 -7 -7 -61 -7 -120 1 -142 1 -139 18 -202 21 -78 36
-110 51 -110 7 0 10 -4 7 -10 -3 -5 -1 -10 4 -10 6 0 11 -8 11 -18 0 -10 7
-27 15 -37 9 -11 35 -50 59 -88 23 -37 46 -64 49 -60 4 3 7 -3 7 -14 0 -11 11
-26 25 -33 13 -7 22 -16 20 -21 -5 -7 46 -49 59 -49 14 0 5 24 -16 44 -13 12
-34 36 -48 54 -14 18 -35 44 -47 58 -13 14 -23 29 -23 34 0 4 -17 30 -38 57
-42 53 -97 160 -107 211 -4 18 -10 30 -15 27 -4 -3 -6 4 -3 15 3 11 2 28 -2
37 -9 24 -13 143 -5 168 9 28 -3 84 -14 67z"/>
<path d="M4639 7023 c-1 -16 -1 -35 0 -43 1 -14 -11 -81 -23 -125 -3 -11 -21
-65 -41 -120 -20 -55 -40 -111 -44 -125 -5 -14 -17 -41 -28 -60 -25 -45 -34
-78 -21 -86 11 -7 19 -1 22 18 1 7 10 28 19 46 10 17 15 32 12 32 -3 0 0 10 7
23 7 12 11 25 10 30 -1 4 2 7 8 7 6 0 10 8 10 18 0 10 5 23 12 30 7 7 8 12 2
12 -5 0 -3 4 4 8 7 5 14 23 17 41 2 18 8 38 13 44 17 23 46 151 34 155 -6 2
-8 10 -5 18 3 7 8 12 12 9 4 -2 8 18 10 46 2 39 -1 49 -14 49 -9 0 -15 -10
-16 -27z"/>
<path d="M6211 6999 c-17 -14 -33 -18 -49 -14 -18 4 -31 -3 -60 -32 -20 -20
-40 -36 -44 -35 -5 1 -8 -2 -8 -7 0 -5 -13 -12 -30 -16 -16 -4 -30 -11 -30
-17 0 -6 -13 -24 -30 -40 -16 -15 -30 -35 -30 -44 0 -8 -4 -12 -10 -9 -5 3
-10 -1 -10 -9 0 -8 -9 -18 -20 -21 -11 -3 -20 -12 -20 -19 0 -6 -16 -30 -35
-51 -78 -87 -83 -95 -58 -95 20 0 101 75 163 151 75 91 110 130 110 122 0 -4
4 -3 8 2 12 17 106 80 124 83 13 2 16 -4 15 -25 -1 -19 2 -27 11 -25 8 1 11
-2 7 -8 -3 -6 -11 -7 -17 -4 -17 11 -2 -52 19 -82 10 -13 31 -27 46 -31 15 -3
34 -14 41 -25 10 -13 23 -18 42 -16 28 3 29 5 29 61 0 43 4 57 15 57 10 0 11
3 3 11 -6 6 -9 17 -6 25 3 7 -9 38 -27 69 -31 54 -33 56 -71 52 -21 -2 -42 0
-46 4 -4 4 -19 -1 -32 -12z"/>
<path d="M4877 6793 c-6 -11 -18 -66 -22 -105 -6 -59 -27 -173 -36 -189 -4 -8
-3 -22 3 -30 8 -12 9 -11 5 3 -4 10 1 18 12 21 23 6 37 67 19 78 -10 6 -9 11
5 21 19 15 30 108 12 108 -5 0 -4 4 4 9 8 5 11 16 8 25 -4 9 -3 16 1 16 4 0 8
11 8 25 2 24 -10 34 -19 18z"/>
<path d="M6863 6726 c-9 -10 -8 -28 4 -77 9 -35 20 -66 23 -69 4 -3 7 -99 6
-215 -2 -180 -5 -223 -25 -299 -12 -48 -20 -91 -17 -94 3 -3 -3 -11 -14 -19
-11 -8 -20 -21 -20 -30 0 -38 -191 -182 -224 -170 -8 3 -16 1 -19 -6 -2 -6
-22 -11 -45 -11 -23 -1 -42 -5 -42 -9 0 -4 -19 -6 -42 -3 -100 13 -138 13
-132 2 3 -6 -1 -3 -9 7 -8 9 -17 17 -20 17 -4 0 -4 -8 -1 -17 5 -15 3 -15 -10
1 -9 11 -16 17 -16 13 0 -4 -9 -3 -20 3 -14 7 -20 7 -20 0 0 -5 -5 -10 -11
-10 -6 0 -9 7 -5 15 3 8 2 14 -2 13 -6 -2 -40 10 -82 27 -72 30 -90 40 -90 47
0 5 -4 7 -9 3 -5 -3 -17 2 -25 11 -9 8 -16 12 -16 8 0 -4 -8 3 -19 14 -10 12
-26 22 -35 22 -10 0 -21 13 -27 30 -6 17 -18 30 -27 30 -8 0 -13 3 -9 6 3 4 1
12 -6 20 -29 32 -37 44 -37 52 0 6 -9 12 -20 15 -12 3 -20 14 -20 27 0 13 -9
37 -19 54 -10 17 -22 45 -26 63 -6 31 -28 49 -46 37 -12 -7 -11 -20 4 -36 6
-7 14 -24 16 -38 1 -14 6 -27 10 -30 5 -3 11 -17 15 -32 3 -16 11 -28 16 -28
6 0 10 -5 10 -12 0 -21 81 -119 92 -112 6 4 8 3 5 -3 -4 -6 1 -17 10 -24 14
-12 16 -12 8 0 -5 10 -4 12 4 7 6 -4 9 -12 6 -17 -10 -16 19 -47 81 -87 168
-108 458 -168 614 -127 67 17 134 49 160 75 8 9 27 23 43 33 15 10 27 24 27
31 0 8 7 16 15 20 8 3 15 12 15 19 0 8 7 21 16 28 21 17 34 52 22 60 -5 3 -3
13 6 22 17 16 50 106 43 113 -3 3 1 24 8 48 26 87 13 496 -16 496 -5 0 -9 14
-9 31 0 31 -15 69 -28 69 -4 -1 -12 -7 -19 -14z m37 -700 c0 -2 -8 -10 -17
-17 -16 -13 -17 -12 -4 4 13 16 21 21 21 13z m-315 -300 c-11 -8 -24 -12 -29
-8 -5 3 -1 9 10 13 31 12 39 10 19 -5z"/>
<path d="M4456 6451 c-4 -6 -4 -16 0 -23 4 -6 3 -8 -3 -5 -6 4 -22 -17 -37
-46 -42 -84 -73 -137 -90 -156 -9 -10 -16 -25 -16 -34 0 -9 -8 -22 -19 -29
-10 -7 -21 -23 -25 -35 -4 -13 -12 -23 -18 -23 -6 0 -8 -9 -5 -20 3 -10 2 -19
-2 -18 -20 2 -31 -4 -31 -16 0 -8 -31 -48 -70 -88 -65 -68 -91 -110 -76 -125
6 -6 116 105 116 118 0 3 12 20 28 37 58 65 132 171 132 189 0 7 3 13 8 13 9
0 48 71 45 82 -2 4 2 8 7 8 6 0 10 6 10 14 0 7 7 19 16 27 11 9 14 22 10 41
-3 17 -2 27 4 23 13 -8 40 48 31 64 -6 9 -11 10 -15 2z"/>
<path d="M4805 6429 c-9 -29 4 -38 21 -15 18 25 18 36 0 36 -8 0 -18 -9 -21
-21z"/>
<path d="M4756 6272 c-21 -64 -45 -127 -52 -140 -8 -12 -12 -27 -9 -32 3 -5 1
-11 -5 -15 -18 -11 -41 -77 -34 -98 4 -13 2 -17 -5 -13 -6 4 -20 -13 -33 -41
-12 -26 -26 -49 -30 -51 -4 -2 -8 -12 -8 -22 0 -13 5 -17 19 -13 20 5 68 103
50 103 -5 0 -9 4 -9 10 0 5 7 7 15 4 9 -4 17 1 21 12 3 11 10 27 15 36 12 24
11 31 -2 22 -7 -4 -10 -1 -7 7 3 8 10 13 16 12 10 -2 36 58 37 82 0 6 4 13 9
17 18 13 34 86 22 98 -8 8 -7 10 5 5 9 -3 16 0 16 7 1 7 7 28 15 47 10 28 11
35 0 39 -9 3 -10 7 -2 17 6 7 7 16 2 18 -4 3 -25 -47 -46 -111z m-36 -156 c0
-3 -4 -8 -10 -11 -5 -3 -10 -1 -10 4 0 6 5 11 10 11 6 0 10 -2 10 -4z"/>
<path d="M2735 6260 c4 -6 11 -8 16 -5 14 9 11 15 -7 15 -8 0 -12 -5 -9 -10z"/>
<path d="M2767 6243 c-3 -3 4 -24 15 -47 12 -22 21 -47 20 -53 -2 -7 4 -23 12
-35 8 -13 15 -27 14 -31 0 -7 46 -104 60 -126 1 -3 7 0 12 5 10 10 -6 69 -26
95 -20 28 -52 95 -58 123 -8 33 -40 78 -49 69z"/>
<path d="M7313 6204 c-12 -12 -31 -25 -42 -29 -11 -3 -34 -19 -52 -36 -17 -16
-34 -29 -38 -29 -10 0 -51 -65 -51 -82 0 -18 20 -28 57 -28 18 0 24 4 19 15
-3 9 0 15 9 15 10 0 15 10 15 31 0 33 45 82 108 116 17 10 32 21 32 26 0 4 4
5 10 2 5 -3 7 0 5 7 -8 21 -48 16 -72 -8z m-93 -154 c0 -5 -5 -10 -11 -10 -5
0 -7 5 -4 10 3 6 8 10 11 10 2 0 4 -4 4 -10z"/>
<path d="M1794 5982 c-17 -11 -24 -40 -11 -46 9 -3 9 -7 0 -13 -16 -12 -56
-141 -50 -164 3 -10 2 -17 -3 -14 -10 6 -42 -60 -44 -91 0 -13 -7 -26 -13 -29
-18 -6 -16 -35 2 -35 22 0 39 38 24 56 -9 11 -8 14 5 14 10 0 14 5 11 10 -3 6
0 10 8 10 13 0 34 60 29 83 -1 4 2 7 6 7 4 0 9 8 10 18 3 32 8 47 20 67 10 18
11 18 12 2 0 -10 3 -16 8 -14 4 3 6 -68 6 -158 -1 -133 1 -162 12 -158 9 3 13
19 11 43 -1 21 -5 36 -9 33 -5 -2 -8 7 -8 21 0 14 5 26 10 26 7 0 7 7 -1 21
-8 16 -8 20 1 14 15 -10 11 128 -6 175 -7 19 -13 31 -15 25 -1 -5 -5 8 -8 30
-4 22 -3 48 1 58 10 19 8 20 -8 9z"/>
<path d="M2888 5905 c3 -22 10 -35 19 -35 20 0 12 64 -8 68 -12 2 -14 -5 -11
-33z"/>
<path d="M3565 5814 c-9 -31 -14 -63 -11 -71 3 -8 1 -11 -4 -8 -6 3 -10 -3
-10 -14 0 -31 17 -25 29 9 6 18 6 30 0 30 -5 0 -9 5 -9 11 0 6 6 9 14 6 8 -3
16 2 19 11 3 9 10 32 15 50 9 28 8 32 -8 32 -14 0 -23 -14 -35 -56z"/>
<path d="M2902 5852 c-10 -7 -11 -39 -2 -77 1 -5 1 -12 0 -15 -1 -3 -3 -18 -5
-35 -2 -27 -26 -130 -41 -177 -4 -13 0 -18 14 -18 18 0 31 33 37 95 0 6 3 15
6 20 4 6 9 23 13 38 5 22 4 27 -6 21 -10 -6 -10 -4 -2 7 14 18 17 116 4 124
-6 4 -8 11 -5 16 7 11 4 11 -13 1z"/>
<path d="M4534 5758 c-19 -40 -40 -79 -46 -85 -6 -7 -8 -13 -4 -13 3 0 -6 -24
-21 -52 -28 -53 -34 -69 -36 -100 -1 -10 -9 -18 -19 -18 -10 0 -18 -5 -18 -11
0 -19 -47 -114 -64 -128 -9 -7 -16 -18 -16 -23 0 -5 -6 -15 -12 -22 -7 -8 -20
-24 -28 -36 -21 -32 -200 -234 -211 -238 -4 -2 -32 -33 -60 -70 -41 -53 -45
-61 -18 -36 34 31 125 94 136 94 3 0 27 16 53 35 26 19 52 35 56 35 5 0 21 11
36 25 15 14 30 25 33 25 5 0 126 94 179 140 51 45 190 190 181 190 -3 0 5 10
17 22 14 14 18 23 10 26 -16 5 -42 -16 -42 -34 0 -8 -4 -14 -9 -14 -5 0 -12
-9 -16 -20 -3 -11 -10 -19 -14 -17 -8 2 -47 -33 -120 -107 -14 -14 -28 -23
-33 -20 -4 3 -5 -3 -1 -12 4 -11 3 -15 -4 -11 -6 4 -13 4 -15 0 -5 -12 -66
-53 -78 -53 -5 0 -10 -6 -10 -14 0 -8 -9 -18 -20 -21 -11 -3 -20 -11 -20 -16
0 -5 -6 -9 -14 -9 -8 0 -17 -12 -20 -26 -6 -22 -9 -24 -23 -12 -9 7 -14 8 -10
2 4 -7 -4 -14 -21 -17 -36 -7 -37 -5 -7 27 13 14 25 29 25 31 2 19 15 35 27
35 10 0 14 7 10 19 -3 12 0 18 7 15 13 -5 52 55 48 75 -2 7 1 10 6 7 5 -3 17
3 27 14 11 13 14 20 6 20 -7 0 -9 5 -6 10 4 6 11 8 16 5 5 -4 9 1 9 9 0 8 6
21 13 28 6 7 27 41 44 74 25 46 30 63 21 72 -9 9 -8 12 5 12 12 0 35 38 77
124 33 68 60 127 60 130 0 3 -7 6 -15 6 -8 0 -30 -32 -51 -72z"/>
<path d="M3963 5764 c-17 -19 -34 -42 -37 -50 -3 -8 -11 -14 -17 -14 -6 0 -9
-9 -6 -20 3 -12 0 -20 -7 -20 -6 0 -17 -9 -24 -20 -7 -12 -17 -18 -22 -15 -6
3 -10 1 -10 -4 0 -9 -50 -83 -105 -156 -8 -10 -15 -23 -15 -27 0 -5 -8 -18
-19 -29 -10 -11 -35 -54 -55 -95 -21 -40 -41 -74 -46 -74 -5 0 -12 -10 -15
-22 -4 -13 -20 -49 -36 -81 -17 -31 -27 -62 -24 -67 3 -6 1 -10 -5 -10 -6 0
-15 -12 -21 -27 -6 -16 -22 -53 -36 -83 -56 -121 -86 -207 -79 -226 3 -8 -1
-17 -8 -20 -12 -5 -31 -57 -27 -76 0 -5 -3 -8 -7 -8 -4 0 -8 -9 -9 -20 -1 -12
4 -20 14 -20 9 0 13 6 9 15 -3 8 -1 14 5 12 6 -1 16 15 23 36 8 20 11 37 7 37
-3 0 -1 4 5 8 6 4 19 31 29 61 14 42 15 55 5 61 -10 6 -8 9 5 11 21 5 78 141
63 150 -5 3 -2 9 7 12 14 6 53 79 59 111 1 6 13 29 27 51 13 22 33 56 44 76
31 58 74 127 129 212 28 43 50 83 49 88 -2 5 3 9 11 9 8 0 17 8 21 19 3 10 23
38 45 62 22 24 40 48 40 52 0 4 15 23 34 42 37 37 66 75 66 87 0 20 -38 4 -67
-28z"/>
<path d="M7541 5781 c-11 -7 -9 -11 8 -20 12 -7 19 -16 17 -20 -8 -13 35 -60
50 -54 11 4 10 10 -4 31 -9 15 -22 33 -29 40 -7 7 -13 18 -13 23 0 11 -11 11
-29 0z"/>
<path d="M4780 5668 c0 -4 7 -8 15 -8 8 0 15 4 15 8 0 5 -7 9 -15 9 -8 0 -15
-4 -15 -9z"/>
<path d="M4813 5655 c-17 -19 -16 -25 2 -25 8 0 15 9 15 20 0 23 -1 24 -17 5z"/>
<path d="M4759 5640 c-1 -5 -2 -13 -3 -17 -1 -5 -16 -23 -34 -41 -30 -31 -41
-52 -25 -52 15 0 73 77 73 98 0 22 -9 31 -11 12z"/>
<path d="M4798 5592 c-3 -21 -1 -28 8 -25 7 2 11 14 9 25 -7 32 -12 32 -17 0z"/>
<path d="M3514 5534 c5 -17 3 -23 -4 -19 -5 3 -15 -6 -21 -22 -5 -15 -22 -51
-36 -80 -13 -29 -22 -57 -18 -63 3 -6 1 -9 -6 -8 -7 2 -17 -13 -23 -34 -6 -20
-14 -40 -18 -44 -5 -4 -8 -16 -8 -26 0 -10 -3 -18 -7 -18 -13 0 -97 -220 -85
-220 4 0 0 -5 -8 -10 -10 -7 -11 -10 -2 -10 9 0 8 -7 -4 -25 -9 -14 -23 -51
-31 -83 -8 -31 -19 -75 -24 -97 -29 -114 -40 -221 -40 -380 1 -94 5 -193 10
-220 5 -27 7 -53 5 -57 -3 -5 0 -8 5 -8 6 0 11 5 11 10 0 15 30 12 31 -2 1
-23 21 36 24 72 2 19 8 48 14 63 14 37 14 37 -6 30 -17 -5 -17 -5 -1 8 10 8
27 50 38 94 12 44 25 96 30 115 19 72 4 96 -25 40 -9 -16 -13 -30 -11 -30 3 0
1 -12 -5 -27 -6 -16 -13 -41 -15 -58 -6 -43 -44 -206 -54 -230 -10 -24 -11 -7
-11 208 0 132 -2 147 -17 148 -14 0 -14 2 -2 7 8 4 17 14 19 22 11 40 38 226
34 233 -2 4 1 7 6 7 6 0 11 8 11 18 0 10 3 22 7 26 4 4 9 18 10 32 2 14 9 37
15 52 6 15 12 29 13 32 1 3 7 19 14 35 7 17 19 48 26 70 27 80 46 131 67 175
11 25 27 59 34 75 7 17 26 61 43 98 42 93 46 113 26 121 -14 5 -16 2 -11 -20z"/>
<path d="M7349 5543 c-1 -5 -1 -11 0 -15 0 -5 -5 -8 -12 -8 -19 0 -87 -67 -87
-85 0 -8 -5 -14 -12 -12 -12 2 -44 -51 -35 -59 8 -8 37 8 31 17 -3 5 1 9 8 9
7 0 31 18 52 40 47 48 88 61 147 48 94 -19 139 -21 157 -5 55 48 96 17 133
-101 22 -73 33 -91 53 -92 17 0 -16 123 -52 196 -8 17 -23 36 -33 42 -26 16
-81 25 -88 13 -3 -5 -15 -11 -26 -13 -11 -1 -23 -7 -27 -12 -8 -12 -38 -17
-38 -6 0 7 -20 16 -91 39 -41 13 -78 14 -80 4z"/>
<path d="M4790 5531 c0 -5 5 -13 10 -16 6 -3 10 -2 10 4 0 5 -4 13 -10 16 -5
3 -10 2 -10 -4z"/>
<path d="M1824 5506 c-6 -7 -14 -27 -17 -46 -8 -44 -11 -355 -4 -367 3 -5 2
-15 -3 -23 -4 -7 -5 -23 -1 -34 5 -12 6 -27 3 -35 -2 -8 -1 -11 4 -8 5 3 9
-20 10 -51 1 -65 3 -84 16 -167 10 -61 45 -172 60 -190 4 -5 8 -17 8 -27 0
-22 36 -89 57 -105 8 -6 12 -16 8 -22 -3 -6 -3 -11 2 -12 4 0 16 -2 26 -4 21
-4 22 -6 -7 52 -39 76 -69 147 -69 161 0 7 -7 10 -15 7 -12 -4 -12 -2 -4 8 7
8 9 17 5 21 -8 8 -10 14 -24 94 -9 45 -16 62 -28 62 -13 0 -13 2 -2 9 10 7 12
21 7 52 -3 24 -9 89 -12 144 -4 55 -12 103 -18 107 -8 5 -7 8 2 8 6 0 12 9 12
19 0 11 -6 22 -12 25 -10 5 -10 7 0 12 10 5 10 9 0 22 -11 13 -11 14 0 8 10
-6 13 14 12 96 -1 56 1 113 4 125 2 12 2 33 -2 46 -5 19 -10 22 -18 13z m-7
-108 c-3 -8 -6 -5 -6 6 -1 11 2 17 5 13 3 -3 4 -12 1 -19z"/>
<path d="M2840 5499 c-6 -11 -9 -25 -7 -32 2 -7 -4 -23 -15 -36 -15 -19 -16
-27 -6 -39 8 -10 8 -13 2 -9 -7 4 -17 -6 -24 -24 -11 -25 -11 -33 2 -45 14
-14 16 -13 21 5 3 12 0 21 -6 21 -6 0 -4 6 5 13 17 14 52 97 40 97 -4 0 -2 4
4 8 6 4 14 19 18 35 8 33 -17 38 -34 6z"/>
<path d="M4788 5453 c-2 -21 0 -55 3 -75 4 -21 2 -38 -2 -38 -13 0 -5 -173 8
-177 6 -2 8 -13 5 -25 -3 -12 1 -26 9 -32 8 -6 15 -22 17 -36 6 -41 56 -139
74 -145 10 -4 15 -12 11 -21 -3 -7 0 -14 6 -14 6 0 11 -7 11 -15 0 -9 7 -18
15 -21 8 -4 15 -11 15 -18 0 -6 14 -22 31 -36 17 -14 40 -33 50 -43 30 -27 71
-40 80 -25 9 14 2 28 -14 28 -6 0 -23 11 -37 24 -92 88 -139 140 -134 147 3 5
1 9 -5 9 -8 0 -51 82 -80 155 -5 11 -14 34 -21 50 -15 33 -20 101 -19 248 0
57 -4 97 -10 97 -5 0 -11 -17 -13 -37z"/>
<path d="M7410 5293 c0 -14 -2 -15 -9 -4 -6 9 -11 10 -15 2 -4 -6 -12 -11 -17
-11 -6 0 -7 4 -4 10 4 6 -4 6 -22 -1 -15 -5 -31 -16 -35 -22 -6 -9 -8 -9 -8 0
0 6 -9 9 -20 6 -11 -3 -20 -9 -20 -14 0 -5 -3 -8 -7 -8 -23 4 -43 -2 -38 -11
3 -5 0 -7 -8 -4 -8 3 -21 -1 -28 -9 -7 -8 -21 -12 -31 -9 -12 3 -18 -1 -18
-12 0 -10 -4 -15 -9 -11 -5 3 -16 -1 -23 -9 -8 -7 -29 -17 -46 -21 -18 -3 -32
-11 -32 -16 0 -5 -6 -9 -14 -9 -7 0 -19 -7 -26 -15 -7 -8 -17 -12 -23 -8 -6 4
-8 0 -4 -10 3 -9 1 -19 -5 -23 -7 -4 -8 -3 -4 4 12 19 -5 14 -40 -13 -19 -14
-33 -31 -31 -37 2 -12 -4 -14 -39 -17 -11 -1 -14 -7 -9 -23 7 -22 6 -22 -7 -4
-13 17 -15 17 -21 2 -4 -9 -13 -16 -21 -16 -7 0 -26 -6 -42 -14 -19 -10 -33
-12 -45 -5 -10 5 -22 9 -28 9 -17 0 -41 -31 -41 -54 0 -21 5 -23 60 -25 40 -1
59 2 58 9 -2 6 17 22 42 36 25 13 50 30 55 37 6 7 22 18 37 24 14 7 36 20 48
30 12 10 32 27 46 38 13 11 40 28 61 39 21 10 47 23 58 29 186 101 281 126
471 127 139 0 172 -8 204 -50 16 -22 120 -42 120 -23 0 25 -28 44 -67 46 -23
0 -39 5 -37 9 3 4 0 8 -5 8 -6 0 -11 5 -11 11 0 5 6 7 13 3 6 -4 9 -4 5 1 -4
4 -33 9 -65 11 -32 3 -72 9 -89 15 -42 13 -126 20 -119 9 3 -5 1 -11 -5 -15
-5 -3 -10 -2 -10 4 0 5 -13 9 -29 9 -15 -1 -33 2 -40 6 -7 4 -11 0 -11 -11z"/>
<path d="M2775 5289 c4 -6 0 -16 -8 -22 -19 -15 -41 -83 -31 -98 4 -7 3 -9 -3
-6 -7 4 -14 -8 -18 -29 -7 -41 -1 -54 18 -34 9 10 9 11 0 6 -19 -10 -16 2 6
30 13 16 18 34 15 51 -4 19 1 32 15 43 26 20 33 70 10 70 -5 0 -7 -5 -4 -11z"/>
<path d="M7570 5050 c0 -7 -20 -9 -55 -6 -36 4 -55 2 -55 -5 0 -6 -7 -9 -15
-6 -8 4 -17 1 -21 -4 -3 -6 -15 -9 -25 -6 -12 3 -23 -2 -29 -14 -10 -18 -8
-19 27 -13 21 3 54 9 73 15 19 5 53 9 75 9 53 0 71 12 45 28 -13 8 -20 8 -20
2z"/>
<path d="M2688 5029 c-4 -57 -6 -65 -17 -92 -14 -36 -14 -87 0 -87 5 0 7 -5 3
-11 -4 -7 -1 -10 7 -7 8 3 13 13 12 23 -1 10 2 40 6 67 5 26 4 48 0 48 -5 0
-9 5 -9 10 0 6 6 9 12 8 19 -4 21 37 3 52 -13 11 -15 9 -17 -11z"/>
<path d="M4314 5033 c4 -7 2 -13 -3 -13 -6 0 -11 -4 -11 -10 0 -5 7 -10 15
-10 8 0 15 -7 15 -15 0 -8 7 -15 16 -15 10 0 14 -6 10 -15 -3 -8 -2 -15 2 -15
4 0 32 -22 62 -50 30 -27 59 -50 64 -50 5 0 25 -12 44 -27 70 -53 271 -145
380 -173 138 -36 393 -56 377 -30 -4 6 20 10 65 10 46 0 69 4 65 10 -4 6 -11
8 -16 5 -5 -4 -20 5 -34 19 -14 15 -31 26 -38 27 -14 1 -22 2 -107 26 -36 10
-68 22 -71 26 -3 5 -9 1 -13 -8 -8 -21 17 -41 62 -50 18 -3 32 -12 32 -20 0
-8 -4 -15 -10 -15 -5 0 -7 -7 -4 -15 6 -15 -7 -21 -20 -8 -9 9 -33 14 -83 16
-24 1 -43 4 -43 7 0 6 -38 11 -92 11 -21 1 -38 5 -38 9 0 9 -34 21 -65 24 -11
1 -35 10 -53 20 -19 10 -40 15 -48 12 -8 -3 -14 -1 -14 5 0 6 -5 7 -12 3 -6
-4 -16 -1 -22 7 -15 19 -52 39 -71 39 -8 0 -15 5 -15 10 0 6 -17 19 -37 28
-34 16 -80 43 -108 65 -5 4 -33 25 -61 47 -28 22 -54 37 -58 33 -3 -3 -6 1 -6
10 0 9 -14 31 -31 49 -18 18 -29 27 -25 21z m967 -383 c5 0 9 -4 9 -9 0 -4
-13 -8 -29 -7 -19 1 -27 5 -23 14 2 7 11 11 19 8 8 -3 19 -6 24 -6z"/>
<path d="M4325 4900 c-3 -5 1 -10 10 -10 9 0 13 5 10 10 -3 6 -8 10 -10 10 -2
0 -7 -4 -10 -10z"/>
<path d="M4330 4854 c0 -14 4 -33 9 -43 6 -10 12 -39 16 -66 3 -27 9 -52 13
-55 4 -3 7 -11 8 -17 1 -7 2 -20 3 -29 0 -9 7 -14 14 -11 6 2 11 10 9 16 -1 6
-4 22 -6 34 -2 12 -10 21 -17 19 -9 -2 -10 0 -1 11 7 8 9 16 6 20 -3 3 -7 16
-8 29 -11 88 -19 118 -32 118 -8 0 -14 -10 -14 -26z"/>
<path d="M2671 4771 c-8 -5 -10 -14 -6 -21 5 -8 4 -11 -2 -7 -13 8 -21 -65
-22 -220 -2 -123 12 -236 30 -242 8 -2 8 -5 0 -10 -8 -6 -7 -19 3 -49 8 -23
13 -42 11 -42 -3 0 0 -12 6 -27 6 -16 13 -37 15 -47 2 -11 7 -22 11 -25 5 -3
9 -17 11 -31 1 -14 11 -33 22 -42 11 -9 20 -20 19 -25 -4 -24 2 -35 17 -29 12
5 15 2 10 -9 -10 -27 123 -193 144 -180 5 3 10 0 10 -8 0 -25 33 -44 105 -62
39 -9 99 -28 135 -42 78 -29 325 -186 342 -217 30 -54 74 -105 90 -106 10 0
15 -5 12 -13 -2 -7 7 -25 20 -40 14 -15 26 -31 27 -35 0 -4 14 -35 30 -69 25
-53 29 -74 29 -147 0 -47 -4 -87 -9 -90 -5 -4 -12 -24 -16 -45 -3 -22 -15 -47
-26 -57 -10 -9 -19 -23 -19 -31 0 -8 -4 -12 -9 -8 -5 3 -12 1 -15 -4 -3 -5
-17 -12 -31 -15 -13 -3 -48 -20 -75 -36 -28 -17 -56 -28 -61 -25 -5 4 -9 2 -9
-3 0 -7 -67 0 -105 11 -23 7 -72 37 -84 51 -7 9 -16 14 -20 12 -4 -3 -13 0
-21 6 -12 8 -11 9 4 4 15 -5 17 -3 12 16 -19 67 -33 135 -30 151 1 9 -2 17 -7
17 -12 0 -12 37 0 45 5 3 15 30 21 59 6 30 20 62 30 71 11 10 20 24 20 32 0 7
5 13 11 13 6 0 9 -7 5 -15 -4 -13 7 -15 69 -15 73 0 75 1 63 20 -10 16 -21 19
-48 16 -19 -3 -35 -5 -35 -6 0 -1 -8 -3 -18 -5 -9 -2 -15 1 -11 6 8 13 -30 11
-44 -3 -7 -7 -12 -8 -12 -3 0 5 -11 -2 -25 -15 -66 -62 -73 -265 -13 -401 7
-15 38 -43 71 -64 74 -46 147 -57 204 -30 126 58 192 92 187 98 -4 4 1 9 10
13 9 3 16 12 16 19 0 7 5 15 10 17 16 5 42 98 28 98 -7 0 -5 6 4 13 20 15 29
113 16 172 -5 22 -20 57 -33 77 -14 20 -26 43 -27 49 -3 14 -21 38 -55 77 -13
13 -20 28 -17 33 3 5 0 9 -6 9 -6 0 -8 6 -4 13 4 6 3 9 -1 4 -10 -9 -45 21
-45 38 0 7 -7 16 -16 19 -8 3 -13 10 -10 15 3 5 -1 12 -10 15 -9 4 -14 9 -10
13 3 3 -3 11 -13 17 -48 28 -137 90 -143 100 -4 6 -8 7 -8 2 0 -5 -10 0 -23
12 -13 12 -27 19 -30 15 -4 -3 -7 -1 -7 5 0 7 -7 12 -15 12 -8 0 -15 5 -15 11
0 5 -5 7 -10 4 -6 -3 -23 3 -39 14 -16 12 -38 21 -49 21 -11 0 -27 6 -34 13
-7 6 -27 12 -45 12 -17 -1 -29 3 -26 8 3 5 -13 7 -36 4 -32 -3 -41 -1 -41 11
0 8 -3 13 -6 10 -9 -9 -106 91 -99 103 4 5 2 8 -3 7 -10 -3 -62 54 -62 68 0 5
-11 19 -24 31 -23 22 -66 102 -66 123 0 5 -8 10 -17 10 -12 0 -14 3 -7 8 12 7
12 36 1 62 -17 38 -47 226 -47 289 0 50 -4 71 -12 71 -9 0 -8 4 2 10 13 9 13
12 -3 24 -12 9 -14 16 -8 21 6 3 12 3 13 -2 1 -4 4 39 8 97 3 58 6 106 5 107
0 1 -7 -2 -14 -6z"/>
<path d="M4341 4683 c-1 -12 4 -25 9 -28 12 -7 12 2 0 30 -8 19 -9 19 -9 -2z"/>
<path d="M4345 4623 c1 -10 0 -22 -4 -28 -12 -21 -11 -55 1 -55 15 0 23 86 9
95 -5 3 -8 -3 -6 -12z"/>
<path d="M4337 4523 c-2 -5 -3 -21 -2 -38 1 -16 -3 -33 -8 -36 -11 -8 -1 -29
14 -29 6 0 8 4 4 9 -3 5 -1 13 5 16 8 5 7 11 -1 21 -8 10 -8 14 0 14 13 0 15
36 2 45 -5 3 -12 2 -14 -2z"/>
<path d="M1990 4396 c0 -13 60 -81 61 -69 0 4 4 -2 10 -15 5 -14 13 -20 20
-16 8 5 9 3 4 -6 -4 -7 -4 -15 1 -19 5 -3 22 -24 39 -46 16 -22 34 -45 40 -51
5 -6 21 -25 34 -42 23 -31 57 -45 48 -19 -2 6 -11 11 -18 9 -8 -2 -11 0 -7 3
9 10 -34 95 -61 119 -12 11 -21 23 -21 29 0 5 -11 18 -25 29 -14 11 -23 24
-20 29 4 5 2 9 -4 9 -6 0 -24 15 -41 33 -30 33 -60 44 -60 23z"/>
<path d="M4318 4403 c16 -6 15 -23 -2 -23 -8 0 -17 -17 -22 -42 -12 -66 -12
-88 0 -82 6 3 3 -1 -6 -9 -10 -8 -18 -21 -18 -29 0 -8 -11 -51 -25 -94 -14
-43 -25 -82 -25 -86 0 -10 40 -10 41 0 1 4 3 16 4 27 2 11 8 32 13 47 7 17 8
29 2 33 -6 4 -10 11 -10 16 0 6 5 7 10 4 6 -3 10 -3 10 2 0 4 3 19 7 32 4 17
3 22 -5 17 -7 -4 -12 -2 -12 3 0 6 7 11 15 11 9 0 15 10 15 26 0 14 -4 23 -10
19 -15 -9 -12 11 3 27 18 18 40 85 32 98 -3 5 -12 10 -18 9 -9 0 -9 -2 1 -6z"/>
<path d="M3208 4088 c-7 -21 3 -56 18 -62 15 -6 18 13 8 52 -7 24 -20 29 -26
10z"/>
<path d="M2255 4077 c-4 -9 -2 -24 5 -32 7 -9 10 -18 7 -21 -3 -4 4 -23 17
-43 12 -20 28 -52 35 -71 7 -19 29 -69 49 -110 19 -41 35 -81 35 -87 0 -7 9
-13 20 -13 15 0 18 5 13 23 -3 12 -6 26 -6 31 0 4 -7 5 -16 2 -13 -5 -14 -3
-6 7 8 9 7 24 -3 55 -16 46 -90 188 -111 212 -7 9 -17 27 -22 40 -9 22 -11 23
-17 7z"/>
<path d="M4214 4005 c-4 -8 -3 -22 0 -31 3 -8 2 -13 -3 -10 -11 7 -46 -168
-50 -254 0 -8 -3 -55 -7 -104 -5 -63 -4 -87 4 -82 6 3 14 1 18 -5 4 -7 3 -9
-4 -5 -6 3 -13 2 -17 -4 -9 -15 5 -99 20 -113 6 -7 9 -19 7 -26 -3 -8 2 -28
10 -45 9 -17 24 -51 34 -76 10 -25 23 -52 30 -60 7 -8 13 -18 13 -23 1 -4 14
-33 30 -65 51 -99 127 -203 180 -246 87 -72 221 -144 297 -161 28 -6 193 -63
228 -80 59 -27 111 -48 119 -49 4 -1 12 -7 16 -15 5 -8 14 -10 21 -6 9 5 11 4
6 -3 -4 -7 -3 -12 2 -12 4 0 24 -13 42 -30 18 -16 40 -30 47 -30 7 0 13 -4 13
-10 0 -5 4 -10 8 -10 17 0 8 30 -10 36 -10 3 -18 10 -18 16 0 6 -3 8 -6 5 -4
-3 -15 5 -26 19 -18 22 -66 53 -85 55 -18 2 -43 21 -39 28 6 10 -172 84 -184
76 -4 -3 -14 1 -22 8 -23 23 -48 28 -48 9 -1 -15 -3 -15 -18 3 -21 25 -77 51
-128 61 -21 4 -54 16 -73 28 -19 11 -43 22 -53 23 -29 4 -138 123 -138 150 0
4 -10 19 -23 33 -29 32 -63 88 -72 120 -4 14 -16 37 -27 53 -11 15 -17 27 -14
27 4 0 -5 18 -19 40 -14 22 -25 44 -25 50 0 6 -9 29 -20 50 -11 22 -18 40 -15
40 2 0 0 12 -6 28 -15 36 -21 213 -11 291 6 38 5 64 -1 68 -5 3 -4 9 3 13 6 4
12 32 13 63 1 30 5 53 8 51 5 -3 29 93 29 118 0 14 -30 9 -36 -7z"/>
<path d="M3232 3998 c-7 -9 -6 -17 4 -26 12 -11 14 -9 14 13 0 28 -3 30 -18
13z"/>
<path d="M7697 3723 c-3 -15 1 -27 9 -30 7 -2 16 -17 19 -33 3 -16 24 -43 47
-62 22 -18 48 -41 56 -50 9 -10 20 -18 24 -18 5 0 26 -13 49 -29 22 -16 53
-33 70 -36 16 -4 29 -11 29 -16 0 -5 6 -9 14 -9 7 0 27 -7 42 -15 16 -8 81
-27 144 -41 63 -15 149 -37 190 -50 107 -34 137 -30 88 12 -12 10 -18 13 -13
5 6 -11 4 -13 -11 -7 -10 5 -34 12 -52 18 -20 5 -30 13 -26 20 4 6 3 8 -3 5
-6 -4 -16 0 -23 8 -7 8 -16 12 -21 9 -5 -3 -18 0 -30 7 -16 8 -23 8 -29 -1 -5
-9 -9 -8 -13 3 -4 10 -20 13 -59 12 -29 -2 -47 -1 -40 2 6 3 9 9 6 14 -3 6
-11 5 -20 -2 -12 -10 -15 -10 -12 1 2 9 -8 16 -27 20 -16 3 -49 15 -71 27 -23
12 -44 19 -48 16 -3 -4 -6 -1 -6 5 0 6 -14 13 -30 17 -17 4 -28 10 -25 15 5 7
-41 25 -57 22 -4 -1 -15 11 -24 27 -10 16 -28 34 -40 40 -13 6 -30 27 -39 47
-8 20 -23 43 -33 51 -10 9 -11 12 -2 7 8 -4 11 -3 7 1 -16 18 -35 12 -40 -12z"/>
<path d="M2410 3680 c0 -6 4 -9 8 -6 4 2 9 -22 10 -55 1 -32 6 -69 10 -82 9
-25 7 -296 -2 -333 -4 -16 -2 -24 6 -24 10 0 10 -2 1 -8 -11 -7 -26 -54 -52
-157 -4 -16 -15 -44 -24 -62 -10 -18 -17 -37 -17 -43 0 -18 -61 -100 -103
-138 -31 -29 -35 -37 -25 -50 11 -13 10 -14 -10 -8 -16 5 -22 3 -22 -8 0 -17
-59 -62 -77 -58 -7 2 -13 -2 -13 -8 0 -5 -9 -10 -20 -10 -12 0 -20 -7 -20 -16
0 -13 7 -15 33 -10 17 3 37 12 42 19 6 6 27 21 48 31 20 11 37 25 37 33 0 7 7
13 15 13 8 0 15 4 15 9 0 5 14 14 30 21 17 7 30 19 30 28 0 8 3 13 6 9 17 -17
176 122 190 166 4 12 15 27 24 34 24 17 31 50 13 57 -19 8 -33 -1 -33 -20 0
-8 -4 -14 -8 -14 -4 0 -16 -13 -25 -30 -10 -16 -16 -30 -13 -30 8 0 -36 -42
-88 -85 -26 -21 -44 -30 -40 -21 3 9 10 16 14 16 11 0 25 38 29 78 0 7 5 11
10 8 8 -5 51 107 57 149 2 11 8 36 14 55 6 19 13 79 17 133 5 79 3 97 -8 97
-12 0 -12 2 0 9 18 12 11 169 -9 181 -10 6 -10 8 0 12 21 7 -10 122 -32 126
-10 2 -18 -2 -18 -8z"/>
<path d="M7527 3376 c-3 -8 -3 -17 1 -20 8 -8 32 -78 32 -94 0 -7 9 -32 20
-54 11 -23 20 -48 20 -55 0 -19 36 -84 43 -77 3 3 3 -3 0 -14 -6 -25 14 -65
29 -56 7 5 8 2 2 -7 -10 -16 -6 -49 7 -65 5 -6 7 -13 5 -15 -3 -2 3 -34 12
-69 11 -41 15 -81 12 -108 -4 -27 -2 -49 6 -60 9 -13 9 -21 -3 -39 -12 -18
-13 -26 -4 -37 8 -9 8 -16 2 -20 -5 -4 -13 -38 -17 -76 -3 -38 -10 -68 -14
-65 -7 5 -40 -70 -40 -92 0 -24 -16 -21 -18 4 -1 13 -5 30 -9 36 -4 7 -8 17
-8 22 -4 54 -50 200 -91 293 -13 29 -24 57 -24 62 0 6 -4 10 -10 10 -5 0 -10
9 -10 20 0 11 -7 23 -15 26 -8 4 -13 10 -10 14 3 4 -2 11 -11 14 -9 4 -14 13
-10 21 3 8 2 15 -2 15 -4 0 -20 20 -37 45 -16 24 -34 45 -38 45 -5 0 -5 5 -1
12 4 7 3 8 -4 4 -7 -4 -17 8 -27 30 -8 20 -23 44 -33 53 -10 9 -33 46 -51 83
-34 69 -56 90 -58 57 -1 -10 2 -19 8 -19 5 0 9 -9 9 -20 0 -10 10 -29 23 -41
12 -12 16 -19 9 -14 -8 4 -6 -8 7 -34 12 -23 26 -41 31 -41 6 0 10 -5 10 -11
0 -6 23 -44 52 -85 39 -56 49 -77 40 -83 -9 -5 -12 -23 -10 -47 l4 -39 10 34
c10 35 34 55 34 28 0 -8 7 -20 15 -27 8 -6 14 -15 13 -18 -2 -13 26 -72 34
-72 4 0 8 -6 8 -12 0 -7 6 -25 14 -40 8 -15 17 -42 21 -60 4 -18 11 -37 15
-43 4 -5 12 -31 18 -57 7 -25 17 -59 24 -75 6 -15 10 -35 9 -44 -1 -9 4 -29
10 -45 7 -16 11 -32 11 -37 -2 -9 16 -97 25 -117 3 -8 7 -18 7 -22 1 -5 5 -9
10 -10 4 -2 10 20 12 48 2 28 8 64 14 80 8 21 8 30 0 32 -6 2 4 14 22 27 28
19 36 33 47 86 19 88 22 129 8 129 -8 0 -7 4 2 9 10 7 14 33 14 103 -1 157 -1
158 -20 158 -14 0 -15 2 -4 9 9 6 12 18 7 37 -4 16 -8 41 -10 56 -1 16 -10 36
-18 45 -9 10 -18 34 -22 53 -7 42 -10 52 -17 65 -4 6 -12 27 -18 48 -7 20 -17
37 -22 37 -5 0 -8 3 -7 8 3 10 -23 85 -35 100 -17 22 1 13 30 -16 42 -41 77
-61 146 -83 125 -41 389 -43 548 -5 92 22 194 62 192 75 -2 6 4 11 13 11 8 0
12 4 9 10 -4 6 -16 3 -33 -8 -14 -9 -23 -11 -19 -4 5 6 4 12 -2 12 -5 0 -16
-6 -23 -12 -7 -7 -30 -13 -51 -13 -32 0 -35 -2 -20 -12 15 -12 15 -13 1 -13
-9 0 -20 4 -23 10 -8 13 -46 -11 -38 -25 4 -5 3 -7 -2 -3 -4 4 -15 2 -23 -5
-13 -9 -14 -9 -8 1 4 6 3 12 -3 12 -5 0 -13 -5 -16 -10 -5 -8 -11 -8 -20 0 -9
7 -21 7 -39 0 -15 -5 -40 -10 -55 -10 -15 0 -32 -5 -39 -12 -8 -8 -15 -8 -27
2 -14 11 -20 11 -37 1 -14 -9 -23 -9 -27 -2 -7 11 -29 10 -48 -2 -6 -4 -13 -3
-15 2 -1 5 -30 11 -63 14 -33 2 -69 8 -80 13 -11 5 -29 9 -40 9 -11 -1 -32 7
-47 17 -14 10 -32 18 -38 18 -7 0 -31 19 -54 43 -22 23 -45 41 -50 39 -5 -2
-15 6 -23 18 -17 23 -29 26 -36 6z"/>
<path d="M8633 3323 c-22 -8 -14 -23 12 -23 14 0 40 -6 58 -13 58 -25 180 -46
322 -57 175 -13 293 -28 370 -46 33 -8 67 -16 75 -18 8 -2 49 -22 90 -45 41
-22 83 -41 92 -41 23 0 13 27 -13 35 -11 4 -16 11 -13 17 4 6 1 9 -7 6 -8 -3
-22 7 -31 21 -11 16 -18 20 -18 11 0 -9 -3 -11 -8 -5 -13 19 -61 45 -89 50
-16 2 -38 7 -50 10 -14 5 -23 3 -23 -4 0 -12 -32 -15 -43 -4 -4 3 -1 13 6 21
10 13 9 15 -5 9 -10 -3 -32 -1 -49 5 -24 8 -37 8 -52 -1 -10 -7 -16 -8 -13 -2
4 5 -2 10 -11 10 -10 0 -65 4 -123 8 -58 3 -142 6 -187 5 -60 -1 -83 3 -86 12
-4 9 -20 13 -51 11 -27 -1 -43 2 -39 8 3 5 -3 6 -16 2 -11 -3 -21 -2 -21 3 0
6 -9 8 -20 5 -11 -3 -26 -1 -33 4 -6 6 -18 8 -24 6z"/>
<path d="M2636 3275 c-3 -9 0 -15 9 -15 8 0 15 7 15 15 0 8 -4 15 -9 15 -5 0
-11 -7 -15 -15z"/>
<path d="M2613 3225 c-8 -19 -8 -25 1 -25 18 0 35 21 29 36 -8 20 -17 17 -30
-11z"/>
<path d="M2656 3191 c-3 -4 -8 -65 -11 -135 -3 -95 -13 -158 -35 -249 -44
-175 -51 -208 -57 -242 -2 -16 -9 -48 -14 -70 -13 -51 -13 -56 -3 -79 5 -13 4
-17 -3 -13 -11 7 -19 -42 -30 -172 -4 -56 -3 -75 8 -82 10 -6 10 -9 2 -9 -9 0
-13 -17 -13 -51 0 -42 3 -50 16 -45 8 3 13 2 9 -3 -3 -5 1 -12 7 -14 8 -3 5
-6 -6 -6 -16 -1 -18 -6 -12 -40 3 -22 11 -52 18 -68 6 -15 12 -30 13 -33 8
-30 18 -50 26 -50 5 0 9 -5 9 -12 0 -14 50 -68 62 -68 5 0 5 12 1 28 -8 35
-38 84 -48 80 -5 -2 -9 6 -11 16 -2 11 -6 31 -10 45 -4 14 -6 30 -5 34 1 5 -3
6 -9 2 -10 -6 -12 0 -12 50 0 17 -4 37 -9 46 -4 9 -5 19 -2 23 9 9 11 46 3 46
-3 0 -3 24 1 53 4 32 3 57 -4 65 -7 9 -7 16 0 20 15 10 25 116 13 146 -7 20
-6 26 4 26 18 0 39 102 23 112 -9 6 -8 8 1 8 7 0 11 4 8 9 -4 5 -2 11 4 13 5
1 19 50 31 108 20 99 23 114 33 158 19 81 24 120 26 205 1 68 -3 104 -12 115
-8 9 -8 13 -1 9 7 -5 9 0 6 13 -6 22 -9 24 -17 11z m-22 -1417 c3 -8 2 -12 -4
-9 -6 3 -10 10 -10 16 0 14 7 11 14 -7z"/>
<path d="M2567 3118 c-36 -74 -38 -88 -11 -88 8 0 12 5 9 10 -3 6 -2 10 3 10
4 0 18 24 29 53 33 82 34 87 18 87 -7 0 -29 -33 -48 -72z"/>
<path d="M7365 2783 c-12 -26 -14 -43 -7 -43 4 0 8 -17 9 -37 1 -21 6 -39 10
-40 4 -2 7 -39 5 -84 -3 -65 -1 -80 10 -73 10 6 11 5 1 -7 -6 -8 -14 -66 -17
-129 -3 -63 -8 -135 -11 -160 -13 -115 -15 -138 -23 -185 -10 -68 -5 -105 15
-105 9 0 13 3 10 7 -4 3 -2 12 4 19 15 18 18 74 5 74 -6 0 -4 5 4 10 8 5 12
10 9 10 -3 0 0 33 7 73 18 102 18 173 -1 181 -8 3 -15 11 -15 17 0 9 4 8 14 0
12 -10 16 -3 22 45 5 40 3 58 -5 64 -10 5 -9 11 2 21 18 18 15 88 -4 100 -10
6 -11 9 -1 9 7 0 12 14 12 35 0 19 -4 35 -10 35 -5 0 -7 13 -3 30 3 17 2 30
-3 30 -5 0 -9 22 -9 50 0 54 -17 84 -30 53z"/>
<path d="M4904 2468 c-3 -4 -11 -5 -19 -1 -8 3 -15 1 -15 -4 0 -5 -8 -9 -17
-10 -65 -5 -112 -17 -135 -33 -16 -12 -29 -16 -33 -10 -4 6 -15 4 -30 -6 -25
-16 -64 -23 -162 -28 -33 -2 -66 -7 -72 -10 -6 -4 -11 -3 -11 2 0 6 -10 10
-22 11 -61 1 -161 20 -168 31 -4 6 -35 14 -69 17 -33 3 -61 10 -61 14 0 5 -4
9 -10 9 -5 0 -7 -6 -5 -13 5 -10 30 -22 90 -41 6 -2 21 -8 35 -13 14 -6 57
-18 95 -28 96 -23 324 -18 374 8 19 9 41 17 51 17 9 0 20 4 26 9 5 6 27 14 49
20 22 5 67 17 100 26 70 20 175 15 270 -11 33 -9 77 -20 99 -24 38 -8 38 -7
19 11 -10 11 -33 21 -51 23 -17 3 -41 11 -54 20 -16 11 -25 13 -35 4 -7 -6
-13 -6 -13 -1 0 5 -6 10 -12 11 -82 9 -108 9 -108 1 0 -5 -9 -9 -20 -9 -11 0
-20 4 -20 9 0 10 -60 9 -66 -1z m271 -26 c-3 -3 -11 0 -18 7 -9 10 -8 11 6 5
10 -3 15 -9 12 -12z"/>
<path d="M3737 2401 c-15 -6 -8 -16 45 -64 35 -32 70 -65 79 -73 29 -27 122
-94 130 -94 5 0 21 -12 36 -26 15 -15 44 -33 63 -41 19 -9 47 -24 61 -34 14
-10 32 -19 40 -21 8 -2 16 -6 19 -9 25 -31 329 -139 392 -139 16 0 27 -3 25
-7 -3 -5 -31 -7 -64 -7 -34 1 -61 -3 -65 -10 -6 -8 -8 -8 -8 2 0 6 -8 12 -17
12 -15 0 -16 -2 -3 -10 9 -6 10 -10 3 -10 -6 0 -14 4 -17 9 -3 5 -24 9 -46 9
-22 0 -44 4 -50 7 -6 3 -7 -1 -4 -9 3 -9 1 -16 -5 -16 -6 0 -11 4 -11 9 0 6
-9 8 -20 6 -11 -2 -18 0 -15 6 4 5 -11 10 -32 10 -46 2 -65 5 -120 18 -23 6
-59 9 -79 6 -32 -4 -42 0 -66 25 -24 26 -32 29 -49 19 -12 -6 -19 -7 -15 -1 3
5 -6 10 -21 10 -14 0 -32 8 -40 18 -7 10 -13 14 -13 10 0 -5 -6 -3 -13 3 -8 6
-23 12 -34 14 -23 3 -84 52 -77 61 2 3 1 4 -3 1 -3 -3 -17 2 -31 11 -18 12
-27 13 -36 4 -8 -8 -6 -15 9 -25 11 -8 25 -19 32 -25 7 -5 19 -10 28 -10 8 0
15 -5 15 -11 0 -5 5 -7 10 -4 6 3 10 2 10 -3 0 -12 68 -48 135 -71 211 -74
325 -94 555 -95 180 -1 246 6 236 23 -3 5 34 10 82 13 93 4 162 29 211 75 37
35 17 39 -43 10 -30 -15 -60 -27 -66 -27 -6 0 -8 -4 -5 -10 3 -6 -1 -7 -9 -4
-9 3 -16 1 -16 -5 0 -8 -5 -9 -19 -2 -15 8 -20 7 -26 -6 -3 -11 -9 -13 -13 -7
-4 5 -16 10 -27 9 -11 0 -37 3 -58 6 -20 4 -40 2 -43 -2 -8 -13 -42 -11 -46 3
-5 14 -68 21 -68 7 0 -5 -4 -9 -10 -9 -5 0 -9 5 -7 11 1 6 -7 13 -17 15 -10 1
-22 6 -25 11 -3 4 -22 10 -41 11 -19 2 -39 7 -45 11 -5 4 -29 13 -52 21 -24 7
-43 18 -43 24 0 6 -5 4 -10 -4 -6 -10 -10 -11 -10 -2 0 6 -7 12 -16 12 -8 0
-12 5 -9 10 4 6 -7 10 -24 10 -17 0 -31 5 -31 11 0 5 -4 7 -10 4 -5 -3 -10 -2
-10 4 0 10 -8 15 -112 69 -31 17 -54 32 -52 35 3 3 -4 8 -15 12 -12 3 -21 12
-21 18 0 7 -4 6 -10 -3 -8 -13 -10 -13 -10 2 0 9 -14 22 -30 30 -17 7 -33 21
-36 30 -3 10 -11 18 -17 18 -7 0 -27 13 -46 29 -19 16 -40 27 -48 24 -8 -3
-11 0 -8 9 8 20 -36 57 -58 49z"/>
<path d="M2846 2023 c-3 -4 1 -17 9 -29 10 -16 11 -24 3 -26 -20 -7 65 -228
124 -323 41 -65 81 -114 89 -109 5 3 9 -5 9 -17 0 -12 3 -19 7 -16 3 4 16 -6
27 -22 12 -15 26 -29 31 -31 6 -1 16 -12 24 -22 11 -16 15 -17 22 -7 5 8 9 10
9 4 0 -30 -17 -35 -45 -14 -15 13 -35 23 -44 24 -9 0 -23 5 -30 10 -10 6 -12
4 -6 -4 4 -8 -2 -7 -17 3 -14 9 -28 13 -31 9 -4 -3 -7 -2 -7 4 0 12 -37 26
-59 23 -7 -1 -10 3 -7 8 3 5 -14 18 -37 28 -47 21 -59 29 -90 62 -11 12 -27
20 -34 18 -7 -3 -12 -2 -12 2 3 21 -3 32 -18 32 -9 0 -14 3 -11 6 3 3 -7 19
-23 35 -16 16 -29 36 -29 44 0 20 -34 37 -47 24 -8 -8 -7 -17 1 -32 28 -53
129 -156 179 -182 20 -11 37 -23 37 -27 0 -5 4 -8 10 -8 5 0 35 -12 67 -26 32
-15 63 -28 69 -29 6 -2 27 -10 45 -18 19 -9 48 -17 64 -19 17 -2 35 -8 40 -15
6 -7 21 -14 35 -15 14 -2 30 -6 35 -10 6 -3 25 -9 44 -13 43 -9 39 11 -10 42
-19 13 -43 30 -54 38 -10 8 -25 15 -32 15 -7 0 -13 4 -13 8 0 15 -37 52 -44
45 -3 -3 -6 1 -6 11 0 9 -7 19 -15 22 -8 4 -15 12 -15 18 0 7 -9 22 -20 34
-11 12 -20 24 -20 27 0 4 -16 30 -35 59 -19 29 -35 58 -35 65 0 6 -4 11 -10
11 -5 0 -13 12 -16 27 -4 15 -13 34 -21 41 -7 7 -13 22 -13 31 0 10 -7 34 -15
54 -13 33 -13 35 5 40 11 3 20 1 20 -4 0 -5 -4 -9 -10 -9 -5 0 -2 -8 8 -18 9
-10 26 -16 37 -14 15 3 17 1 6 -6 -19 -13 20 -51 154 -152 22 -16 45 -34 52
-40 7 -5 17 -10 22 -10 5 0 16 -8 23 -18 7 -9 26 -26 42 -37 80 -55 111 -73
118 -69 4 3 8 1 8 -5 0 -28 171 -74 335 -91 175 -18 314 -39 395 -61 41 -11
86 -22 99 -25 14 -3 27 -7 31 -9 3 -2 12 0 19 5 10 6 6 12 -18 24 -17 9 -31
14 -31 10 0 -3 -11 1 -25 10 -27 18 -39 21 -31 7 4 -5 -3 -7 -14 -4 -11 3 -20
9 -20 13 0 9 -30 19 -80 27 -19 3 -36 8 -38 12 -1 4 -17 5 -36 3 -18 -2 -36 1
-40 6 -4 7 -17 7 -35 2 -16 -4 -32 -5 -36 -2 -9 9 -69 8 -76 -1 -3 -4 -17 2
-32 13 -16 12 -28 16 -32 10 -4 -7 -12 -7 -24 0 -10 5 -21 6 -25 3 -3 -3 -6
-2 -6 3 0 5 -11 9 -25 9 -14 0 -25 -3 -25 -7 0 -5 -5 -8 -11 -8 -5 0 -7 4 -4
10 3 5 0 7 -8 4 -8 -3 -18 -1 -22 5 -3 6 -19 11 -34 11 -15 0 -31 3 -35 7 -3
4 -16 8 -28 10 -12 2 -25 8 -28 14 -4 5 -14 7 -23 3 -10 -3 -17 -1 -17 5 0 6
-6 8 -14 5 -8 -3 -19 3 -26 15 -6 11 -16 20 -23 18 -7 -1 -11 4 -9 11 1 6 -4
12 -11 12 -8 0 -22 9 -32 20 -10 12 -25 18 -32 16 -7 -3 -15 0 -19 6 -5 7 -2
8 7 3 12 -8 12 -6 0 8 -7 9 -22 17 -33 17 -10 0 -17 4 -14 8 6 9 -29 42 -44
42 -6 0 -10 4 -10 9 0 5 -13 14 -30 21 -16 7 -27 16 -24 21 3 5 0 9 -7 9 -22
0 -199 160 -199 180 0 6 -5 10 -11 10 -5 0 -8 4 -5 9 7 10 -19 23 -28 14z"/>
<path d="M7342 1903 c-6 -2 -10 -9 -6 -14 3 -5 1 -9 -4 -9 -9 0 -17 -29 -29
-105 -14 -91 -61 -263 -63 -232 -1 18 -28 -21 -45 -66 -10 -26 -22 -47 -26
-47 -5 0 -9 -7 -9 -15 0 -9 -7 -18 -15 -21 -8 -4 -13 -9 -11 -13 7 -11 -52
-106 -64 -103 -6 1 -9 -2 -5 -8 3 -5 1 -10 -6 -10 -6 0 -10 -10 -7 -23 3 -16
0 -23 -13 -24 -17 -2 -69 -48 -69 -62 0 -5 -11 -16 -24 -24 -13 -9 -31 -23
-40 -32 -9 -9 -16 -14 -16 -10 0 5 -70 -46 -136 -100 -18 -14 -37 -25 -43 -25
-7 0 -9 -4 -6 -10 3 -5 1 -11 -4 -11 -6 -1 -14 -2 -18 -3 -16 -3 -57 -29 -77
-47 -18 -17 -32 -23 -39 -16 -1 1 -14 -8 -27 -21 -14 -12 -35 -25 -47 -28 -13
-4 -23 -10 -23 -16 0 -5 -4 -6 -10 -3 -5 3 -10 3 -10 -2 0 -12 -79 -41 -134
-49 -35 -5 -50 -12 -53 -25 -6 -20 -18 -25 -27 -10 -4 5 -16 4 -30 -2 -13 -7
-22 -16 -19 -21 3 -5 -8 -7 -26 -4 -17 2 -31 1 -31 -4 0 -5 -13 -7 -30 -4 -28
4 -35 -2 -31 -26 1 -8 -15 -12 -32 -9 -8 1 -35 -10 -124 -50 -24 -10 -43 -24
-43 -29 0 -6 -5 -8 -10 -5 -6 3 -13 -1 -16 -10 -4 -8 -11 -15 -18 -14 -25 3
-37 -2 -30 -13 5 -8 2 -9 -9 -5 -10 4 -20 0 -26 -11 -6 -9 -11 -13 -11 -9 0 7
-45 -13 -100 -44 -34 -20 -116 -54 -122 -51 -7 2 -12 -13 -9 -30 0 -4 -5 -5
-13 -2 -7 3 -19 -2 -26 -11 -7 -8 -19 -15 -26 -15 -8 0 -14 -6 -14 -12 0 -9
-4 -8 -10 2 -8 13 -10 13 -10 -2 0 -11 -5 -15 -15 -12 -8 4 -22 1 -30 -6 -8
-7 -44 -15 -80 -17 -35 -3 -62 -10 -59 -14 3 -5 -2 -9 -11 -9 -9 0 -14 4 -10
9 3 6 -11 10 -32 10 -41 0 -77 6 -93 16 -6 3 -10 1 -10 -4 0 -6 -7 -11 -15
-11 -8 0 -15 4 -15 9 0 5 -9 7 -20 4 -16 -4 -19 -2 -13 13 5 14 3 16 -11 11
-9 -4 -15 -3 -12 1 7 12 -61 35 -75 26 -8 -4 -9 -3 -5 4 8 14 -30 36 -46 26
-6 -4 -8 -3 -4 4 3 6 1 14 -6 19 -13 8 -18 9 -39 12 -5 0 -8 5 -4 10 3 5 -2
16 -10 24 -8 9 -15 21 -15 27 0 6 -4 8 -10 5 -5 -3 -10 0 -10 7 0 7 -19 38
-42 68 -40 54 -63 109 -74 180 -7 48 -26 100 -37 100 -4 0 -6 4 -3 9 6 8 -13
71 -40 136 -6 17 -27 66 -45 109 -18 44 -32 85 -32 93 0 7 -6 13 -13 13 -6 0
-15 12 -18 26 -5 20 -10 23 -20 15 -15 -13 -10 -47 9 -71 7 -8 18 -31 24 -50
12 -40 63 -181 79 -222 16 -39 48 -154 62 -220 7 -35 25 -78 46 -108 19 -27
34 -54 34 -60 0 -5 30 -40 68 -78 50 -51 89 -79 152 -110 118 -59 174 -72 311
-72 100 0 126 4 185 25 38 14 76 35 86 45 9 11 20 20 24 20 12 0 139 64 142
73 2 4 8 5 13 1 5 -3 9 -2 9 3 0 4 15 14 33 22 17 8 40 21 50 29 10 9 25 17
33 18 8 1 29 13 47 27 18 13 69 39 115 57 45 18 82 36 82 40 0 3 6 7 13 7 6 0
30 8 52 18 22 10 47 19 55 21 8 2 44 12 80 22 36 11 88 25 115 31 28 7 91 35
140 63 50 28 100 56 112 62 13 6 23 14 23 19 0 4 6 7 14 7 8 0 16 3 18 8 2 4
22 20 46 35 24 15 45 34 48 42 3 7 12 11 20 8 8 -3 14 0 14 6 0 6 7 11 15 11
8 0 15 5 15 10 0 6 5 10 10 10 18 0 113 74 160 125 25 26 52 55 61 64 28 29
63 85 48 77 -7 -5 -3 2 11 15 34 33 81 103 110 167 14 28 28 52 32 52 5 0 8 5
8 10 0 6 9 30 20 52 11 24 17 51 14 61 -4 13 -2 17 5 13 6 -4 12 3 15 16 56
267 56 266 18 251z m-2812 -843 c0 -5 -2 -10 -4 -10 -3 0 -8 5 -11 10 -3 6 -1
10 4 10 6 0 11 -4 11 -10z"/>
<path d="M3928 1832 c-17 -7 -17 -8 1 -19 17 -11 20 -10 18 7 -1 11 -1 20 -2
19 0 0 -8 -4 -17 -7z"/>
<path d="M3952 1798 c-13 -13 76 -100 92 -91 5 3 6 1 3 -4 -8 -13 17 -36 27
-25 4 4 6 2 4 -4 -1 -6 17 -31 42 -56 68 -69 93 -98 129 -151 58 -86 101 -120
101 -82 0 8 -4 15 -8 15 -4 0 -28 30 -52 68 -43 66 -93 124 -158 186 -164 155
-167 157 -180 144z"/>
<path d="M2576 1709 c-14 -11 -24 -24 -21 -29 3 -5 1 -11 -5 -15 -6 -4 -8 -11
-5 -16 4 -5 1 -9 -6 -9 -7 0 -36 -25 -66 -55 -30 -30 -59 -53 -64 -50 -9 6
-13 -14 -10 -45 2 -12 0 -12 -7 -1 -7 9 -12 10 -16 2 -4 -6 -16 -11 -27 -11
-11 0 -18 -4 -15 -8 3 -5 -15 -19 -40 -31 -26 -13 -41 -27 -38 -33 4 -7 2 -8
-4 -4 -7 4 -12 3 -12 -3 0 -6 -7 -8 -15 -5 -8 4 -15 2 -15 -3 0 -5 -34 -27
-76 -48 -41 -21 -80 -47 -85 -57 -6 -12 -17 -17 -25 -14 -9 4 -12 2 -8 -5 4
-7 0 -9 -14 -5 -11 4 -23 2 -27 -4 -3 -5 -18 -10 -33 -10 -15 0 -39 -6 -53
-14 -14 -7 -38 -16 -53 -20 -15 -4 -24 -11 -21 -16 4 -6 -8 -10 -26 -10 -51 0
-110 -22 -119 -44 -7 -16 -9 -17 -9 -4 -1 14 -5 14 -25 5 -13 -7 -23 -14 -21
-18 2 -3 -6 -5 -18 -5 -13 1 -21 -4 -19 -12 1 -8 -2 -11 -7 -7 -6 3 -35 -3
-65 -14 -30 -10 -57 -16 -60 -13 -3 3 -6 0 -6 -7 0 -7 -5 -9 -10 -6 -6 3 -17
-1 -26 -9 -8 -9 -24 -16 -35 -16 -10 0 -19 -5 -19 -12 0 -6 -3 -9 -6 -5 -3 3
-27 -3 -52 -14 -26 -11 -54 -18 -64 -16 -10 3 -16 1 -12 -4 3 -5 -4 -9 -14 -9
-19 0 -81 -22 -114 -40 -9 -5 -27 -7 -39 -5 -13 3 -36 -2 -51 -10 -16 -8 -35
-12 -42 -9 -7 3 -19 -2 -26 -11 -7 -8 -19 -15 -26 -15 -8 0 -14 -4 -14 -9 0
-5 -9 -7 -20 -4 -12 3 -20 0 -20 -6 0 -7 5 -9 12 -5 7 5 8 3 3 -6 -7 -11 -10
-11 -19 2 -8 14 -13 14 -45 -4 -20 -11 -39 -25 -42 -30 -4 -7 -9 -6 -13 1 -4
6 -12 11 -17 11 -6 0 -7 -5 -3 -11 4 -7 -2 -9 -17 -7 -14 2 -23 -2 -22 -8 1
-6 -9 -10 -23 -8 -13 1 -32 -5 -41 -14 -9 -10 -18 -16 -20 -14 -10 7 -33 0
-53 -18 -25 -21 -35 -26 -26 -11 10 15 -38 0 -51 -16 -6 -9 -17 -12 -24 -7 -8
4 -10 3 -5 -4 5 -8 0 -11 -11 -10 -28 3 -77 -20 -91 -42 -16 -27 -8 -26 105
16 54 19 105 37 113 39 8 2 33 11 55 20 22 10 77 30 122 44 45 15 88 33 96 39
8 7 16 9 19 7 3 -3 39 5 79 18 41 13 110 34 154 46 178 48 308 91 400 132 109
48 189 79 280 110 55 18 103 38 107 43 4 6 8 8 8 4 0 -11 148 47 235 92 128
67 248 143 274 173 13 15 26 25 29 22 9 -9 163 157 158 171 -3 7 2 20 10 29 8
8 13 19 10 24 -4 5 0 11 6 14 7 2 10 7 7 11 -3 3 -18 -3 -33 -15z"/>
<path d="M310 662 c0 -6 -8 -13 -17 -15 -16 -4 -16 -5 -1 -6 18 -1 34 16 24
26 -3 4 -6 1 -6 -5z"/>
</g>
</svg>
