<svg width="26" height="52" viewBox="0 0 26 52" fill="none" xmlns="http://www.w3.org/2000/svg">
<path d="M7.26562 0.453125C7.39062 0.473958 7.45312 0.536458 7.45312 0.640625L8.09375 0.453125C8.76042 0.515625 9.34375 0.546875 9.84375 0.546875H10.2969C10.4323 0.546875 10.5521 0.578125 10.6562 0.640625L10.8438 0.546875C11.6458 0.671875 12.5312 0.947917 13.5 1.375L14.0625 1.28125C14.2917 1.40625 14.8125 1.5625 15.625 1.75C15.7396 1.6875 15.8281 1.65625 15.8906 1.65625C16.8698 2.02083 17.5417 2.20312 17.9062 2.20312C18.8958 2.69271 19.4792 2.9375 19.6562 2.9375L19.5625 3.125C20.125 3.59375 20.7969 3.98958 21.5781 4.3125C22.0573 4.66667 22.3646 5.0625 22.5 5.5C23.1771 5.89583 23.6354 6.47917 23.875 7.25C24.3021 8.10417 24.6719 9.32812 24.9844 10.9219C25.099 10.9219 25.25 11.4115 25.4375 12.3906C25.5 12.3906 25.5312 12.4219 25.5312 12.4844L25.4375 12.6562C25.5625 12.8854 25.625 13.1302 25.625 13.3906V13.9531L25.5312 14.125L25.7031 14.2188L25.625 14.6719V17.1562C25.625 17.2188 25.5938 17.25 25.5312 17.25C25.5312 17.3125 25.5625 17.3438 25.625 17.3438L25.5312 17.7969L25.625 17.9844C25.4583 17.9844 25.2708 18.4115 25.0625 19.2656H25.25V19.4531C24.9688 19.4531 24.6354 19.9115 24.25 20.8281C23.4896 21.6094 22.9062 22.1615 22.5 22.4844C22.1354 22.776 21.9531 22.9583 21.9531 23.0312C21.3281 23.2292 20.8385 23.5365 20.4844 23.9531C20.3385 24.1198 19.724 24.3906 18.6406 24.7656L18.5469 24.9531V25.2344C19.2031 25.2969 19.6667 25.3854 19.9375 25.5H20.2031C20.2031 25.6354 20.5104 25.8229 21.125 26.0625L21.0312 26.2344C21.1667 26.2344 21.6562 26.6927 22.5 27.6094C22.5833 27.6094 22.7031 27.7344 22.8594 27.9844C23.474 28.8385 23.7812 29.4479 23.7812 29.8125C23.7812 29.875 23.75 29.9062 23.6875 29.9062L24.3281 32.6562H24.25C24.25 32.8438 24.3385 32.9375 24.5156 32.9375L24.4219 33.3906C24.4219 33.4531 24.4531 33.4844 24.5156 33.4844L24.4219 33.6719C24.526 33.8073 24.7396 34.6354 25.0625 36.1562L24.9844 36.3281V36.6094H25.1562C25.0417 36.8281 24.9844 37.0729 24.9844 37.3438V37.7969C24.9844 37.9323 25.0104 38.0573 25.0625 38.1719V38.4375H25.1562L25.0625 39.2656L25.1562 39.4531C25.0938 39.5573 25.0625 39.6771 25.0625 39.8125L25.25 39.9062L25.0625 40.8281C25.125 42.2969 25.2188 43.3958 25.3438 44.125L25.25 44.3125L25.3438 44.5C25.3438 44.7188 25.099 45.1146 24.6094 45.6875C24.5573 46.2396 24.4635 46.5156 24.3281 46.5156L24.4219 46.7031V46.7969C24.4219 46.8802 24.3333 46.9688 24.1562 47.0625L24.25 47.25C24.0625 47.5417 23.9688 47.8177 23.9688 48.0781L23.7812 47.9844C23.7812 48.1302 23.6615 48.3125 23.4219 48.5312C23.4844 48.5312 23.5156 48.5625 23.5156 48.625C23.4427 48.625 23.1354 48.8698 22.5938 49.3594C22.5312 49.3594 22.5 49.4219 22.5 49.5469L22.3125 49.4531V49.6406C22.25 49.6406 22.2188 49.6094 22.2188 49.5469L21.3125 50.0938C20.625 50.1771 20.1927 50.2396 20.0156 50.2812L19.8438 50.1875C19.7812 50.1875 19.75 50.2188 19.75 50.2812L19.2812 50.1875C19.2188 50.1875 19.1302 50.2188 19.0156 50.2812C18.9115 50.2188 18.7865 50.1875 18.6406 50.1875H18.5469C18.5469 50.3229 18.2448 50.474 17.6406 50.6406H17.3594V50.7344C17.099 50.6198 16.7344 50.5312 16.2656 50.4688C15.849 50.6458 15.5104 50.7344 15.25 50.7344C15.0625 50.6719 14.9688 50.6146 14.9688 50.5625C14.9167 50.5625 14.8906 50.5885 14.8906 50.6406C13.5781 50.4635 12.7812 50.375 12.5 50.375C12.3438 50.375 11.5156 50.4062 10.0156 50.4688C10.0156 50.5312 9.98438 50.5625 9.92188 50.5625C9.92188 50.3125 9.46354 50.1875 8.54688 50.1875L8.46875 50.375C8.52083 50.375 8.54688 50.4062 8.54688 50.4688H8.28125V50.2812H8.09375L8.1875 50.4688V50.5625C7.83333 50.4479 7.40625 50.3542 6.90625 50.2812L6.71875 50.375C6.61458 50.3125 6.48958 50.2812 6.34375 50.2812V50.4688L6.17188 50.375H6.07812C5.85938 50.375 5.58333 50.4062 5.25 50.4688C5.13542 50.4062 5.04167 50.375 4.96875 50.375C4.96875 50.5 4.91146 50.5625 4.79688 50.5625H4.42188C4.35938 50.5625 4.32812 50.5312 4.32812 50.4688L3.6875 50.6406L3.5 50.5625C3.44792 50.5625 3.42188 50.5885 3.42188 50.6406C3.24479 50.5885 2.875 50.5625 2.3125 50.5625C2.3125 50.8021 2.13021 50.9219 1.76562 50.9219L1.85938 51.1094H1.67188L1.29688 50.5625C1.29688 50.2812 1.27083 50.0938 1.21875 50C1.33333 50 1.39062 49.9688 1.39062 49.9062L1.29688 49.7344L1.39062 49.5469C1.32812 49.4427 1.29688 49.3177 1.29688 49.1719H1.39062L1.29688 49V48.7188H1.21875C1.33333 48.5729 1.39062 48.4531 1.39062 48.3594L1.21875 47.9844C1.33333 47.7865 1.39062 47.6042 1.39062 47.4375L1.29688 47.25L1.39062 47.0625C1.32812 46.9583 1.29688 46.8385 1.29688 46.7031H1.39062L1.29688 46.5156V46.4219C1.29688 46.3594 1.32812 46.3281 1.39062 46.3281L1.29688 46.1562V45.9688C1.29688 45.9062 1.32812 45.875 1.39062 45.875C1.39062 45.8125 1.35938 45.7812 1.29688 45.7812L1.39062 45.1406C1.39062 44.8802 1.33333 44.5729 1.21875 44.2188C1.33333 43.7292 1.39062 43.2083 1.39062 42.6562V42.5781C1.39062 42.5156 1.42188 42.4844 1.48438 42.4844L1.39062 42.2969C1.39062 41.9323 1.48438 41.75 1.67188 41.75V41.4688C1.67188 41.3438 1.73438 40.7656 1.85938 39.7344V39.3594C1.85938 39.224 1.82812 39.1042 1.76562 39L2.03125 37.1562C1.97917 37.0417 1.95312 36.9531 1.95312 36.8906L2.03125 36.4219L1.95312 36.2344C1.99479 35.9948 2.05208 35.875 2.125 35.875C2.0625 35.7812 2.00521 35.3854 1.95312 34.6875H2.03125L1.95312 34.5V34.125L2.03125 33.6719H1.85938V33.3906H2.03125C1.91667 32.9323 1.85938 32.5052 1.85938 32.1094V31.1875C1.85938 31.0521 1.82812 30.9323 1.76562 30.8281C1.82812 30.724 1.85938 30.599 1.85938 30.4531V30L1.76562 29.4531C1.90104 28.7135 1.98958 28.3438 2.03125 28.3438L1.95312 28.1719V28.0781C1.95312 28.0156 1.97917 27.9844 2.03125 27.9844C2.03125 27.9219 2.00521 27.8906 1.95312 27.8906L2.125 26.4219C2.01042 26.0469 1.95312 25.8021 1.95312 25.6875H2.125L2.03125 25.2344V23.2969L1.95312 22.75C2.00521 22.6458 2.03125 22.526 2.03125 22.3906C2.03125 22.1302 2.00521 21.7917 1.95312 21.375C2.00521 20.9271 2.03125 20.349 2.03125 19.6406L1.95312 19.4531C1.95312 19.3906 1.97917 19.3594 2.03125 19.3594C1.97917 18.276 1.89062 17.6667 1.76562 17.5312H1.85938C1.79688 17.4062 1.76562 17.3125 1.76562 17.25L1.85938 16.875C1.67188 16.4479 1.57812 16.2031 1.57812 16.1406C1.57812 16.0885 1.60938 16.0625 1.67188 16.0625C1.67188 15.625 1.57812 15.4062 1.39062 15.4062L1.48438 15.2344V15.1406L1.39062 14.6719H1.48438L1.39062 14.5V13.8594C1.39062 13.3385 1.33333 12.9375 1.21875 12.6562C1.27083 12.5417 1.29688 12.4531 1.29688 12.3906L1.21875 12.0156L1.29688 11.8281C1.24479 11.4635 1.1875 11.2812 1.125 11.2812L1.21875 11.0938C1.21875 10.9167 1.1875 10.8281 1.125 10.8281C1.21875 9.42188 1.30729 8.71875 1.39062 8.71875C1.39062 8.65625 1.35938 8.625 1.29688 8.625L1.39062 8.17188C1.39062 7.73438 1.30208 7.51562 1.125 7.51562C1.14583 7.40104 1.20312 7.34375 1.29688 7.34375C1.22396 6.32292 1.16667 5.77083 1.125 5.6875C1.23958 5.46875 1.29688 5.19271 1.29688 4.85938C1.24479 4.74479 1.21875 4.65625 1.21875 4.59375H1.39062C1.39062 4.47917 1.33333 4.23438 1.21875 3.85938C1.21875 3.79688 1.24479 3.76562 1.29688 3.76562L1.21875 3.29688V3.125L1.29688 2.65625L1.125 2.5625L0.9375 2.65625V2.46875C1.14583 2.46875 1.32812 2.25521 1.48438 1.82812L2.125 1.28125V1.09375L2.3125 1.1875C2.3125 0.989583 2.61979 0.807292 3.23438 0.640625V0.546875C3.53646 0.546875 3.84375 0.760417 4.15625 1.1875C4.26042 1.125 4.38021 1.09375 4.51562 1.09375L4.42188 0.921875H4.70312C4.83854 0.921875 4.95833 0.953125 5.0625 1.01562C5.97917 0.869792 6.4375 0.744792 6.4375 0.640625L6.625 0.734375C7.05208 0.734375 7.26562 0.640625 7.26562 0.453125ZM1.95312 2.29688C1.95312 2.39062 1.89062 2.51042 1.76562 2.65625V2.9375C1.76562 3.19792 1.82812 3.44271 1.95312 3.67188C1.95312 3.73438 1.92188 3.76562 1.85938 3.76562L1.95312 4.21875V4.59375H2.21875V3.125C2.21875 3.0625 2.25 3.03125 2.3125 3.03125L2.21875 2.84375V2.5625C2.15625 2.5625 2.125 2.47396 2.125 2.29688H1.95312ZM3.5 5.40625H3.59375V5.59375C3.47917 5.79167 3.42188 5.97396 3.42188 6.14062H3.32812V5.875C3.44271 5.67708 3.5 5.52083 3.5 5.40625ZM9.92188 8.8125H9.28125V8.90625C9.39583 9.63542 9.52083 10 9.65625 10C9.5625 10.7917 9.46875 11.1875 9.375 11.1875L9.46875 11.375L9.375 12.6562L9.46875 12.8438C9.40625 12.9583 9.375 13.0521 9.375 13.125C9.375 13.2396 9.4375 13.4531 9.5625 13.7656L9.46875 14.3125V14.4062L9.65625 14.6719V15.5938L9.46875 15.875V16.5156C9.46875 16.9115 9.5 17.3073 9.5625 17.7031L9.46875 18.1719L9.5625 18.8125C9.5 18.9271 9.46875 19.0156 9.46875 19.0781C9.59375 19.099 9.65625 19.1615 9.65625 19.2656H9.46875V19.6406C9.46875 19.901 9.53125 20.1458 9.65625 20.375H9.46875V20.6406C9.46875 20.776 9.5 20.901 9.5625 21.0156C9.5 21.1198 9.4375 21.3958 9.375 21.8438L9.5625 21.9219L10.0156 21.8438V21.9219C10.7969 21.724 11.1979 21.6042 11.2188 21.5625V21.4688H11.3125C11.3646 21.4688 11.3906 21.5 11.3906 21.5625L11.5781 21.4688C11.6406 21.4688 11.6719 21.5 11.6719 21.5625C13.6927 20.6667 14.8854 19.6875 15.25 18.625C15.4792 18.5521 15.849 18 16.3594 16.9688C16.724 15.5417 16.9375 14.5052 17 13.8594C16.875 13.5781 16.8125 13.1771 16.8125 12.6562V12.2969H16.625V12.1094L16.7188 11.9219C16.1771 11.0052 15.6562 10.3958 15.1562 10.0938C13.7292 9.22917 12.6302 8.73958 11.8594 8.625C11.7344 8.6875 11.6406 8.71875 11.5781 8.71875C11.3385 8.66667 11.2188 8.60417 11.2188 8.53125C10.5 8.71875 10.0677 8.8125 9.92188 8.8125ZM20.4844 9.64062H20.5781C20.6927 9.65104 20.75 9.70833 20.75 9.8125H20.6719C20.5573 9.75 20.4323 9.71875 20.2969 9.71875V9.90625H20.0156V9.71875L20.4844 9.64062ZM10.0156 29.1719C10.1406 29.1927 10.2031 29.2552 10.2031 29.3594H10.0156C10.1927 30.0052 10.349 30.7396 10.4844 31.5625C10.2969 32.6458 10.2031 33.349 10.2031 33.6719C10.3281 33.6927 10.3906 33.7552 10.3906 33.8594L10.2969 34.0469L10.3906 34.2188L10.2031 34.5938C10.3073 34.6562 10.4323 34.6875 10.5781 34.6875C10.5781 34.8021 10.4531 34.8594 10.2031 34.8594V35.3281L10.2969 35.7812H10.1094V36.4219C10.1094 36.4844 10.1406 36.5156 10.2031 36.5156L10.1094 36.7031L10.2969 36.9688V37.0625C10.2969 37.1875 10.2344 37.25 10.1094 37.25L10.2969 38.5312L10.2031 38.7188C10.2656 38.8229 10.2969 38.9427 10.2969 39.0781C10.2969 39.1406 10.2656 39.1719 10.2031 39.1719C10.2031 39.2344 10.2344 39.2656 10.2969 39.2656C10.151 40.1823 10.0573 40.6406 10.0156 40.6406C10.0156 40.7031 10.0469 40.7344 10.1094 40.7344C10.1094 40.7969 10.0781 40.8906 10.0156 41.0156C10.0781 41.349 10.1094 41.5938 10.1094 41.75C10.1094 41.8125 10.0781 41.8438 10.0156 41.8438L10.1094 42.2969V44.125L10.3906 44.5H10.2031V44.6875H10.5781L10.75 44.5938C10.75 44.6562 10.875 44.7448 11.125 44.8594L11.3125 44.7812H11.7656C11.8281 44.7812 11.8594 44.8073 11.8594 44.8594C11.9219 44.8594 11.9531 44.8333 11.9531 44.7812C12.0677 44.7812 12.2812 44.8385 12.5938 44.9531C12.9375 44.8385 13.974 44.6875 15.7031 44.5C15.7031 44.3542 15.8281 44.2031 16.0781 44.0469C16.4844 43.4427 16.7917 42.401 17 40.9219V40C17 39.9375 17.0312 39.9062 17.0938 39.9062C17.0312 39.7917 17 39.7031 17 39.6406C17 39.5885 17.0312 39.3438 17.0938 38.9062C17.0938 38.8438 17.0625 38.8125 17 38.8125L17.0938 38.3594V37.7031C17.0938 37.4844 17.1198 37.2135 17.1719 36.8906C17.1198 36.8177 17.0938 36.6302 17.0938 36.3281C17.2708 36.3281 17.3906 35.9948 17.4531 35.3281C17.5156 35.3281 17.5469 35.2969 17.5469 35.2344V34.7656L17.3594 34.5V34.2188H17.2656L17.3594 34.0469V33.9531C17.099 32.1719 16.8229 31.2812 16.5312 31.2812C16.5312 31.125 16.349 30.974 15.9844 30.8281C15.9844 30.651 15.7708 30.375 15.3438 30V29.9062H15.1562C15.1562 30.0938 15.0365 30.1875 14.7969 30.1875C14.7969 30.0625 14.8854 30 15.0625 30V29.7344H14.6094C14.4844 29.7344 14.4219 29.6719 14.4219 29.5469L14.5156 29.3594H14.4219L14.2344 29.4531C13.5677 29.2865 13.2344 29.1615 13.2344 29.0781C13.0365 28.9635 12.8542 28.9062 12.6875 28.9062H12.3125C12.1771 28.9062 12.0573 28.9375 11.9531 29L11.4844 28.8125C11.3698 28.875 11.2812 28.9062 11.2188 28.9062V28.8125L11.0312 28.9062C10.9688 28.9062 10.9375 28.875 10.9375 28.8125C10.3229 28.9583 10.0156 29.0781 10.0156 29.1719ZM23.7812 34.5938L23.6875 34.7656C23.75 34.8802 23.7812 35.0052 23.7812 35.1406C23.7188 35.1406 23.6875 35.1719 23.6875 35.2344H23.875L23.7812 35.4219C23.7812 35.5052 23.8438 35.776 23.9688 36.2344H24.25V36.0625C24.1979 35.1979 24.0417 34.7656 23.7812 34.7656L23.875 34.5938H23.7812Z" fill="black"/>
</svg>
