<svg width="1517" height="1254" viewBox="0 0 1517 1254" fill="none" xmlns="http://www.w3.org/2000/svg">
<g clip-path="url(#clip0_129_8)">
<rect width="1517" height="1254" fill="white"/>
<g clip-path="url(#clip1_129_8)">
<path d="M796.373 792.416C796.373 792.416 796.373 792.416 787.651 787.426C777.545 781.634 765.347 779.51 753.858 784.385C735.521 792.167 727 813.251 734.781 831.588C737.688 838.437 742.437 843.895 748.191 847.624C757.937 854.003 836.999 888.153 836.999 888.153M796.373 792.416C796.373 792.416 796.373 792.416 798.845 782.676C801.7 771.384 808.649 761.135 820.137 756.26C838.475 748.478 859.559 756.999 867.34 775.337C870.246 782.186 870.872 789.394 869.556 796.123C867.372 807.565 836.999 888.153 836.999 888.153" stroke="#42679F" stroke-opacity="0.05" stroke-width="15" stroke-linecap="round" stroke-linejoin="round"/>
</g>
<path d="M491 885.562L575 831.844L659 885.562M641 873.625V963.156H509V873.625M557 915.406H593V963.156H557V915.406Z" stroke="#42679F" stroke-opacity="0.05" stroke-width="15" stroke-linejoin="round"/>
<path d="M692.792 462C692.792 466.243 694.469 470.313 697.454 473.314C700.439 476.314 704.487 478 708.708 478C712.93 478 716.978 476.314 719.963 473.314C722.948 470.313 724.625 466.243 724.625 462C724.625 457.757 722.948 453.687 719.963 450.686C716.978 447.686 712.93 446 708.708 446C704.487 446 700.439 447.686 697.454 450.686C694.469 453.687 692.792 457.757 692.792 462ZM772.375 462C772.375 466.243 774.052 470.313 777.037 473.314C780.022 476.314 784.07 478 788.292 478C792.513 478 796.562 476.314 799.546 473.314C802.531 470.313 804.208 466.243 804.208 462C804.208 457.757 802.531 453.687 799.546 450.686C796.562 447.686 792.513 446 788.292 446C784.07 446 780.022 447.686 777.037 450.686C774.052 453.687 772.375 457.757 772.375 462Z" stroke="#42679F" stroke-opacity="0.05" stroke-width="15" stroke-linecap="round" stroke-linejoin="round"/>
<path d="M692.792 462H676.875V414M676.875 414L692.792 374H764.417L796.25 414M676.875 414H796.25M796.25 414H804.208C808.43 414 812.478 415.686 815.463 418.686C818.448 421.687 820.125 425.757 820.125 430V462H804.208M772.375 462H724.625M748.5 414V374" stroke="#42679F" stroke-opacity="0.05" stroke-width="15" stroke-linecap="round" stroke-linejoin="round"/>
<g clip-path="url(#clip2_129_8)">
<path d="M1031.67 607.676C1039.98 642.016 1015.4 677.432 976.772 686.784C938.143 696.136 900.089 675.883 891.775 641.544M913.709 579.219C922.719 571.444 933.926 565.522 946.668 562.437C959.409 559.352 972.084 559.492 983.654 562.286" stroke="#42679F" stroke-opacity="0.05" stroke-width="15" stroke-linecap="round"/>
<path d="M891.775 641.544L875.3 573.495C873.672 566.769 880.778 561.289 886.868 564.578L913.664 579.037M1031.67 607.676L1015.19 539.628C1013.56 532.901 1004.74 531.278 1000.82 536.989L983.609 562.103" stroke="#42679F" stroke-opacity="0.05" stroke-width="15" stroke-linecap="round" stroke-linejoin="round"/>
<path d="M983.154 611.194C987.446 610.155 990.083 605.833 989.044 601.541C988.005 597.249 983.683 594.612 979.391 595.651C975.098 596.69 972.461 601.012 973.5 605.304C974.54 609.596 978.861 612.233 983.154 611.194Z" fill="#42679F" fill-opacity="0.05"/>
<path d="M936.524 622.483C940.816 621.444 943.453 617.122 942.414 612.83C941.375 608.538 937.053 605.901 932.761 606.94C928.468 607.979 925.831 612.301 926.87 616.593C927.91 620.885 932.231 623.522 936.524 622.483Z" fill="#42679F" fill-opacity="0.05"/>
<path d="M965.483 640.154C969.775 639.114 972.413 634.793 971.373 630.5C970.334 626.208 966.012 623.571 961.72 624.61C957.428 625.649 954.791 629.971 955.83 634.263C956.869 638.556 961.191 641.193 965.483 640.154Z" fill="#42679F" fill-opacity="0.05"/>
<path d="M934.396 647.68L888.707 662.855M950.758 664.287L909.772 698.891M996.57 632.628L1044.14 625.224M989.616 654.879L1041.89 666.905" stroke="#42679F" stroke-opacity="0.05" stroke-width="15" stroke-linecap="round" stroke-linejoin="round"/>
</g>
<g clip-path="url(#clip3_129_8)">
<path d="M735.401 663.982C752.579 659.827 763.136 642.533 758.982 625.355C754.827 608.178 737.533 597.62 720.355 601.775C703.178 605.93 692.62 623.224 696.775 640.401C700.93 657.579 718.224 668.136 735.401 663.982Z" stroke="#42679F" stroke-opacity="0.05" stroke-width="15" stroke-linecap="round" stroke-linejoin="round"/>
<path d="M709.071 555.121L712.832 570.672M742.925 695.085L746.686 710.636M659.607 591.201L673.222 599.513M782.534 666.244L796.15 674.556M650.121 651.686L665.672 647.924M790.085 617.832L805.636 614.071M694.513 687.534L686.201 701.15M769.556 564.607L761.244 578.222" stroke="#42679F" stroke-opacity="0.05" stroke-width="15" stroke-linecap="round" stroke-linejoin="round"/>
</g>
<g clip-path="url(#clip4_129_8)">
<path d="M1433.4 689.982C1450.58 685.827 1461.14 668.533 1456.98 651.355C1452.83 634.178 1435.53 623.62 1418.36 627.775C1401.18 631.93 1390.62 649.224 1394.78 666.401C1398.93 683.579 1416.22 694.136 1433.4 689.982Z" stroke="#42679F" stroke-opacity="0.05" stroke-width="15" stroke-linecap="round" stroke-linejoin="round"/>
<path d="M1407.07 581.121L1410.83 596.672M1440.92 721.085L1444.69 736.636M1357.61 617.201L1371.22 625.513M1480.53 692.244L1494.15 700.556M1348.12 677.686L1363.67 673.924M1488.08 643.832L1503.64 640.071M1392.51 713.534L1384.2 727.15M1467.56 590.607L1459.24 604.222" stroke="#42679F" stroke-opacity="0.05" stroke-width="15" stroke-linecap="round" stroke-linejoin="round"/>
</g>
<g clip-path="url(#clip5_129_8)">
<path d="M544.27 633.84L542.814 637.564M502.344 636.77L513.516 641.137L505.747 644.539L502.344 636.77Z" stroke="#42679F" stroke-opacity="0.05" stroke-width="15" stroke-linecap="round" stroke-linejoin="round"/>
<path d="M466.041 579.629C460.814 586.865 456.527 594.735 453.281 603.05C441.136 634.121 461.2 661.469 494.103 674.329C527.006 687.189 560.297 680.696 572.441 649.624C575.667 641.262 577.675 632.479 578.402 623.545M484.689 610.553L483.234 614.276" stroke="#42679F" stroke-opacity="0.05" stroke-width="15" stroke-linecap="round" stroke-linejoin="round"/>
<path d="M504.423 571.047C498.507 577.749 490.454 582.998 479.689 582.842C463.206 582.599 453.921 570.221 455.372 564.753C457.423 557.021 483.146 519.546 505.538 524.263C520.794 527.47 530.269 541.184 526.223 551.536C536.577 552.827 546.416 556.797 554.766 563.053C558.813 552.701 576.062 549.072 589.449 557.061C609.106 568.778 602.598 613.763 598.863 620.837C596.221 625.84 581.004 628.64 568.724 617.642C560.707 610.456 559.13 601.444 559.326 592.506" stroke="#42679F" stroke-opacity="0.05" stroke-width="15" stroke-linecap="round" stroke-linejoin="round"/>
</g>
<g clip-path="url(#clip6_129_8)">
<path d="M547.373 345.416C547.373 345.416 547.373 345.416 538.651 340.427C528.545 334.634 516.347 332.51 504.858 337.385C486.521 345.167 478 366.251 485.781 384.588C488.687 391.437 493.437 396.895 499.191 400.624C508.937 407.003 587.999 441.153 587.999 441.153M547.373 345.416C547.373 345.416 547.373 345.416 549.845 335.676C552.7 324.384 559.649 314.135 571.137 309.26C589.475 301.479 610.559 310 618.34 328.337C621.246 335.186 621.872 342.394 620.556 349.123C618.372 360.565 587.999 441.153 587.999 441.153" stroke="#42679F" stroke-opacity="0.05" stroke-width="15" stroke-linecap="round" stroke-linejoin="round"/>
</g>
<path d="M239 332.562L323 278.844L407 332.562M389 320.625V410.156H257V320.625M305 362.406H341V410.156H305V362.406Z" stroke="#42679F" stroke-opacity="0.05" stroke-width="15" stroke-linejoin="round"/>
<path d="M434.792 35C434.792 39.2435 436.469 43.3131 439.454 46.3137C442.438 49.3143 446.487 51 450.708 51C454.93 51 458.978 49.3143 461.963 46.3137C464.948 43.3131 466.625 39.2435 466.625 35C466.625 30.7565 464.948 26.6869 461.963 23.6863C458.978 20.6857 454.93 19 450.708 19C446.487 19 442.438 20.6857 439.454 23.6863C436.469 26.6869 434.792 30.7565 434.792 35ZM514.375 35C514.375 39.2435 516.052 43.3131 519.037 46.3137C522.022 49.3143 526.07 51 530.292 51C534.513 51 538.561 49.3143 541.546 46.3137C544.531 43.3131 546.208 39.2435 546.208 35C546.208 30.7565 544.531 26.6869 541.546 23.6863C538.561 20.6857 534.513 19 530.292 19C526.07 19 522.022 20.6857 519.037 23.6863C516.052 26.6869 514.375 30.7565 514.375 35Z" stroke="#42679F" stroke-opacity="0.05" stroke-width="15" stroke-linecap="round" stroke-linejoin="round"/>
<path d="M434.792 35H418.875V-13M418.875 -13L434.792 -53H506.417L538.25 -13M418.875 -13H538.25M538.25 -13H546.208C550.43 -13 554.478 -11.3143 557.463 -8.31371C560.448 -5.31312 562.125 -1.24346 562.125 3V35H546.208M514.375 35H466.625M490.5 -13V-53" stroke="#42679F" stroke-opacity="0.05" stroke-width="15" stroke-linecap="round" stroke-linejoin="round"/>
<g clip-path="url(#clip7_129_8)">
<path d="M773.665 180.677C781.979 215.016 757.402 250.432 718.772 259.784C680.143 269.136 642.089 248.883 633.775 214.544M655.709 152.22C664.719 144.444 675.926 138.522 688.668 135.437C701.409 132.352 714.084 132.492 725.654 135.286" stroke="#42679F" stroke-opacity="0.05" stroke-width="15" stroke-linecap="round"/>
<path d="M633.775 214.544L617.3 146.495C615.672 139.769 622.778 134.289 628.868 137.578L655.664 152.037M773.665 180.677L757.19 112.628C755.562 105.901 746.736 104.278 742.825 109.989L725.609 135.103" stroke="#42679F" stroke-opacity="0.05" stroke-width="15" stroke-linecap="round" stroke-linejoin="round"/>
<path d="M725.154 184.194C729.446 183.155 732.083 178.833 731.044 174.541C730.005 170.249 725.683 167.612 721.391 168.651C717.098 169.69 714.461 174.012 715.5 178.304C716.54 182.596 720.861 185.233 725.154 184.194Z" fill="#42679F" fill-opacity="0.05"/>
<path d="M678.524 195.483C682.816 194.444 685.453 190.122 684.414 185.83C683.375 181.538 679.053 178.901 674.761 179.94C670.468 180.979 667.831 185.301 668.87 189.593C669.91 193.885 674.231 196.522 678.524 195.483Z" fill="#42679F" fill-opacity="0.05"/>
<path d="M707.483 213.154C711.775 212.115 714.413 207.793 713.373 203.501C712.334 199.208 708.012 196.571 703.72 197.61C699.428 198.65 696.791 202.971 697.83 207.264C698.869 211.556 703.191 214.193 707.483 213.154Z" fill="#42679F" fill-opacity="0.05"/>
<path d="M676.396 220.68L630.707 235.855M692.758 237.287L651.772 271.891M738.57 205.628L786.141 198.224M731.616 227.879L783.891 239.905" stroke="#42679F" stroke-opacity="0.05" stroke-width="15" stroke-linecap="round" stroke-linejoin="round"/>
</g>
<g clip-path="url(#clip8_129_8)">
<path d="M477.402 218.982C494.579 214.827 505.136 197.533 500.982 180.355C496.827 163.178 479.533 152.62 462.355 156.775C445.178 160.93 434.62 178.224 438.775 195.401C442.93 212.579 460.224 223.136 477.402 218.982Z" stroke="#42679F" stroke-opacity="0.05" stroke-width="15" stroke-linecap="round" stroke-linejoin="round"/>
<path d="M451.071 110.121L454.832 125.672M484.925 250.085L488.686 265.636M401.607 146.201L415.222 154.513M524.534 221.244L538.15 229.556M392.121 206.686L407.672 202.924M532.085 172.832L547.636 169.071M436.513 242.534L428.201 256.15M511.556 119.607L503.244 133.222" stroke="#42679F" stroke-opacity="0.05" stroke-width="15" stroke-linecap="round" stroke-linejoin="round"/>
</g>
<g clip-path="url(#clip9_129_8)">
<path d="M279.27 174.84L277.814 178.564M237.344 177.77L248.516 182.137L240.747 185.539L237.344 177.77Z" stroke="#42679F" stroke-opacity="0.05" stroke-width="15" stroke-linecap="round" stroke-linejoin="round"/>
<path d="M201.041 120.629C195.814 127.865 191.527 135.735 188.281 144.05C176.136 175.121 196.2 202.469 229.103 215.329C262.006 228.189 295.297 221.696 307.441 190.624C310.667 182.262 312.675 173.479 313.402 164.545M219.689 151.553L218.234 155.276" stroke="#42679F" stroke-opacity="0.05" stroke-width="15" stroke-linecap="round" stroke-linejoin="round"/>
<path d="M239.423 112.047C233.507 118.749 225.454 123.998 214.689 123.842C198.206 123.599 188.921 111.221 190.372 105.753C192.423 98.0208 218.146 60.5463 240.538 65.2635C255.794 68.4705 265.269 82.1843 261.223 92.5364C271.577 93.8269 281.416 97.7966 289.766 104.053C293.813 93.7012 311.062 90.0723 324.449 98.0606C344.106 109.778 337.598 154.763 333.863 161.837C331.221 166.84 316.004 169.64 303.724 158.642C295.707 151.456 294.13 142.444 294.326 133.506" stroke="#42679F" stroke-opacity="0.05" stroke-width="15" stroke-linecap="round" stroke-linejoin="round"/>
</g>
<g clip-path="url(#clip10_129_8)">
<path d="M1242.01 447.68C1242.01 447.68 1242.01 447.68 1240.44 437.756C1238.63 426.25 1232.64 415.409 1221.65 409.505C1204.1 400.082 1182.32 406.642 1172.9 424.192C1169.38 430.747 1168.1 437.868 1168.8 444.689C1169.93 456.283 1192.81 539.307 1192.81 539.307M1242.01 447.68C1242.01 447.68 1242.01 447.68 1251.15 443.508C1261.74 438.663 1274.09 437.662 1285.08 443.566C1302.63 452.989 1309.19 474.763 1299.77 492.313C1296.25 498.868 1291.02 503.87 1284.95 507.058C1274.66 512.521 1192.81 539.307 1192.81 539.307" stroke="#42679F" stroke-opacity="0.05" stroke-width="15" stroke-linecap="round" stroke-linejoin="round"/>
</g>
<g clip-path="url(#clip11_129_8)">
<path d="M830.752 39.0004C830.752 39.0004 830.752 39.0004 829.231 48.9329C827.459 60.4454 829.862 72.592 838.542 81.5599C852.395 95.8741 875.132 96.2463 889.446 82.3931C894.793 77.219 898.179 70.8248 899.59 64.1153C902.039 52.727 905.484 -33.3255 905.484 -33.3255M830.752 39.0004C830.752 39.0004 830.752 39.0004 820.775 40.1949C809.21 41.5897 797.149 38.7898 788.47 29.8219C774.617 15.5077 774.989 -7.22978 789.303 -21.083C794.649 -26.257 801.151 -29.432 807.903 -30.6228C819.365 -32.6982 905.484 -33.3255 905.484 -33.3255" stroke="#42679F" stroke-opacity="0.05" stroke-width="15" stroke-linecap="round" stroke-linejoin="round"/>
</g>
<path d="M904 405.562L988 351.844L1072 405.562M1054 393.625V483.156H922V393.625M970 435.406H1006V483.156H970V435.406Z" stroke="#42679F" stroke-opacity="0.05" stroke-width="15" stroke-linejoin="round"/>
<path d="M1099.79 108C1099.79 112.243 1101.47 116.313 1104.45 119.314C1107.44 122.314 1111.49 124 1115.71 124C1119.93 124 1123.98 122.314 1126.96 119.314C1129.95 116.313 1131.62 112.243 1131.62 108C1131.62 103.757 1129.95 99.6869 1126.96 96.6863C1123.98 93.6857 1119.93 92 1115.71 92C1111.49 92 1107.44 93.6857 1104.45 96.6863C1101.47 99.6869 1099.79 103.757 1099.79 108ZM1179.37 108C1179.37 112.243 1181.05 116.313 1184.04 119.314C1187.02 122.314 1191.07 124 1195.29 124C1199.51 124 1203.56 122.314 1206.55 119.314C1209.53 116.313 1211.21 112.243 1211.21 108C1211.21 103.757 1209.53 99.6869 1206.55 96.6863C1203.56 93.6857 1199.51 92 1195.29 92C1191.07 92 1187.02 93.6857 1184.04 96.6863C1181.05 99.6869 1179.37 103.757 1179.37 108Z" stroke="#42679F" stroke-opacity="0.05" stroke-width="15" stroke-linecap="round" stroke-linejoin="round"/>
<path d="M1099.79 108H1083.88V60M1083.88 60L1099.79 20H1171.42L1203.25 60M1083.88 60H1203.25M1203.25 60H1211.21C1215.43 60 1219.48 61.6857 1222.46 64.6863C1225.45 67.6869 1227.13 71.7565 1227.13 76V108H1211.21M1179.38 108H1131.63M1155.5 60V20" stroke="#42679F" stroke-opacity="0.05" stroke-width="15" stroke-linecap="round" stroke-linejoin="round"/>
<g clip-path="url(#clip12_129_8)">
<path d="M1438.67 253.677C1446.98 288.016 1422.4 323.432 1383.77 332.784C1345.14 342.136 1307.09 321.883 1298.78 287.544M1320.71 225.22C1329.72 217.444 1340.93 211.522 1353.67 208.437C1366.41 205.352 1379.08 205.492 1390.65 208.286" stroke="#42679F" stroke-opacity="0.05" stroke-width="15" stroke-linecap="round"/>
<path d="M1298.78 287.544L1282.3 219.495C1280.67 212.769 1287.78 207.289 1293.87 210.578L1320.66 225.037M1438.67 253.677L1422.19 185.628C1420.56 178.901 1411.74 177.278 1407.82 182.989L1390.61 208.103" stroke="#42679F" stroke-opacity="0.05" stroke-width="15" stroke-linecap="round" stroke-linejoin="round"/>
<path d="M1390.15 257.194C1394.45 256.155 1397.08 251.833 1396.04 247.541C1395 243.249 1390.68 240.612 1386.39 241.651C1382.1 242.69 1379.46 247.012 1380.5 251.304C1381.54 255.596 1385.86 258.233 1390.15 257.194Z" fill="#42679F" fill-opacity="0.05"/>
<path d="M1343.52 268.483C1347.82 267.444 1350.45 263.122 1349.41 258.83C1348.37 254.538 1344.05 251.901 1339.76 252.94C1335.47 253.979 1332.83 258.301 1333.87 262.593C1334.91 266.885 1339.23 269.522 1343.52 268.483Z" fill="#42679F" fill-opacity="0.05"/>
<path d="M1372.48 286.154C1376.78 285.115 1379.41 280.793 1378.37 276.501C1377.33 272.208 1373.01 269.571 1368.72 270.61C1364.43 271.65 1361.79 275.971 1362.83 280.264C1363.87 284.556 1368.19 287.193 1372.48 286.154Z" fill="#42679F" fill-opacity="0.05"/>
<path d="M1341.4 293.68L1295.71 308.855M1357.76 310.287L1316.77 344.891M1403.57 278.628L1451.14 271.224M1396.62 300.879L1448.89 312.905" stroke="#42679F" stroke-opacity="0.05" stroke-width="15" stroke-linecap="round" stroke-linejoin="round"/>
</g>
<g clip-path="url(#clip13_129_8)">
<path d="M1142.4 291.982C1159.58 287.827 1170.14 270.533 1165.98 253.355C1161.83 236.178 1144.53 225.62 1127.36 229.775C1110.18 233.93 1099.62 251.224 1103.78 268.401C1107.93 285.579 1125.22 296.136 1142.4 291.982Z" stroke="#42679F" stroke-opacity="0.05" stroke-width="15" stroke-linecap="round" stroke-linejoin="round"/>
<path d="M1116.07 183.121L1119.83 198.672M1149.92 323.085L1153.69 338.636M1066.61 219.201L1080.22 227.513M1189.53 294.244L1203.15 302.556M1057.12 279.686L1072.67 275.924M1197.08 245.832L1212.64 242.071M1101.51 315.534L1093.2 329.15M1176.56 192.607L1168.24 206.222" stroke="#42679F" stroke-opacity="0.05" stroke-width="15" stroke-linecap="round" stroke-linejoin="round"/>
</g>
<g clip-path="url(#clip14_129_8)">
<path d="M944.27 247.84L942.814 251.564M902.344 250.77L913.516 255.137L905.747 258.539L902.344 250.77Z" stroke="#42679F" stroke-opacity="0.05" stroke-width="15" stroke-linecap="round" stroke-linejoin="round"/>
<path d="M866.041 193.629C860.814 200.865 856.527 208.735 853.281 217.05C841.136 248.121 861.2 275.469 894.103 288.329C927.006 301.189 960.297 294.696 972.441 263.624C975.667 255.262 977.675 246.479 978.402 237.545M884.689 224.553L883.234 228.276" stroke="#42679F" stroke-opacity="0.05" stroke-width="15" stroke-linecap="round" stroke-linejoin="round"/>
<path d="M904.423 185.047C898.507 191.749 890.454 196.998 879.689 196.842C863.206 196.599 853.921 184.221 855.371 178.753C857.423 171.021 883.145 133.546 905.538 138.263C920.794 141.47 930.269 155.184 926.223 165.536C936.577 166.827 946.416 170.797 954.766 177.053C958.813 166.701 976.062 163.072 989.449 171.061C1009.11 182.778 1002.6 227.763 998.863 234.837C996.221 239.84 981.004 242.64 968.724 231.642C960.707 224.456 959.13 215.444 959.326 206.506" stroke="#42679F" stroke-opacity="0.05" stroke-width="15" stroke-linecap="round" stroke-linejoin="round"/>
</g>
<g clip-path="url(#clip15_129_8)">
<path d="M1323.37 1029.42C1323.37 1029.42 1323.37 1029.42 1314.65 1024.43C1304.55 1018.63 1292.35 1016.51 1280.86 1021.39C1262.52 1029.17 1254 1050.25 1261.78 1068.59C1264.69 1075.44 1269.44 1080.9 1275.19 1084.62C1284.94 1091 1364 1125.15 1364 1125.15M1323.37 1029.42C1323.37 1029.42 1323.37 1029.42 1325.84 1019.68C1328.7 1008.38 1335.65 998.135 1347.14 993.26C1365.47 985.478 1386.56 993.999 1394.34 1012.34C1397.25 1019.19 1397.87 1026.39 1396.56 1033.12C1394.37 1044.56 1364 1125.15 1364 1125.15" stroke="#42679F" stroke-opacity="0.05" stroke-width="15" stroke-linecap="round" stroke-linejoin="round"/>
</g>
<path d="M1008 1020.56L1092 966.844L1176 1020.56M1158 1008.62V1098.16H1026V1008.62M1074 1050.41H1110V1098.16H1074V1050.41Z" stroke="#42679F" stroke-opacity="0.05" stroke-width="15" stroke-linejoin="round"/>
<path d="M1154.79 694C1154.79 698.243 1156.47 702.313 1159.45 705.314C1162.44 708.314 1166.49 710 1170.71 710C1174.93 710 1178.98 708.314 1181.96 705.314C1184.95 702.313 1186.62 698.243 1186.62 694C1186.62 689.757 1184.95 685.687 1181.96 682.686C1178.98 679.686 1174.93 678 1170.71 678C1166.49 678 1162.44 679.686 1159.45 682.686C1156.47 685.687 1154.79 689.757 1154.79 694ZM1234.37 694C1234.37 698.243 1236.05 702.313 1239.04 705.314C1242.02 708.314 1246.07 710 1250.29 710C1254.51 710 1258.56 708.314 1261.55 705.314C1264.53 702.313 1266.21 698.243 1266.21 694C1266.21 689.757 1264.53 685.687 1261.55 682.686C1258.56 679.686 1254.51 678 1250.29 678C1246.07 678 1242.02 679.686 1239.04 682.686C1236.05 685.687 1234.37 689.757 1234.37 694Z" stroke="#42679F" stroke-opacity="0.05" stroke-width="15" stroke-linecap="round" stroke-linejoin="round"/>
<path d="M1154.79 694H1138.88V646M1138.88 646L1154.79 606H1226.42L1258.25 646M1138.88 646H1258.25M1258.25 646H1266.21C1270.43 646 1274.48 647.686 1277.46 650.686C1280.45 653.687 1282.13 657.757 1282.13 662V694H1266.21M1234.38 694H1186.63M1210.5 646V606" stroke="#42679F" stroke-opacity="0.05" stroke-width="15" stroke-linecap="round" stroke-linejoin="round"/>
<g clip-path="url(#clip16_129_8)">
<path d="M1542.67 868.676C1550.98 903.016 1526.4 938.432 1487.77 947.784C1449.14 957.136 1411.09 936.883 1402.78 902.544M1424.71 840.219C1433.72 832.444 1444.93 826.522 1457.67 823.437C1470.41 820.352 1483.08 820.492 1494.65 823.286" stroke="#42679F" stroke-opacity="0.05" stroke-width="15" stroke-linecap="round"/>
<path d="M1402.78 902.544L1386.3 834.495C1384.67 827.769 1391.78 822.289 1397.87 825.578L1424.66 840.037M1542.67 868.676L1526.19 800.628C1524.56 793.901 1515.74 792.278 1511.82 797.989L1494.61 823.103" stroke="#42679F" stroke-opacity="0.05" stroke-width="15" stroke-linecap="round" stroke-linejoin="round"/>
<path d="M1494.15 872.194C1498.45 871.155 1501.08 866.833 1500.04 862.541C1499 858.249 1494.68 855.612 1490.39 856.651C1486.1 857.69 1483.46 862.012 1484.5 866.304C1485.54 870.596 1489.86 873.233 1494.15 872.194Z" fill="#42679F" fill-opacity="0.05"/>
<path d="M1447.52 883.483C1451.82 882.444 1454.45 878.122 1453.41 873.83C1452.37 869.538 1448.05 866.901 1443.76 867.94C1439.47 868.979 1436.83 873.301 1437.87 877.593C1438.91 881.885 1443.23 884.522 1447.52 883.483Z" fill="#42679F" fill-opacity="0.05"/>
<path d="M1476.48 901.154C1480.78 900.114 1483.41 895.793 1482.37 891.5C1481.33 887.208 1477.01 884.571 1472.72 885.61C1468.43 886.649 1465.79 890.971 1466.83 895.263C1467.87 899.556 1472.19 902.193 1476.48 901.154Z" fill="#42679F" fill-opacity="0.05"/>
<path d="M1445.4 908.68L1399.71 923.855M1461.76 925.287L1420.77 959.891M1507.57 893.628L1555.14 886.224M1500.62 915.879L1552.89 927.905" stroke="#42679F" stroke-opacity="0.05" stroke-width="15" stroke-linecap="round" stroke-linejoin="round"/>
</g>
<g clip-path="url(#clip17_129_8)">
<path d="M1246.4 906.982C1263.58 902.827 1274.14 885.533 1269.98 868.355C1265.83 851.178 1248.53 840.62 1231.36 844.775C1214.18 848.93 1203.62 866.224 1207.78 883.401C1211.93 900.579 1229.22 911.136 1246.4 906.982Z" stroke="#42679F" stroke-opacity="0.05" stroke-width="15" stroke-linecap="round" stroke-linejoin="round"/>
<path d="M1220.07 798.121L1223.83 813.672M1253.92 938.085L1257.69 953.636M1170.61 834.201L1184.22 842.513M1293.53 909.244L1307.15 917.556M1161.12 894.686L1176.67 890.924M1301.08 860.832L1316.64 857.071M1205.51 930.534L1197.2 944.15M1280.56 807.607L1272.24 821.222" stroke="#42679F" stroke-opacity="0.05" stroke-width="15" stroke-linecap="round" stroke-linejoin="round"/>
</g>
<g clip-path="url(#clip18_129_8)">
<path d="M1048.27 862.84L1046.81 866.564M1006.34 865.77L1017.52 870.137L1009.75 873.539L1006.34 865.77Z" stroke="#42679F" stroke-opacity="0.05" stroke-width="15" stroke-linecap="round" stroke-linejoin="round"/>
<path d="M970.041 808.629C964.814 815.865 960.527 823.735 957.281 832.05C945.136 863.121 965.2 890.469 998.103 903.329C1031.01 916.189 1064.3 909.696 1076.44 878.624C1079.67 870.262 1081.67 861.479 1082.4 852.545M988.689 839.553L987.234 843.276" stroke="#42679F" stroke-opacity="0.05" stroke-width="15" stroke-linecap="round" stroke-linejoin="round"/>
<path d="M1008.42 800.047C1002.51 806.749 994.454 811.998 983.689 811.842C967.206 811.599 957.921 799.221 959.371 793.753C961.423 786.021 987.145 748.546 1009.54 753.263C1024.79 756.47 1034.27 770.184 1030.22 780.536C1040.58 781.827 1050.42 785.797 1058.77 792.053C1062.81 781.701 1080.06 778.072 1093.45 786.061C1113.11 797.778 1106.6 842.763 1102.86 849.837C1100.22 854.84 1085 857.64 1072.72 846.642C1064.71 839.456 1063.13 830.444 1063.33 821.506" stroke="#42679F" stroke-opacity="0.05" stroke-width="15" stroke-linecap="round" stroke-linejoin="round"/>
</g>
<g clip-path="url(#clip19_129_8)">
<path d="M1483.27 469.84L1481.81 473.564M1441.34 472.77L1452.52 477.137L1444.75 480.539L1441.34 472.77Z" stroke="#42679F" stroke-opacity="0.05" stroke-width="15" stroke-linecap="round" stroke-linejoin="round"/>
<path d="M1405.04 415.629C1399.81 422.865 1395.53 430.735 1392.28 439.05C1380.14 470.121 1400.2 497.469 1433.1 510.329C1466.01 523.189 1499.3 516.696 1511.44 485.624C1514.67 477.262 1516.67 468.479 1517.4 459.545M1423.69 446.553L1422.23 450.276" stroke="#42679F" stroke-opacity="0.05" stroke-width="15" stroke-linecap="round" stroke-linejoin="round"/>
<path d="M1443.42 407.047C1437.51 413.749 1429.45 418.998 1418.69 418.842C1402.21 418.599 1392.92 406.221 1394.37 400.753C1396.42 393.021 1422.15 355.546 1444.54 360.263C1459.79 363.47 1469.27 377.184 1465.22 387.536C1475.58 388.827 1485.42 392.797 1493.77 399.053C1497.81 388.701 1515.06 385.072 1528.45 393.061C1548.11 404.778 1541.6 449.763 1537.86 456.837C1535.22 461.84 1520 464.64 1507.72 453.642C1499.71 446.456 1498.13 437.444 1498.33 428.506" stroke="#42679F" stroke-opacity="0.05" stroke-width="15" stroke-linecap="round" stroke-linejoin="round"/>
</g>
<g clip-path="url(#clip20_129_8)">
<path d="M1205.27 1266.84L1203.81 1270.56M1163.34 1269.77L1174.52 1274.14L1166.75 1277.54L1163.34 1269.77Z" stroke="#42679F" stroke-opacity="0.05" stroke-width="15" stroke-linecap="round" stroke-linejoin="round"/>
<path d="M1127.04 1212.63C1121.81 1219.86 1117.53 1227.73 1114.28 1236.05C1102.14 1267.12 1122.2 1294.47 1155.1 1307.33C1188.01 1320.19 1221.3 1313.7 1233.44 1282.62C1236.67 1274.26 1238.67 1265.48 1239.4 1256.55M1145.69 1243.55L1144.23 1247.28" stroke="#42679F" stroke-opacity="0.05" stroke-width="15" stroke-linecap="round" stroke-linejoin="round"/>
<path d="M1165.42 1204.05C1159.51 1210.75 1151.45 1216 1140.69 1215.84C1124.21 1215.6 1114.92 1203.22 1116.37 1197.75C1118.42 1190.02 1144.15 1152.55 1166.54 1157.26C1181.79 1160.47 1191.27 1174.18 1187.22 1184.54C1197.58 1185.83 1207.42 1189.8 1215.77 1196.05C1219.81 1185.7 1237.06 1182.07 1250.45 1190.06C1270.11 1201.78 1263.6 1246.76 1259.86 1253.84C1257.22 1258.84 1242 1261.64 1229.72 1250.64C1221.71 1243.46 1220.13 1234.44 1220.33 1225.51" stroke="#42679F" stroke-opacity="0.05" stroke-width="15" stroke-linecap="round" stroke-linejoin="round"/>
</g>
<path d="M767.792 1023C767.792 1027.24 769.469 1031.31 772.454 1034.31C775.439 1037.31 779.487 1039 783.708 1039C787.93 1039 791.978 1037.31 794.963 1034.31C797.948 1031.31 799.625 1027.24 799.625 1023C799.625 1018.76 797.948 1014.69 794.963 1011.69C791.978 1008.69 787.93 1007 783.708 1007C779.487 1007 775.439 1008.69 772.454 1011.69C769.469 1014.69 767.792 1018.76 767.792 1023ZM847.375 1023C847.375 1027.24 849.052 1031.31 852.037 1034.31C855.022 1037.31 859.07 1039 863.292 1039C867.513 1039 871.562 1037.31 874.546 1034.31C877.531 1031.31 879.208 1027.24 879.208 1023C879.208 1018.76 877.531 1014.69 874.546 1011.69C871.562 1008.69 867.513 1007 863.292 1007C859.07 1007 855.022 1008.69 852.037 1011.69C849.052 1014.69 847.375 1018.76 847.375 1023Z" stroke="#42679F" stroke-opacity="0.05" stroke-width="15" stroke-linecap="round" stroke-linejoin="round"/>
<path d="M767.792 1023H751.875V975M751.875 975L767.792 935H839.417L871.25 975M751.875 975H871.25M871.25 975H879.208C883.43 975 887.478 976.686 890.463 979.686C893.448 982.687 895.125 986.757 895.125 991V1023H879.208M847.375 1023H799.625M823.5 975V935" stroke="#42679F" stroke-opacity="0.05" stroke-width="15" stroke-linecap="round" stroke-linejoin="round"/>
<path d="M1445.79 1207C1445.79 1211.24 1447.47 1215.31 1450.45 1218.31C1453.44 1221.31 1457.49 1223 1461.71 1223C1465.93 1223 1469.98 1221.31 1472.96 1218.31C1475.95 1215.31 1477.62 1211.24 1477.62 1207C1477.62 1202.76 1475.95 1198.69 1472.96 1195.69C1469.98 1192.69 1465.93 1191 1461.71 1191C1457.49 1191 1453.44 1192.69 1450.45 1195.69C1447.47 1198.69 1445.79 1202.76 1445.79 1207ZM1525.37 1207C1525.37 1211.24 1527.05 1215.31 1530.04 1218.31C1533.02 1221.31 1537.07 1223 1541.29 1223C1545.51 1223 1549.56 1221.31 1552.55 1218.31C1555.53 1215.31 1557.21 1211.24 1557.21 1207C1557.21 1202.76 1555.53 1198.69 1552.55 1195.69C1549.56 1192.69 1545.51 1191 1541.29 1191C1537.07 1191 1533.02 1192.69 1530.04 1195.69C1527.05 1198.69 1525.37 1202.76 1525.37 1207Z" stroke="#42679F" stroke-opacity="0.05" stroke-width="15" stroke-linecap="round" stroke-linejoin="round"/>
<path d="M1445.79 1207H1429.88V1159M1429.88 1159L1445.79 1119H1517.42L1549.25 1159M1429.88 1159H1549.25M1549.25 1159H1557.21C1561.43 1159 1565.48 1160.69 1568.46 1163.69C1571.45 1166.69 1573.13 1170.76 1573.13 1175V1207H1557.21M1525.38 1207H1477.63M1501.5 1159V1119" stroke="#42679F" stroke-opacity="0.05" stroke-width="15" stroke-linecap="round" stroke-linejoin="round"/>
<g clip-path="url(#clip21_129_8)">
<path d="M979.665 1201.68C987.979 1236.02 963.402 1271.43 924.772 1280.78C886.143 1290.14 848.089 1269.88 839.775 1235.54M861.709 1173.22C870.719 1165.44 881.926 1159.52 894.668 1156.44C907.409 1153.35 920.084 1153.49 931.654 1156.29" stroke="#42679F" stroke-opacity="0.05" stroke-width="15" stroke-linecap="round"/>
<path d="M839.775 1235.54L823.3 1167.5C821.672 1160.77 828.778 1155.29 834.868 1158.58L861.664 1173.04M979.665 1201.68L963.19 1133.63C961.562 1126.9 952.736 1125.28 948.825 1130.99L931.609 1156.1" stroke="#42679F" stroke-opacity="0.05" stroke-width="15" stroke-linecap="round" stroke-linejoin="round"/>
<path d="M931.154 1205.19C935.446 1204.15 938.083 1199.83 937.044 1195.54C936.005 1191.25 931.683 1188.61 927.391 1189.65C923.098 1190.69 920.461 1195.01 921.5 1199.3C922.54 1203.6 926.861 1206.23 931.154 1205.19Z" fill="#42679F" fill-opacity="0.05"/>
<path d="M884.524 1216.48C888.816 1215.44 891.453 1211.12 890.414 1206.83C889.375 1202.54 885.053 1199.9 880.761 1200.94C876.468 1201.98 873.831 1206.3 874.87 1210.59C875.91 1214.89 880.231 1217.52 884.524 1216.48Z" fill="#42679F" fill-opacity="0.05"/>
<path d="M913.483 1234.15C917.775 1233.11 920.413 1228.79 919.373 1224.5C918.334 1220.21 914.012 1217.57 909.72 1218.61C905.428 1219.65 902.791 1223.97 903.83 1228.26C904.869 1232.56 909.191 1235.19 913.483 1234.15Z" fill="#42679F" fill-opacity="0.05"/>
<path d="M882.396 1241.68L836.707 1256.85M898.758 1258.29L857.772 1292.89M944.57 1226.63L992.141 1219.22M937.616 1248.88L989.891 1260.9" stroke="#42679F" stroke-opacity="0.05" stroke-width="15" stroke-linecap="round" stroke-linejoin="round"/>
</g>
<g clip-path="url(#clip22_129_8)">
<path d="M670.401 1202.98C687.579 1198.83 698.136 1181.53 693.982 1164.36C689.827 1147.18 672.533 1136.62 655.355 1140.78C638.178 1144.93 627.62 1162.22 631.775 1179.4C635.93 1196.58 653.224 1207.14 670.401 1202.98Z" stroke="#42679F" stroke-opacity="0.05" stroke-width="15" stroke-linecap="round" stroke-linejoin="round"/>
<path d="M644.071 1094.12L647.832 1109.67M677.925 1234.08L681.686 1249.64M594.607 1130.2L608.222 1138.51M717.534 1205.24L731.15 1213.56M585.121 1190.69L600.672 1186.92M725.085 1156.83L740.636 1153.07M629.513 1226.53L621.201 1240.15M704.556 1103.61L696.244 1117.22" stroke="#42679F" stroke-opacity="0.05" stroke-width="15" stroke-linecap="round" stroke-linejoin="round"/>
</g>
<g clip-path="url(#clip23_129_8)">
<path d="M472.27 1158.84L470.814 1162.56M430.344 1161.77L441.516 1166.14L433.747 1169.54L430.344 1161.77Z" stroke="#42679F" stroke-opacity="0.05" stroke-width="15" stroke-linecap="round" stroke-linejoin="round"/>
<path d="M394.041 1104.63C388.814 1111.86 384.527 1119.73 381.281 1128.05C369.136 1159.12 389.2 1186.47 422.103 1199.33C455.006 1212.19 488.297 1205.7 500.441 1174.62C503.667 1166.26 505.675 1157.48 506.402 1148.55M412.689 1135.55L411.234 1139.28" stroke="#42679F" stroke-opacity="0.05" stroke-width="15" stroke-linecap="round" stroke-linejoin="round"/>
<path d="M432.423 1096.05C426.507 1102.75 418.454 1108 407.689 1107.84C391.206 1107.6 381.921 1095.22 383.372 1089.75C385.423 1082.02 411.146 1044.55 433.538 1049.26C448.794 1052.47 458.269 1066.18 454.223 1076.54C464.577 1077.83 474.416 1081.8 482.766 1088.05C486.813 1077.7 504.062 1074.07 517.449 1082.06C537.106 1093.78 530.598 1138.76 526.863 1145.84C524.221 1150.84 509.004 1153.64 496.724 1142.64C488.707 1135.46 487.13 1126.44 487.326 1117.51" stroke="#42679F" stroke-opacity="0.05" stroke-width="15" stroke-linecap="round" stroke-linejoin="round"/>
</g>
<g clip-path="url(#clip24_129_8)">
<path d="M204.373 1021.42C204.373 1021.42 204.373 1021.42 195.651 1016.43C185.545 1010.63 173.347 1008.51 161.858 1013.39C143.521 1021.17 135 1042.25 142.781 1060.59C145.687 1067.44 150.437 1072.9 156.191 1076.62C165.937 1083 244.999 1117.15 244.999 1117.15M204.373 1021.42C204.373 1021.42 204.373 1021.42 206.845 1011.68C209.7 1000.38 216.649 990.135 228.137 985.26C246.475 977.478 267.559 985.999 275.34 1004.34C278.246 1011.19 278.872 1018.39 277.556 1025.12C275.372 1036.56 244.999 1117.15 244.999 1117.15" stroke="#42679F" stroke-opacity="0.05" stroke-width="15" stroke-linecap="round" stroke-linejoin="round"/>
</g>
<path d="M-104 1008.56L-20 954.844L64 1008.56M46 996.625V1086.16H-86V996.625M-38 1038.41H-1.99998V1086.16H-38V1038.41Z" stroke="#42679F" stroke-opacity="0.05" stroke-width="15" stroke-linejoin="round"/>
<path d="M91.7917 711C91.7917 715.243 93.4686 719.313 96.4535 722.314C99.4385 725.314 103.487 727 107.708 727C111.93 727 115.978 725.314 118.963 722.314C121.948 719.313 123.625 715.243 123.625 711C123.625 706.757 121.948 702.687 118.963 699.686C115.978 696.686 111.93 695 107.708 695C103.487 695 99.4385 696.686 96.4535 699.686C93.4686 702.687 91.7917 706.757 91.7917 711ZM171.375 711C171.375 715.243 173.052 719.313 176.037 722.314C179.022 725.314 183.07 727 187.292 727C191.513 727 195.561 725.314 198.546 722.314C201.531 719.313 203.208 715.243 203.208 711C203.208 706.757 201.531 702.687 198.546 699.686C195.561 696.686 191.513 695 187.292 695C183.07 695 179.022 696.686 176.037 699.686C173.052 702.687 171.375 706.757 171.375 711Z" stroke="#42679F" stroke-opacity="0.05" stroke-width="15" stroke-linecap="round" stroke-linejoin="round"/>
<path d="M91.7917 711H75.875V663M75.875 663L91.7917 623H163.417L195.25 663M75.875 663H195.25M195.25 663H203.208C207.43 663 211.478 664.686 214.463 667.686C217.448 670.687 219.125 674.757 219.125 679V711H203.208M171.375 711H123.625M147.5 663V623" stroke="#42679F" stroke-opacity="0.05" stroke-width="15" stroke-linecap="round" stroke-linejoin="round"/>
<g clip-path="url(#clip25_129_8)">
<path d="M430.665 777.676C438.979 812.016 414.402 847.432 375.772 856.784C337.143 866.136 299.089 845.883 290.775 811.544M312.709 749.219C321.719 741.444 332.926 735.522 345.668 732.437C358.409 729.352 371.084 729.492 382.654 732.286" stroke="#42679F" stroke-opacity="0.05" stroke-width="15" stroke-linecap="round"/>
<path d="M290.775 811.544L274.3 743.495C272.672 736.769 279.778 731.289 285.868 734.578L312.664 749.037M430.665 777.676L414.19 709.628C412.562 702.901 403.736 701.278 399.825 706.989L382.609 732.103" stroke="#42679F" stroke-opacity="0.05" stroke-width="15" stroke-linecap="round" stroke-linejoin="round"/>
<path d="M382.154 781.194C386.446 780.155 389.083 775.833 388.044 771.541C387.005 767.249 382.683 764.612 378.391 765.651C374.098 766.69 371.461 771.012 372.5 775.304C373.54 779.596 377.861 782.233 382.154 781.194Z" fill="#42679F" fill-opacity="0.05"/>
<path d="M335.524 792.483C339.816 791.444 342.453 787.122 341.414 782.83C340.375 778.538 336.053 775.901 331.76 776.94C327.468 777.979 324.831 782.301 325.87 786.593C326.909 790.885 331.231 793.522 335.524 792.483Z" fill="#42679F" fill-opacity="0.05"/>
<path d="M364.483 810.154C368.775 809.114 371.412 804.793 370.373 800.5C369.334 796.208 365.012 793.571 360.72 794.61C356.428 795.649 353.791 799.971 354.83 804.263C355.869 808.556 360.191 811.193 364.483 810.154Z" fill="#42679F" fill-opacity="0.05"/>
<path d="M333.397 817.68L287.707 832.855M349.758 834.287L308.772 868.891M395.57 802.628L443.141 795.224M388.616 824.879L440.891 836.905" stroke="#42679F" stroke-opacity="0.05" stroke-width="15" stroke-linecap="round" stroke-linejoin="round"/>
</g>
<g clip-path="url(#clip26_129_8)">
<path d="M134.401 894.982C151.579 890.827 162.136 873.533 157.982 856.355C153.827 839.178 136.533 828.62 119.355 832.775C102.178 836.93 91.6205 854.224 95.7753 871.401C99.9302 888.579 117.224 899.136 134.401 894.982Z" stroke="#42679F" stroke-opacity="0.05" stroke-width="15" stroke-linecap="round" stroke-linejoin="round"/>
<path d="M108.071 786.121L111.832 801.672M141.925 926.085L145.686 941.636M58.6067 822.201L72.2225 830.513M181.534 897.244L195.15 905.556M49.1207 882.686L64.6722 878.924M189.085 848.832L204.636 845.071M93.5127 918.534L85.2007 932.15M168.556 795.607L160.244 809.222" stroke="#42679F" stroke-opacity="0.05" stroke-width="15" stroke-linecap="round" stroke-linejoin="round"/>
</g>
<g clip-path="url(#clip27_129_8)">
<path d="M-103.577 788.047C-109.493 794.749 -117.546 799.998 -128.311 799.842C-144.794 799.599 -154.079 787.221 -152.628 781.753C-150.577 774.021 -124.854 736.546 -102.462 741.263C-87.2059 744.47 -77.7307 758.184 -81.7769 768.536C-71.4225 769.827 -61.5841 773.797 -53.2336 780.053C-49.1874 769.701 -31.9378 766.072 -18.5506 774.061C1.10572 785.778 -5.40175 830.763 -9.13677 837.837C-11.7789 842.84 -26.9963 845.64 -39.2759 834.642C-47.2933 827.456 -48.8702 818.444 -48.6736 809.506" stroke="#42679F" stroke-opacity="0.05" stroke-width="15" stroke-linecap="round" stroke-linejoin="round"/>
</g>
<path d="M314.675 512.869C314.675 512.869 314.675 512.869 312.315 503.102C309.59 491.777 302.76 481.45 291.328 476.443C273.081 468.451 251.901 476.729 243.909 494.976C240.924 501.791 240.216 508.992 241.455 515.735C243.507 527.202 272.952 608.133 272.952 608.133M314.675 512.869C314.675 512.869 314.675 512.869 323.454 507.981C333.626 502.305 345.848 500.321 357.28 505.328C375.526 513.32 383.804 534.5 375.813 552.747C372.828 559.562 368.016 564.965 362.22 568.628C352.401 574.895 272.952 608.133 272.952 608.133" stroke="#42679F" stroke-opacity="0.05" stroke-width="15" stroke-linecap="round" stroke-linejoin="round"/>
<path d="M-8.91157 567.669C8.2662 563.514 18.8234 546.22 14.6685 529.042C10.5136 511.865 -6.77987 501.307 -23.9577 505.462C-41.1354 509.617 -51.6926 526.911 -47.5377 544.088C-43.3829 561.266 -26.0894 571.823 -8.91157 567.669Z" stroke="#42679F" stroke-opacity="0.05" stroke-width="15" stroke-linecap="round" stroke-linejoin="round"/>
<path d="M-35.2422 458.808L-31.4807 474.359M-1.38853 598.772L2.37299 614.323M-84.7063 494.888L-71.0906 503.2M38.2214 569.931L51.8371 578.243M-94.1924 555.373L-78.6408 551.612M45.7716 521.519L61.3232 517.758M-49.8004 591.221L-58.1124 604.837M25.2432 468.294L16.9312 481.909" stroke="#42679F" stroke-opacity="0.05" stroke-width="15" stroke-linecap="round" stroke-linejoin="round"/>
<path d="M-19.0833 133C-19.0833 137.243 -17.4064 141.313 -14.4215 144.314C-11.4365 147.314 -7.38803 149 -3.16667 149C1.05469 149 5.10316 147.314 8.08811 144.314C11.0731 141.313 12.75 137.243 12.75 133C12.75 128.757 11.0731 124.687 8.08811 121.686C5.10316 118.686 1.05469 117 -3.16667 117C-7.38803 117 -11.4365 118.686 -14.4215 121.686C-17.4064 124.687 -19.0833 128.757 -19.0833 133ZM60.5 133C60.5 137.243 62.1769 141.313 65.1619 144.314C68.1468 147.314 72.1953 149 76.4167 149C80.638 149 84.6865 147.314 87.6714 144.314C90.6564 141.313 92.3333 137.243 92.3333 133C92.3333 128.757 90.6564 124.687 87.6714 121.686C84.6865 118.686 80.638 117 76.4167 117C72.1953 117 68.1468 118.686 65.1619 121.686C62.1769 124.687 60.5 128.757 60.5 133Z" stroke="#42679F" stroke-opacity="0.05" stroke-width="15" stroke-linecap="round" stroke-linejoin="round"/>
<path d="M-19.0833 133H-35V85M-35 85L-19.0833 45H52.5417L84.375 85M-35 85H84.375M84.375 85H92.3333C96.5547 85 100.603 86.6857 103.588 89.6863C106.573 92.6869 108.25 96.7565 108.25 101V133H92.3333M60.5 133H12.75M36.625 85V45" stroke="#42679F" stroke-opacity="0.05" stroke-width="15" stroke-linecap="round" stroke-linejoin="round"/>
<path d="M153.228 1239.08L155.776 1242.16M135.419 1277.15L144.663 1269.51L143.863 1277.95L135.419 1277.15Z" stroke="#42679F" stroke-opacity="0.05" stroke-width="15" stroke-linecap="round" stroke-linejoin="round"/>
<path d="M67.8373 1281.12C71.6225 1289.2 76.418 1296.77 82.1088 1303.65C103.366 1329.36 137.017 1325.11 164.243 1302.6C191.47 1280.09 201.969 1247.84 180.712 1222.13C174.97 1215.24 168.268 1209.22 160.813 1204.25M103.927 1279.84L106.474 1282.92" stroke="#42679F" stroke-opacity="0.05" stroke-width="15" stroke-linecap="round" stroke-linejoin="round"/>
<path d="M78.9845 1243.4C81.968 1251.83 82.6434 1261.42 77.2771 1270.75C69.0557 1285.04 53.7262 1287.14 49.6513 1283.21C43.8903 1277.66 23.6333 1236.97 38.6358 1219.69C48.8511 1207.92 65.4411 1206.3 72.5234 1214.87C78.682 1206.44 86.9318 1199.77 96.4575 1195.51C89.3752 1186.95 94.5842 1170.11 108.071 1162.29C127.863 1150.8 164.019 1178.34 168.387 1185.05C171.476 1189.79 166.531 1204.45 150.952 1209.84C140.776 1213.35 132.132 1210.35 124.416 1205.84" stroke="#42679F" stroke-opacity="0.05" stroke-width="15" stroke-linecap="round" stroke-linejoin="round"/>
<path d="M1314 19.7188L1398 -34L1482 19.7188M1464 7.78125V97.3125H1332V7.78125M1380 49.5625H1416V97.3125H1380V49.5625Z" stroke="#42679F" stroke-opacity="0.05" stroke-width="15" stroke-linejoin="round"/>
<g clip-path="url(#clip28_129_8)">
<path d="M170.665 328.677C178.979 363.016 154.402 398.432 115.772 407.784C77.1433 417.136 39.0886 396.883 30.775 362.544M52.7085 300.22C61.7188 292.444 72.9262 286.522 85.6678 283.437C98.4095 280.352 111.084 280.492 122.654 283.286" stroke="#42679F" stroke-opacity="0.05" stroke-width="15" stroke-linecap="round"/>
<path d="M30.775 362.544L14.3003 294.495C12.6718 287.769 19.7779 282.289 25.8684 285.578L52.6643 300.037M170.665 328.677L154.191 260.628C152.562 253.901 143.736 252.278 139.825 257.989L122.609 283.103" stroke="#42679F" stroke-opacity="0.05" stroke-width="15" stroke-linecap="round" stroke-linejoin="round"/>
<path d="M122.154 332.194C126.446 331.155 129.083 326.833 128.044 322.541C127.005 318.249 122.683 315.612 118.391 316.651C114.098 317.69 111.461 322.012 112.5 326.304C113.54 330.596 117.861 333.233 122.154 332.194Z" fill="#42679F" fill-opacity="0.05"/>
<path d="M75.5236 343.483C79.8158 342.444 82.4529 338.122 81.4137 333.83C80.3746 329.538 76.0527 326.901 71.7605 327.94C67.4683 328.979 64.8312 333.301 65.8704 337.593C66.9095 341.885 71.2314 344.522 75.5236 343.483Z" fill="#42679F" fill-opacity="0.05"/>
<path d="M104.483 361.154C108.775 360.115 111.413 355.793 110.373 351.501C109.334 347.208 105.012 344.571 100.72 345.61C96.428 346.65 93.7909 350.971 94.83 355.264C95.8692 359.556 100.191 362.193 104.483 361.154Z" fill="#42679F" fill-opacity="0.05"/>
<path d="M73.3965 368.68L27.7072 383.855M89.7579 385.287L48.7724 419.891M135.57 353.628L183.141 346.224M128.616 375.879L180.891 387.905" stroke="#42679F" stroke-opacity="0.05" stroke-width="15" stroke-linecap="round" stroke-linejoin="round"/>
</g>
</g>
<defs>
<clipPath id="clip0_129_8">
<rect width="1517" height="1254" fill="white"/>
</clipPath>
<clipPath id="clip1_129_8">
<rect width="192" height="192" fill="white" transform="translate(683 771.001) rotate(-22.9939)"/>
</clipPath>
<clipPath id="clip2_129_8">
<rect width="191.909" height="191.909" fill="white" transform="translate(844 546.157) rotate(-13.6096)"/>
</clipPath>
<clipPath id="clip3_129_8">
<rect width="192" height="192" fill="white" transform="translate(612 562.138) rotate(-13.5972)"/>
</clipPath>
<clipPath id="clip4_129_8">
<rect width="192" height="192" fill="white" transform="translate(1310 588.138) rotate(-13.5972)"/>
</clipPath>
<clipPath id="clip5_129_8">
<rect width="191.909" height="191.909" fill="white" transform="translate(465.862 483) rotate(21.3483)"/>
</clipPath>
<clipPath id="clip6_129_8">
<rect width="192" height="192" fill="white" transform="translate(434 324.001) rotate(-22.9939)"/>
</clipPath>
<clipPath id="clip7_129_8">
<rect width="191.909" height="191.909" fill="white" transform="translate(586 119.157) rotate(-13.6096)"/>
</clipPath>
<clipPath id="clip8_129_8">
<rect width="192" height="192" fill="white" transform="translate(354 117.138) rotate(-13.5972)"/>
</clipPath>
<clipPath id="clip9_129_8">
<rect width="191.909" height="191.909" fill="white" transform="translate(200.862 24) rotate(21.3483)"/>
</clipPath>
<clipPath id="clip10_129_8">
<rect width="192" height="192" fill="white" transform="translate(1187.71 345.88) rotate(28.2333)"/>
</clipPath>
<clipPath id="clip11_129_8">
<rect width="192" height="192" fill="white" transform="translate(851.525 152.493) rotate(-134.062)"/>
</clipPath>
<clipPath id="clip12_129_8">
<rect width="191.909" height="191.909" fill="white" transform="translate(1251 192.157) rotate(-13.6096)"/>
</clipPath>
<clipPath id="clip13_129_8">
<rect width="192" height="192" fill="white" transform="translate(1019 190.138) rotate(-13.5972)"/>
</clipPath>
<clipPath id="clip14_129_8">
<rect width="191.909" height="191.909" fill="white" transform="translate(865.862 97) rotate(21.3483)"/>
</clipPath>
<clipPath id="clip15_129_8">
<rect width="192" height="192" fill="white" transform="translate(1210 1008) rotate(-22.9939)"/>
</clipPath>
<clipPath id="clip16_129_8">
<rect width="191.909" height="191.909" fill="white" transform="translate(1355 807.157) rotate(-13.6096)"/>
</clipPath>
<clipPath id="clip17_129_8">
<rect width="192" height="192" fill="white" transform="translate(1123 805.138) rotate(-13.5972)"/>
</clipPath>
<clipPath id="clip18_129_8">
<rect width="191.909" height="191.909" fill="white" transform="translate(969.862 712) rotate(21.3483)"/>
</clipPath>
<clipPath id="clip19_129_8">
<rect width="191.909" height="191.909" fill="white" transform="translate(1404.86 319) rotate(21.3483)"/>
</clipPath>
<clipPath id="clip20_129_8">
<rect width="191.909" height="191.909" fill="white" transform="translate(1126.86 1116) rotate(21.3483)"/>
</clipPath>
<clipPath id="clip21_129_8">
<rect width="191.909" height="191.909" fill="white" transform="translate(792 1140.16) rotate(-13.6096)"/>
</clipPath>
<clipPath id="clip22_129_8">
<rect width="192" height="192" fill="white" transform="translate(547 1101.14) rotate(-13.5972)"/>
</clipPath>
<clipPath id="clip23_129_8">
<rect width="191.909" height="191.909" fill="white" transform="translate(393.862 1008) rotate(21.3483)"/>
</clipPath>
<clipPath id="clip24_129_8">
<rect width="192" height="192" fill="white" transform="translate(91 1000) rotate(-22.9939)"/>
</clipPath>
<clipPath id="clip25_129_8">
<rect width="191.909" height="191.909" fill="white" transform="translate(243 716.157) rotate(-13.6096)"/>
</clipPath>
<clipPath id="clip26_129_8">
<rect width="192" height="192" fill="white" transform="translate(11 793.138) rotate(-13.5972)"/>
</clipPath>
<clipPath id="clip27_129_8">
<rect width="191.909" height="191.909" fill="white" transform="translate(-142.138 700) rotate(21.3483)"/>
</clipPath>
<clipPath id="clip28_129_8">
<rect width="191.909" height="191.909" fill="white" transform="translate(-17 267.157) rotate(-13.6096)"/>
</clipPath>
</defs>
</svg>
