<svg width="1517" height="1365" viewBox="0 0 1517 1365" fill="none" xmlns="http://www.w3.org/2000/svg">
<g clip-path="url(#clip0_183_25)">
<rect width="1517" height="1365" fill="white"/>
<g clip-path="url(#clip1_183_25)">
<path d="M796.373 792.416C796.373 792.416 796.373 792.416 787.651 787.427C777.545 781.634 765.346 779.51 753.858 784.385C735.521 792.167 727 813.251 734.781 831.588C737.687 838.437 742.437 843.895 748.191 847.624C757.937 854.003 836.999 888.153 836.999 888.153M796.373 792.416C796.373 792.416 796.373 792.416 798.845 782.676C801.7 771.384 808.649 761.135 820.137 756.26C838.475 748.479 859.558 757 867.34 775.337C870.246 782.186 870.872 789.394 869.556 796.123C867.372 807.565 836.999 888.153 836.999 888.153" stroke="#42679F" stroke-opacity="0.1" stroke-width="15" stroke-linecap="round" stroke-linejoin="round"/>
</g>
<path d="M491 885.562L575 831.844L659 885.562M641 873.625V963.156H509V873.625M557 915.406H593V963.156H557V915.406Z" stroke="#42679F" stroke-opacity="0.1" stroke-width="15" stroke-linejoin="round"/>
<path d="M692.792 462C692.792 466.243 694.469 470.313 697.454 473.314C700.438 476.314 704.487 478 708.708 478C712.93 478 716.978 476.314 719.963 473.314C722.948 470.313 724.625 466.243 724.625 462C724.625 457.757 722.948 453.687 719.963 450.686C716.978 447.686 712.93 446 708.708 446C704.487 446 700.438 447.686 697.454 450.686C694.469 453.687 692.792 457.757 692.792 462ZM772.375 462C772.375 466.243 774.052 470.313 777.037 473.314C780.022 476.314 784.07 478 788.292 478C792.513 478 796.561 476.314 799.546 473.314C802.531 470.313 804.208 466.243 804.208 462C804.208 457.757 802.531 453.687 799.546 450.686C796.561 447.686 792.513 446 788.292 446C784.07 446 780.022 447.686 777.037 450.686C774.052 453.687 772.375 457.757 772.375 462Z" stroke="#42679F" stroke-opacity="0.1" stroke-width="15" stroke-linecap="round" stroke-linejoin="round"/>
<path d="M692.792 462H676.875V414M676.875 414L692.792 374H764.417L796.25 414M676.875 414H796.25M796.25 414H804.208C808.43 414 812.478 415.686 815.463 418.686C818.448 421.687 820.125 425.757 820.125 430V462H804.208M772.375 462H724.625M748.5 414V374" stroke="#42679F" stroke-opacity="0.1" stroke-width="15" stroke-linecap="round" stroke-linejoin="round"/>
<g clip-path="url(#clip2_183_25)">
<path d="M1031.67 607.677C1039.98 642.016 1015.4 677.432 976.773 686.784C938.143 696.136 900.089 675.884 891.775 641.545M913.709 579.22C922.719 571.444 933.926 565.522 946.668 562.437C959.41 559.352 972.085 559.492 983.654 562.286" stroke="#42679F" stroke-opacity="0.1" stroke-width="15" stroke-linecap="round"/>
<path d="M891.775 641.544L875.3 573.496C873.672 566.769 880.778 561.289 886.868 564.578L913.664 579.037M1031.67 607.677L1015.19 539.628C1013.56 532.902 1004.74 531.278 1000.82 536.989L983.609 562.103" stroke="#42679F" stroke-opacity="0.1" stroke-width="15" stroke-linecap="round" stroke-linejoin="round"/>
<path d="M983.154 611.194C987.446 610.155 990.083 605.833 989.044 601.541C988.005 597.249 983.683 594.612 979.391 595.651C975.098 596.69 972.461 601.012 973.5 605.304C974.54 609.596 978.861 612.233 983.154 611.194Z" fill="#42679F" fill-opacity="0.1"/>
<path d="M936.524 622.484C940.816 621.444 943.453 617.123 942.414 612.83C941.375 608.538 937.053 605.901 932.76 606.94C928.468 607.979 925.831 612.301 926.87 616.593C927.909 620.886 932.231 623.523 936.524 622.484Z" fill="#42679F" fill-opacity="0.1"/>
<path d="M965.483 640.154C969.775 639.115 972.413 634.793 971.373 630.501C970.334 626.209 966.012 623.572 961.72 624.611C957.428 625.65 954.791 629.972 955.83 634.264C956.869 638.556 961.191 641.193 965.483 640.154Z" fill="#42679F" fill-opacity="0.1"/>
<path d="M934.397 647.68L888.707 662.855M950.758 664.287L909.772 698.891M996.57 632.628L1044.14 625.224M989.616 654.879L1041.89 666.905" stroke="#42679F" stroke-opacity="0.1" stroke-width="15" stroke-linecap="round" stroke-linejoin="round"/>
</g>
<g clip-path="url(#clip3_183_25)">
<path d="M735.402 663.982C752.579 659.827 763.136 642.533 758.982 625.355C754.827 608.178 737.533 597.62 720.355 601.775C703.178 605.93 692.62 623.224 696.775 640.401C700.93 657.579 718.224 668.136 735.402 663.982Z" stroke="#42679F" stroke-opacity="0.1" stroke-width="15" stroke-linecap="round" stroke-linejoin="round"/>
<path d="M709.071 555.121L712.832 570.672M742.925 695.085L746.686 710.636M659.607 591.201L673.222 599.513M782.535 666.244L796.15 674.556M650.121 651.686L665.672 647.924M790.085 617.832L805.636 614.071M694.513 687.534L686.201 701.15M769.556 564.607L761.244 578.222" stroke="#42679F" stroke-opacity="0.1" stroke-width="15" stroke-linecap="round" stroke-linejoin="round"/>
</g>
<g clip-path="url(#clip4_183_25)">
<path d="M1433.4 689.982C1450.58 685.827 1461.14 668.533 1456.98 651.355C1452.83 634.178 1435.53 623.62 1418.36 627.775C1401.18 631.93 1390.62 649.224 1394.78 666.401C1398.93 683.579 1416.22 694.136 1433.4 689.982Z" stroke="#42679F" stroke-opacity="0.1" stroke-width="15" stroke-linecap="round" stroke-linejoin="round"/>
<path d="M1407.07 581.121L1410.83 596.672M1440.92 721.085L1444.69 736.636M1357.61 617.201L1371.22 625.513M1480.53 692.244L1494.15 700.556M1348.12 677.686L1363.67 673.924M1488.08 643.832L1503.64 640.071M1392.51 713.534L1384.2 727.15M1467.56 590.607L1459.24 604.222" stroke="#42679F" stroke-opacity="0.1" stroke-width="15" stroke-linecap="round" stroke-linejoin="round"/>
</g>
<g clip-path="url(#clip5_183_25)">
<path d="M544.27 633.84L542.814 637.564M502.344 636.77L513.516 641.137L505.747 644.539L502.344 636.77Z" stroke="#42679F" stroke-opacity="0.1" stroke-width="15" stroke-linecap="round" stroke-linejoin="round"/>
<path d="M466.041 579.629C460.814 586.865 456.527 594.735 453.281 603.05C441.136 634.121 461.2 661.469 494.103 674.329C527.006 687.19 560.297 680.696 572.441 649.625C575.667 641.262 577.675 632.479 578.402 623.546M484.689 610.553L483.234 614.277" stroke="#42679F" stroke-opacity="0.1" stroke-width="15" stroke-linecap="round" stroke-linejoin="round"/>
<path d="M504.423 571.047C498.507 577.749 490.454 582.998 479.689 582.842C463.206 582.599 453.921 570.221 455.372 564.753C457.423 557.021 483.146 519.546 505.538 524.263C520.794 527.47 530.269 541.184 526.223 551.536C536.577 552.827 546.416 556.797 554.766 563.053C558.813 552.701 576.062 549.072 589.449 557.061C609.106 568.778 602.598 613.763 598.863 620.837C596.221 625.84 581.004 628.64 568.724 617.642C560.707 610.456 559.13 601.444 559.326 592.506" stroke="#42679F" stroke-opacity="0.1" stroke-width="15" stroke-linecap="round" stroke-linejoin="round"/>
</g>
<g clip-path="url(#clip6_183_25)">
<path d="M547.373 345.416C547.373 345.416 547.373 345.416 538.651 340.427C528.545 334.634 516.346 332.51 504.858 337.385C486.521 345.167 478 366.251 485.781 384.588C488.687 391.437 493.437 396.895 499.191 400.624C508.937 407.003 587.999 441.153 587.999 441.153M547.373 345.416C547.373 345.416 547.373 345.416 549.845 335.676C552.7 324.384 559.649 314.135 571.137 309.26C589.475 301.479 610.558 310 618.34 328.337C621.246 335.186 621.872 342.394 620.556 349.123C618.372 360.565 587.999 441.153 587.999 441.153" stroke="#42679F" stroke-opacity="0.1" stroke-width="15" stroke-linecap="round" stroke-linejoin="round"/>
</g>
<path d="M239 332.562L323 278.844L407 332.562M389 320.625V410.156H257V320.625M305 362.406H341V410.156H305V362.406Z" stroke="#42679F" stroke-opacity="0.1" stroke-width="15" stroke-linejoin="round"/>
<path d="M434.792 35C434.792 39.2435 436.469 43.3131 439.454 46.3137C442.438 49.3143 446.487 51 450.708 51C454.93 51 458.978 49.3143 461.963 46.3137C464.948 43.3131 466.625 39.2435 466.625 35C466.625 30.7565 464.948 26.6869 461.963 23.6863C458.978 20.6857 454.93 19 450.708 19C446.487 19 442.438 20.6857 439.454 23.6863C436.469 26.6869 434.792 30.7565 434.792 35ZM514.375 35C514.375 39.2435 516.052 43.3131 519.037 46.3137C522.022 49.3143 526.07 51 530.292 51C534.513 51 538.561 49.3143 541.546 46.3137C544.531 43.3131 546.208 39.2435 546.208 35C546.208 30.7565 544.531 26.6869 541.546 23.6863C538.561 20.6857 534.513 19 530.292 19C526.07 19 522.022 20.6857 519.037 23.6863C516.052 26.6869 514.375 30.7565 514.375 35Z" stroke="#42679F" stroke-opacity="0.1" stroke-width="15" stroke-linecap="round" stroke-linejoin="round"/>
<path d="M434.792 35H418.875V-13M418.875 -13L434.792 -53H506.417L538.25 -13M418.875 -13H538.25M538.25 -13H546.208C550.43 -13 554.478 -11.3143 557.463 -8.31371C560.448 -5.31312 562.125 -1.24346 562.125 3V35H546.208M514.375 35H466.625M490.5 -13V-53" stroke="#42679F" stroke-opacity="0.1" stroke-width="15" stroke-linecap="round" stroke-linejoin="round"/>
<g clip-path="url(#clip7_183_25)">
<path d="M773.665 180.677C781.979 215.016 757.402 250.432 718.773 259.784C680.143 269.136 642.089 248.884 633.775 214.545M655.709 152.22C664.719 144.444 675.926 138.522 688.668 135.437C701.41 132.352 714.085 132.492 725.654 135.286" stroke="#42679F" stroke-opacity="0.1" stroke-width="15" stroke-linecap="round"/>
<path d="M633.775 214.544L617.3 146.496C615.672 139.769 622.778 134.289 628.868 137.578L655.664 152.037M773.665 180.677L757.191 112.628C755.562 105.902 746.736 104.278 742.825 109.989L725.609 135.103" stroke="#42679F" stroke-opacity="0.1" stroke-width="15" stroke-linecap="round" stroke-linejoin="round"/>
<path d="M725.154 184.194C729.446 183.155 732.083 178.833 731.044 174.541C730.005 170.249 725.683 167.612 721.391 168.651C717.098 169.69 714.461 174.012 715.5 178.304C716.54 182.596 720.861 185.233 725.154 184.194Z" fill="#42679F" fill-opacity="0.1"/>
<path d="M678.524 195.484C682.816 194.444 685.453 190.123 684.414 185.83C683.375 181.538 679.053 178.901 674.76 179.94C670.468 180.979 667.831 185.301 668.87 189.593C669.909 193.886 674.231 196.523 678.524 195.484Z" fill="#42679F" fill-opacity="0.1"/>
<path d="M707.483 213.154C711.775 212.115 714.413 207.793 713.373 203.501C712.334 199.209 708.012 196.572 703.72 197.611C699.428 198.65 696.791 202.972 697.83 207.264C698.869 211.556 703.191 214.193 707.483 213.154Z" fill="#42679F" fill-opacity="0.1"/>
<path d="M676.397 220.68L630.707 235.855M692.758 237.287L651.772 271.891M738.57 205.628L786.141 198.224M731.616 227.879L783.891 239.905" stroke="#42679F" stroke-opacity="0.1" stroke-width="15" stroke-linecap="round" stroke-linejoin="round"/>
</g>
<g clip-path="url(#clip8_183_25)">
<path d="M477.401 218.982C494.579 214.827 505.136 197.533 500.981 180.355C496.827 163.178 479.533 152.62 462.355 156.775C445.178 160.93 434.62 178.224 438.775 195.401C442.93 212.579 460.224 223.136 477.401 218.982Z" stroke="#42679F" stroke-opacity="0.1" stroke-width="15" stroke-linecap="round" stroke-linejoin="round"/>
<path d="M451.071 110.121L454.832 125.672M484.924 250.085L488.686 265.636M401.607 146.201L415.222 154.513M524.534 221.244L538.15 229.556M392.121 206.686L407.672 202.924M532.085 172.832L547.636 169.071M436.513 242.534L428.201 256.15M511.556 119.607L503.244 133.222" stroke="#42679F" stroke-opacity="0.1" stroke-width="15" stroke-linecap="round" stroke-linejoin="round"/>
</g>
<g clip-path="url(#clip9_183_25)">
<path d="M279.27 174.84L277.814 178.564M237.345 177.77L248.516 182.137L240.747 185.539L237.345 177.77Z" stroke="#42679F" stroke-opacity="0.1" stroke-width="15" stroke-linecap="round" stroke-linejoin="round"/>
<path d="M201.041 120.629C195.814 127.865 191.527 135.735 188.281 144.05C176.137 175.121 196.2 202.469 229.103 215.329C262.007 228.19 295.297 221.696 307.441 190.625C310.667 182.262 312.675 173.479 313.402 164.546M219.69 151.553L218.234 155.277" stroke="#42679F" stroke-opacity="0.1" stroke-width="15" stroke-linecap="round" stroke-linejoin="round"/>
<path d="M239.423 112.047C233.507 118.749 225.454 123.998 214.689 123.842C198.206 123.599 188.921 111.221 190.372 105.753C192.424 98.0208 218.146 60.5463 240.538 65.2635C255.794 68.4705 265.269 82.1843 261.223 92.5364C271.578 93.8269 281.416 97.7966 289.767 104.053C293.813 93.7012 311.062 90.0723 324.45 98.0606C344.106 109.778 337.598 154.763 333.863 161.837C331.221 166.84 316.004 169.64 303.724 158.642C295.707 151.456 294.13 142.444 294.327 133.506" stroke="#42679F" stroke-opacity="0.1" stroke-width="15" stroke-linecap="round" stroke-linejoin="round"/>
</g>
<g clip-path="url(#clip10_183_25)">
<path d="M1242.01 447.68C1242.01 447.68 1242.01 447.68 1240.44 437.756C1238.63 426.25 1232.64 415.409 1221.65 409.505C1204.1 400.082 1182.32 406.642 1172.9 424.192C1169.38 430.747 1168.1 437.868 1168.8 444.689C1169.93 456.283 1192.81 539.307 1192.81 539.307M1242.01 447.68C1242.01 447.68 1242.01 447.68 1251.15 443.508C1261.74 438.663 1274.09 437.662 1285.08 443.566C1302.63 452.989 1309.19 474.763 1299.77 492.313C1296.25 498.868 1291.02 503.87 1284.95 507.058C1274.66 512.521 1192.81 539.307 1192.81 539.307" stroke="#42679F" stroke-opacity="0.1" stroke-width="15" stroke-linecap="round" stroke-linejoin="round"/>
</g>
<g clip-path="url(#clip11_183_25)">
<path d="M830.752 39.0006C830.752 39.0006 830.752 39.0006 829.231 48.9331C827.459 60.4456 829.862 72.5923 838.542 81.5602C852.395 95.8744 875.132 96.2465 889.446 82.3933C894.793 77.2193 898.179 70.825 899.59 64.1155C902.039 52.7273 905.484 -33.3252 905.484 -33.3252M830.752 39.0006C830.752 39.0006 830.752 39.0006 820.775 40.1951C809.21 41.59 797.149 38.7901 788.47 29.8222C774.617 15.508 774.989 -7.22954 789.303 -21.0827C794.649 -26.2568 801.151 -29.4318 807.903 -30.6225C819.365 -32.698 905.484 -33.3252 905.484 -33.3252" stroke="#42679F" stroke-opacity="0.1" stroke-width="15" stroke-linecap="round" stroke-linejoin="round"/>
</g>
<path d="M904 405.562L988 351.844L1072 405.562M1054 393.625V483.156H922V393.625M970 435.406H1006V483.156H970V435.406Z" stroke="#42679F" stroke-opacity="0.1" stroke-width="15" stroke-linejoin="round"/>
<path d="M1099.79 108C1099.79 112.243 1101.47 116.313 1104.45 119.314C1107.44 122.314 1111.49 124 1115.71 124C1119.93 124 1123.98 122.314 1126.96 119.314C1129.95 116.313 1131.62 112.243 1131.62 108C1131.62 103.757 1129.95 99.6869 1126.96 96.6863C1123.98 93.6857 1119.93 92 1115.71 92C1111.49 92 1107.44 93.6857 1104.45 96.6863C1101.47 99.6869 1099.79 103.757 1099.79 108ZM1179.37 108C1179.37 112.243 1181.05 116.313 1184.04 119.314C1187.02 122.314 1191.07 124 1195.29 124C1199.51 124 1203.56 122.314 1206.55 119.314C1209.53 116.313 1211.21 112.243 1211.21 108C1211.21 103.757 1209.53 99.6869 1206.55 96.6863C1203.56 93.6857 1199.51 92 1195.29 92C1191.07 92 1187.02 93.6857 1184.04 96.6863C1181.05 99.6869 1179.37 103.757 1179.37 108Z" stroke="#42679F" stroke-opacity="0.1" stroke-width="15" stroke-linecap="round" stroke-linejoin="round"/>
<path d="M1099.79 108H1083.88V60M1083.88 60L1099.79 20H1171.42L1203.25 60M1083.88 60H1203.25M1203.25 60H1211.21C1215.43 60 1219.48 61.6857 1222.46 64.6863C1225.45 67.6869 1227.13 71.7565 1227.13 76V108H1211.21M1179.38 108H1131.63M1155.5 60V20" stroke="#42679F" stroke-opacity="0.1" stroke-width="15" stroke-linecap="round" stroke-linejoin="round"/>
<g clip-path="url(#clip12_183_25)">
<path d="M1438.67 253.677C1446.98 288.016 1422.4 323.432 1383.77 332.784C1345.14 342.136 1307.09 321.884 1298.78 287.545M1320.71 225.22C1329.72 217.444 1340.93 211.522 1353.67 208.437C1366.41 205.352 1379.08 205.492 1390.65 208.286" stroke="#42679F" stroke-opacity="0.1" stroke-width="15" stroke-linecap="round"/>
<path d="M1298.78 287.544L1282.3 219.496C1280.67 212.769 1287.78 207.289 1293.87 210.578L1320.66 225.037M1438.67 253.677L1422.19 185.628C1420.56 178.902 1411.74 177.278 1407.82 182.989L1390.61 208.103" stroke="#42679F" stroke-opacity="0.1" stroke-width="15" stroke-linecap="round" stroke-linejoin="round"/>
<path d="M1390.15 257.194C1394.45 256.155 1397.08 251.833 1396.04 247.541C1395 243.249 1390.68 240.612 1386.39 241.651C1382.1 242.69 1379.46 247.012 1380.5 251.304C1381.54 255.596 1385.86 258.233 1390.15 257.194Z" fill="#42679F" fill-opacity="0.1"/>
<path d="M1343.52 268.484C1347.82 267.444 1350.45 263.123 1349.41 258.83C1348.37 254.538 1344.05 251.901 1339.76 252.94C1335.47 253.979 1332.83 258.301 1333.87 262.593C1334.91 266.886 1339.23 269.523 1343.52 268.484Z" fill="#42679F" fill-opacity="0.1"/>
<path d="M1372.48 286.154C1376.78 285.115 1379.41 280.793 1378.37 276.501C1377.33 272.209 1373.01 269.572 1368.72 270.611C1364.43 271.65 1361.79 275.972 1362.83 280.264C1363.87 284.556 1368.19 287.193 1372.48 286.154Z" fill="#42679F" fill-opacity="0.1"/>
<path d="M1341.4 293.68L1295.71 308.855M1357.76 310.287L1316.77 344.891M1403.57 278.628L1451.14 271.224M1396.62 300.879L1448.89 312.905" stroke="#42679F" stroke-opacity="0.1" stroke-width="15" stroke-linecap="round" stroke-linejoin="round"/>
</g>
<g clip-path="url(#clip13_183_25)">
<path d="M1142.4 291.982C1159.58 287.827 1170.14 270.533 1165.98 253.355C1161.83 236.178 1144.53 225.62 1127.36 229.775C1110.18 233.93 1099.62 251.224 1103.78 268.401C1107.93 285.579 1125.22 296.136 1142.4 291.982Z" stroke="#42679F" stroke-opacity="0.1" stroke-width="15" stroke-linecap="round" stroke-linejoin="round"/>
<path d="M1116.07 183.121L1119.83 198.672M1149.92 323.085L1153.69 338.636M1066.61 219.201L1080.22 227.513M1189.53 294.244L1203.15 302.556M1057.12 279.686L1072.67 275.924M1197.08 245.832L1212.64 242.071M1101.51 315.534L1093.2 329.15M1176.56 192.607L1168.24 206.222" stroke="#42679F" stroke-opacity="0.1" stroke-width="15" stroke-linecap="round" stroke-linejoin="round"/>
</g>
<g clip-path="url(#clip14_183_25)">
<path d="M944.27 247.84L942.814 251.564M902.344 250.77L913.516 255.137L905.747 258.539L902.344 250.77Z" stroke="#42679F" stroke-opacity="0.1" stroke-width="15" stroke-linecap="round" stroke-linejoin="round"/>
<path d="M866.041 193.629C860.814 200.865 856.527 208.735 853.281 217.05C841.136 248.121 861.2 275.469 894.103 288.329C927.006 301.19 960.297 294.696 972.441 263.625C975.667 255.262 977.675 246.479 978.402 237.546M884.689 224.553L883.234 228.277" stroke="#42679F" stroke-opacity="0.1" stroke-width="15" stroke-linecap="round" stroke-linejoin="round"/>
<path d="M904.423 185.047C898.507 191.749 890.454 196.998 879.689 196.842C863.206 196.599 853.921 184.221 855.372 178.753C857.423 171.021 883.146 133.546 905.538 138.263C920.794 141.47 930.269 155.184 926.223 165.536C936.577 166.827 946.416 170.797 954.766 177.053C958.813 166.701 976.062 163.072 989.449 171.061C1009.11 182.778 1002.6 227.763 998.863 234.837C996.221 239.84 981.004 242.64 968.724 231.642C960.707 224.456 959.13 215.444 959.326 206.506" stroke="#42679F" stroke-opacity="0.1" stroke-width="15" stroke-linecap="round" stroke-linejoin="round"/>
</g>
<g clip-path="url(#clip15_183_25)">
<path d="M1323.37 1029.41C1323.37 1029.41 1323.37 1029.41 1314.65 1024.43C1304.55 1018.63 1292.35 1016.51 1280.86 1021.38C1262.52 1029.17 1254 1050.25 1261.78 1068.59C1264.69 1075.44 1269.44 1080.89 1275.19 1084.62C1284.94 1091 1364 1125.15 1364 1125.15M1323.37 1029.41C1323.37 1029.41 1323.37 1029.41 1325.84 1019.68C1328.7 1008.38 1335.65 998.134 1347.14 993.259C1365.47 985.478 1386.56 993.999 1394.34 1012.34C1397.25 1019.18 1397.87 1026.39 1396.56 1033.12C1394.37 1044.56 1364 1125.15 1364 1125.15" stroke="#42679F" stroke-opacity="0.1" stroke-width="15" stroke-linecap="round" stroke-linejoin="round"/>
</g>
<path d="M1008 1020.56L1092 966.844L1176 1020.56M1158 1008.62V1098.16H1026V1008.62M1074 1050.41H1110V1098.16H1074V1050.41Z" stroke="#42679F" stroke-opacity="0.1" stroke-width="15" stroke-linejoin="round"/>
<path d="M1154.79 694C1154.79 698.243 1156.47 702.313 1159.45 705.314C1162.44 708.314 1166.49 710 1170.71 710C1174.93 710 1178.98 708.314 1181.96 705.314C1184.95 702.313 1186.62 698.243 1186.62 694C1186.62 689.757 1184.95 685.687 1181.96 682.686C1178.98 679.686 1174.93 678 1170.71 678C1166.49 678 1162.44 679.686 1159.45 682.686C1156.47 685.687 1154.79 689.757 1154.79 694ZM1234.37 694C1234.37 698.243 1236.05 702.313 1239.04 705.314C1242.02 708.314 1246.07 710 1250.29 710C1254.51 710 1258.56 708.314 1261.55 705.314C1264.53 702.313 1266.21 698.243 1266.21 694C1266.21 689.757 1264.53 685.687 1261.55 682.686C1258.56 679.686 1254.51 678 1250.29 678C1246.07 678 1242.02 679.686 1239.04 682.686C1236.05 685.687 1234.37 689.757 1234.37 694Z" stroke="#42679F" stroke-opacity="0.1" stroke-width="15" stroke-linecap="round" stroke-linejoin="round"/>
<path d="M1154.79 694H1138.88V646M1138.88 646L1154.79 606H1226.42L1258.25 646M1138.88 646H1258.25M1258.25 646H1266.21C1270.43 646 1274.48 647.686 1277.46 650.686C1280.45 653.687 1282.13 657.757 1282.13 662V694H1266.21M1234.38 694H1186.63M1210.5 646V606" stroke="#42679F" stroke-opacity="0.1" stroke-width="15" stroke-linecap="round" stroke-linejoin="round"/>
<g clip-path="url(#clip16_183_25)">
<path d="M1542.67 868.677C1550.98 903.016 1526.4 938.432 1487.77 947.784C1449.14 957.136 1411.09 936.884 1402.78 902.545M1424.71 840.22C1433.72 832.444 1444.93 826.522 1457.67 823.437C1470.41 820.352 1483.08 820.492 1494.65 823.286" stroke="#42679F" stroke-opacity="0.1" stroke-width="15" stroke-linecap="round"/>
<path d="M1402.78 902.544L1386.3 834.495C1384.67 827.769 1391.78 822.289 1397.87 825.578L1424.66 840.037M1542.67 868.676L1526.19 800.627C1524.56 793.901 1515.74 792.278 1511.82 797.989L1494.61 823.103" stroke="#42679F" stroke-opacity="0.1" stroke-width="15" stroke-linecap="round" stroke-linejoin="round"/>
<path d="M1494.15 872.194C1498.45 871.155 1501.08 866.833 1500.04 862.541C1499 858.249 1494.68 855.612 1490.39 856.651C1486.1 857.69 1483.46 862.012 1484.5 866.304C1485.54 870.596 1489.86 873.233 1494.15 872.194Z" fill="#42679F" fill-opacity="0.1"/>
<path d="M1447.52 883.483C1451.82 882.444 1454.45 878.122 1453.41 873.83C1452.37 869.538 1448.05 866.901 1443.76 867.94C1439.47 868.979 1436.83 873.301 1437.87 877.593C1438.91 881.885 1443.23 884.522 1447.52 883.483Z" fill="#42679F" fill-opacity="0.1"/>
<path d="M1476.48 901.154C1480.78 900.115 1483.41 895.793 1482.37 891.501C1481.33 887.209 1477.01 884.572 1472.72 885.611C1468.43 886.65 1465.79 890.972 1466.83 895.264C1467.87 899.556 1472.19 902.193 1476.48 901.154Z" fill="#42679F" fill-opacity="0.1"/>
<path d="M1445.4 908.68L1399.71 923.855M1461.76 925.286L1420.77 959.891M1507.57 893.627L1555.14 886.224M1500.62 915.879L1552.89 927.904" stroke="#42679F" stroke-opacity="0.1" stroke-width="15" stroke-linecap="round" stroke-linejoin="round"/>
</g>
<g clip-path="url(#clip17_183_25)">
<path d="M1246.4 906.982C1263.58 902.827 1274.14 885.534 1269.98 868.356C1265.83 851.178 1248.53 840.621 1231.36 844.776C1214.18 848.931 1203.62 866.224 1207.78 883.402C1211.93 900.58 1229.22 911.137 1246.4 906.982Z" stroke="#42679F" stroke-opacity="0.1" stroke-width="15" stroke-linecap="round" stroke-linejoin="round"/>
<path d="M1220.07 798.121L1223.83 813.673M1253.92 938.085L1257.69 953.637M1170.61 834.201L1184.22 842.513M1293.53 909.245L1307.15 917.557M1161.12 894.687L1176.67 890.925M1301.08 860.833L1316.64 857.071M1205.51 930.535L1197.2 944.151M1280.56 807.607L1272.24 821.223" stroke="#42679F" stroke-opacity="0.1" stroke-width="15" stroke-linecap="round" stroke-linejoin="round"/>
</g>
<g clip-path="url(#clip18_183_25)">
<path d="M1048.27 862.84L1046.81 866.563M1006.34 865.77L1017.52 870.136L1009.75 873.538L1006.34 865.77Z" stroke="#42679F" stroke-opacity="0.1" stroke-width="15" stroke-linecap="round" stroke-linejoin="round"/>
<path d="M970.041 808.629C964.814 815.865 960.527 823.735 957.281 832.05C945.136 863.121 965.2 890.469 998.103 903.329C1031.01 916.19 1064.3 909.696 1076.44 878.625C1079.67 870.262 1081.67 861.479 1082.4 852.546M988.689 839.553L987.234 843.277" stroke="#42679F" stroke-opacity="0.1" stroke-width="15" stroke-linecap="round" stroke-linejoin="round"/>
<path d="M1008.42 800.047C1002.51 806.749 994.454 811.998 983.689 811.842C967.206 811.599 957.921 799.221 959.372 793.753C961.423 786.021 987.146 748.546 1009.54 753.263C1024.79 756.47 1034.27 770.184 1030.22 780.536C1040.58 781.827 1050.42 785.797 1058.77 792.053C1062.81 781.701 1080.06 778.072 1093.45 786.061C1113.11 797.778 1106.6 842.763 1102.86 849.837C1100.22 854.84 1085 857.64 1072.72 846.642C1064.71 839.456 1063.13 830.444 1063.33 821.506" stroke="#42679F" stroke-opacity="0.1" stroke-width="15" stroke-linecap="round" stroke-linejoin="round"/>
</g>
<g clip-path="url(#clip19_183_25)">
<path d="M1483.27 469.84L1481.81 473.564M1441.34 472.77L1452.52 477.137L1444.75 480.539L1441.34 472.77Z" stroke="#42679F" stroke-opacity="0.1" stroke-width="15" stroke-linecap="round" stroke-linejoin="round"/>
<path d="M1405.04 415.629C1399.81 422.865 1395.53 430.735 1392.28 439.05C1380.14 470.121 1400.2 497.469 1433.1 510.329C1466.01 523.19 1499.3 516.696 1511.44 485.625C1514.67 477.262 1516.67 468.479 1517.4 459.546M1423.69 446.553L1422.23 450.277" stroke="#42679F" stroke-opacity="0.1" stroke-width="15" stroke-linecap="round" stroke-linejoin="round"/>
<path d="M1443.42 407.047C1437.51 413.749 1429.45 418.998 1418.69 418.842C1402.21 418.599 1392.92 406.221 1394.37 400.753C1396.42 393.021 1422.15 355.546 1444.54 360.263C1459.79 363.47 1469.27 377.184 1465.22 387.536C1475.58 388.827 1485.42 392.797 1493.77 399.053C1497.81 388.701 1515.06 385.072 1528.45 393.061C1548.11 404.778 1541.6 449.763 1537.86 456.837C1535.22 461.84 1520 464.64 1507.72 453.642C1499.71 446.456 1498.13 437.444 1498.33 428.506" stroke="#42679F" stroke-opacity="0.1" stroke-width="15" stroke-linecap="round" stroke-linejoin="round"/>
</g>
<g clip-path="url(#clip20_183_25)">
<path d="M1205.27 1266.84L1203.81 1270.56M1163.34 1269.77L1174.52 1274.14L1166.75 1277.54L1163.34 1269.77Z" stroke="#42679F" stroke-opacity="0.1" stroke-width="15" stroke-linecap="round" stroke-linejoin="round"/>
<path d="M1127.04 1212.63C1121.81 1219.86 1117.53 1227.73 1114.28 1236.05C1102.14 1267.12 1122.2 1294.47 1155.1 1307.33C1188.01 1320.19 1221.3 1313.7 1233.44 1282.62C1236.67 1274.26 1238.67 1265.48 1239.4 1256.55M1145.69 1243.55L1144.23 1247.28" stroke="#42679F" stroke-opacity="0.1" stroke-width="15" stroke-linecap="round" stroke-linejoin="round"/>
<path d="M1165.42 1204.05C1159.51 1210.75 1151.45 1216 1140.69 1215.84C1124.21 1215.6 1114.92 1203.22 1116.37 1197.75C1118.42 1190.02 1144.15 1152.55 1166.54 1157.26C1181.79 1160.47 1191.27 1174.18 1187.22 1184.54C1197.58 1185.83 1207.42 1189.8 1215.77 1196.05C1219.81 1185.7 1237.06 1182.07 1250.45 1190.06C1270.11 1201.78 1263.6 1246.76 1259.86 1253.84C1257.22 1258.84 1242 1261.64 1229.72 1250.64C1221.71 1243.46 1220.13 1234.44 1220.33 1225.51" stroke="#42679F" stroke-opacity="0.1" stroke-width="15" stroke-linecap="round" stroke-linejoin="round"/>
</g>
<path d="M767.792 1023C767.792 1027.24 769.469 1031.31 772.454 1034.31C775.438 1037.31 779.487 1039 783.708 1039C787.93 1039 791.978 1037.31 794.963 1034.31C797.948 1031.31 799.625 1027.24 799.625 1023C799.625 1018.76 797.948 1014.69 794.963 1011.69C791.978 1008.69 787.93 1007 783.708 1007C779.487 1007 775.438 1008.69 772.454 1011.69C769.469 1014.69 767.792 1018.76 767.792 1023ZM847.375 1023C847.375 1027.24 849.052 1031.31 852.037 1034.31C855.022 1037.31 859.07 1039 863.292 1039C867.513 1039 871.561 1037.31 874.546 1034.31C877.531 1031.31 879.208 1027.24 879.208 1023C879.208 1018.76 877.531 1014.69 874.546 1011.69C871.561 1008.69 867.513 1007 863.292 1007C859.07 1007 855.022 1008.69 852.037 1011.69C849.052 1014.69 847.375 1018.76 847.375 1023Z" stroke="#42679F" stroke-opacity="0.1" stroke-width="15" stroke-linecap="round" stroke-linejoin="round"/>
<path d="M767.792 1023H751.875V975M751.875 975L767.792 935H839.417L871.25 975M751.875 975H871.25M871.25 975H879.208C883.43 975 887.478 976.686 890.463 979.686C893.448 982.687 895.125 986.757 895.125 991V1023H879.208M847.375 1023H799.625M823.5 975V935" stroke="#42679F" stroke-opacity="0.1" stroke-width="15" stroke-linecap="round" stroke-linejoin="round"/>
<path d="M1445.79 1207C1445.79 1211.24 1447.47 1215.31 1450.45 1218.31C1453.44 1221.31 1457.49 1223 1461.71 1223C1465.93 1223 1469.98 1221.31 1472.96 1218.31C1475.95 1215.31 1477.62 1211.24 1477.62 1207C1477.62 1202.76 1475.95 1198.69 1472.96 1195.69C1469.98 1192.69 1465.93 1191 1461.71 1191C1457.49 1191 1453.44 1192.69 1450.45 1195.69C1447.47 1198.69 1445.79 1202.76 1445.79 1207ZM1525.37 1207C1525.37 1211.24 1527.05 1215.31 1530.04 1218.31C1533.02 1221.31 1537.07 1223 1541.29 1223C1545.51 1223 1549.56 1221.31 1552.55 1218.31C1555.53 1215.31 1557.21 1211.24 1557.21 1207C1557.21 1202.76 1555.53 1198.69 1552.55 1195.69C1549.56 1192.69 1545.51 1191 1541.29 1191C1537.07 1191 1533.02 1192.69 1530.04 1195.69C1527.05 1198.69 1525.37 1202.76 1525.37 1207Z" stroke="#42679F" stroke-opacity="0.1" stroke-width="15" stroke-linecap="round" stroke-linejoin="round"/>
<path d="M1445.79 1207H1429.88V1159M1429.88 1159L1445.79 1119H1517.42L1549.25 1159M1429.88 1159H1549.25M1549.25 1159H1557.21C1561.43 1159 1565.48 1160.69 1568.46 1163.69C1571.45 1166.69 1573.13 1170.76 1573.13 1175V1207H1557.21M1525.38 1207H1477.63M1501.5 1159V1119" stroke="#42679F" stroke-opacity="0.1" stroke-width="15" stroke-linecap="round" stroke-linejoin="round"/>
<g clip-path="url(#clip21_183_25)">
<path d="M979.665 1201.68C987.979 1236.02 963.402 1271.43 924.773 1280.78C886.143 1290.14 848.089 1269.88 839.775 1235.54M861.709 1173.22C870.719 1165.44 881.926 1159.52 894.668 1156.44C907.41 1153.35 920.085 1153.49 931.654 1156.29" stroke="#42679F" stroke-opacity="0.1" stroke-width="15" stroke-linecap="round"/>
<path d="M839.775 1235.54L823.3 1167.5C821.672 1160.77 828.778 1155.29 834.868 1158.58L861.664 1173.04M979.665 1201.68L963.191 1133.63C961.562 1126.9 952.736 1125.28 948.825 1130.99L931.609 1156.1" stroke="#42679F" stroke-opacity="0.1" stroke-width="15" stroke-linecap="round" stroke-linejoin="round"/>
<path d="M931.154 1205.19C935.446 1204.15 938.083 1199.83 937.044 1195.54C936.005 1191.25 931.683 1188.61 927.391 1189.65C923.098 1190.69 920.461 1195.01 921.5 1199.3C922.54 1203.6 926.861 1206.23 931.154 1205.19Z" fill="#42679F" fill-opacity="0.1"/>
<path d="M884.524 1216.48C888.816 1215.44 891.453 1211.12 890.414 1206.83C889.375 1202.54 885.053 1199.9 880.76 1200.94C876.468 1201.98 873.831 1206.3 874.87 1210.59C875.909 1214.89 880.231 1217.52 884.524 1216.48Z" fill="#42679F" fill-opacity="0.1"/>
<path d="M913.483 1234.15C917.775 1233.11 920.413 1228.79 919.373 1224.5C918.334 1220.21 914.012 1217.57 909.72 1218.61C905.428 1219.65 902.791 1223.97 903.83 1228.26C904.869 1232.56 909.191 1235.19 913.483 1234.15Z" fill="#42679F" fill-opacity="0.1"/>
<path d="M882.397 1241.68L836.707 1256.85M898.758 1258.29L857.772 1292.89M944.57 1226.63L992.141 1219.22M937.616 1248.88L989.891 1260.9" stroke="#42679F" stroke-opacity="0.1" stroke-width="15" stroke-linecap="round" stroke-linejoin="round"/>
</g>
<g clip-path="url(#clip22_183_25)">
<path d="M670.402 1202.98C687.579 1198.83 698.136 1181.53 693.982 1164.36C689.827 1147.18 672.533 1136.62 655.355 1140.78C638.178 1144.93 627.62 1162.22 631.775 1179.4C635.93 1196.58 653.224 1207.14 670.402 1202.98Z" stroke="#42679F" stroke-opacity="0.1" stroke-width="15" stroke-linecap="round" stroke-linejoin="round"/>
<path d="M644.071 1094.12L647.832 1109.67M677.925 1234.09L681.686 1249.64M594.607 1130.2L608.222 1138.51M717.535 1205.24L731.15 1213.56M585.121 1190.69L600.672 1186.92M725.085 1156.83L740.636 1153.07M629.513 1226.53L621.201 1240.15M704.556 1103.61L696.244 1117.22" stroke="#42679F" stroke-opacity="0.1" stroke-width="15" stroke-linecap="round" stroke-linejoin="round"/>
</g>
<g clip-path="url(#clip23_183_25)">
<path d="M472.27 1158.84L470.814 1162.56M430.345 1161.77L441.516 1166.14L433.747 1169.54L430.345 1161.77Z" stroke="#42679F" stroke-opacity="0.1" stroke-width="15" stroke-linecap="round" stroke-linejoin="round"/>
<path d="M394.041 1104.63C388.814 1111.86 384.527 1119.73 381.281 1128.05C369.137 1159.12 389.2 1186.47 422.103 1199.33C455.007 1212.19 488.297 1205.7 500.441 1174.62C503.667 1166.26 505.675 1157.48 506.402 1148.55M412.69 1135.55L411.234 1139.28" stroke="#42679F" stroke-opacity="0.1" stroke-width="15" stroke-linecap="round" stroke-linejoin="round"/>
<path d="M432.423 1096.05C426.507 1102.75 418.454 1108 407.689 1107.84C391.206 1107.6 381.921 1095.22 383.372 1089.75C385.424 1082.02 411.146 1044.55 433.538 1049.26C448.794 1052.47 458.269 1066.18 454.223 1076.54C464.578 1077.83 474.416 1081.8 482.767 1088.05C486.813 1077.7 504.062 1074.07 517.45 1082.06C537.106 1093.78 530.598 1138.76 526.863 1145.84C524.221 1150.84 509.004 1153.64 496.724 1142.64C488.707 1135.46 487.13 1126.44 487.327 1117.51" stroke="#42679F" stroke-opacity="0.1" stroke-width="15" stroke-linecap="round" stroke-linejoin="round"/>
</g>
<g clip-path="url(#clip24_183_25)">
<path d="M204.373 1021.42C204.373 1021.42 204.373 1021.42 195.651 1016.43C185.545 1010.63 173.347 1008.51 161.858 1013.39C143.521 1021.17 135 1042.25 142.781 1060.59C145.688 1067.44 150.437 1072.9 156.191 1076.62C165.937 1083 244.999 1117.15 244.999 1117.15M204.373 1021.42C204.373 1021.42 204.373 1021.42 206.845 1011.68C209.7 1000.38 216.649 990.135 228.138 985.26C246.475 977.479 267.559 986 275.34 1004.34C278.246 1011.19 278.872 1018.39 277.556 1025.12C275.372 1036.57 244.999 1117.15 244.999 1117.15" stroke="#42679F" stroke-opacity="0.1" stroke-width="15" stroke-linecap="round" stroke-linejoin="round"/>
</g>
<path d="M-104 1008.56L-20 954.844L64 1008.56M46 996.625V1086.16H-86V996.625M-38 1038.41H-2V1086.16H-38V1038.41Z" stroke="#42679F" stroke-opacity="0.1" stroke-width="15" stroke-linejoin="round"/>
<path d="M91.7917 711C91.7917 715.243 93.4687 719.313 96.4536 722.314C99.4386 725.314 103.487 727 107.708 727C111.93 727 115.978 725.314 118.963 722.314C121.948 719.313 123.625 715.243 123.625 711C123.625 706.757 121.948 702.687 118.963 699.686C115.978 696.686 111.93 695 107.708 695C103.487 695 99.4386 696.686 96.4536 699.686C93.4687 702.687 91.7917 706.757 91.7917 711ZM171.375 711C171.375 715.243 173.052 719.313 176.037 722.314C179.022 725.314 183.07 727 187.292 727C191.513 727 195.562 725.314 198.547 722.314C201.531 719.313 203.208 715.243 203.208 711C203.208 706.757 201.531 702.687 198.547 699.686C195.562 696.686 191.513 695 187.292 695C183.07 695 179.022 696.686 176.037 699.686C173.052 702.687 171.375 706.757 171.375 711Z" stroke="#42679F" stroke-opacity="0.1" stroke-width="15" stroke-linecap="round" stroke-linejoin="round"/>
<path d="M91.7917 711H75.875V663M75.875 663L91.7917 623H163.417L195.25 663M75.875 663H195.25M195.25 663H203.208C207.43 663 211.478 664.686 214.463 667.686C217.448 670.687 219.125 674.757 219.125 679V711H203.208M171.375 711H123.625M147.5 663V623" stroke="#42679F" stroke-opacity="0.1" stroke-width="15" stroke-linecap="round" stroke-linejoin="round"/>
<g clip-path="url(#clip25_183_25)">
<path d="M430.665 777.676C438.979 812.015 414.402 847.431 375.772 856.784C337.143 866.136 299.089 845.883 290.775 811.544M312.708 749.219C321.719 741.443 332.926 735.522 345.668 732.437C358.409 729.352 371.084 729.492 382.654 732.286" stroke="#42679F" stroke-opacity="0.1" stroke-width="15" stroke-linecap="round"/>
<path d="M290.775 811.544L274.3 743.495C272.672 736.769 279.778 731.289 285.868 734.578L312.664 749.037M430.665 777.676L414.191 709.627C412.562 702.901 403.736 701.278 399.825 706.989L382.609 732.103" stroke="#42679F" stroke-opacity="0.1" stroke-width="15" stroke-linecap="round" stroke-linejoin="round"/>
<path d="M382.154 781.194C386.446 780.154 389.083 775.833 388.044 771.54C387.005 767.248 382.683 764.611 378.391 765.65C374.098 766.689 371.461 771.011 372.5 775.303C373.54 779.596 377.861 782.233 382.154 781.194Z" fill="#42679F" fill-opacity="0.1"/>
<path d="M335.524 792.483C339.816 791.444 342.453 787.122 341.414 782.83C340.375 778.538 336.053 775.901 331.76 776.94C327.468 777.979 324.831 782.301 325.87 786.593C326.909 790.885 331.231 793.522 335.524 792.483Z" fill="#42679F" fill-opacity="0.1"/>
<path d="M364.483 810.153C368.775 809.114 371.413 804.792 370.373 800.5C369.334 796.208 365.012 793.571 360.72 794.61C356.428 795.649 353.791 799.971 354.83 804.263C355.869 808.555 360.191 811.192 364.483 810.153Z" fill="#42679F" fill-opacity="0.1"/>
<path d="M333.396 817.68L287.707 832.855M349.758 834.286L308.772 868.891M395.57 802.627L443.141 795.224M388.616 824.879L440.891 836.904" stroke="#42679F" stroke-opacity="0.1" stroke-width="15" stroke-linecap="round" stroke-linejoin="round"/>
</g>
<g clip-path="url(#clip26_183_25)">
<path d="M134.401 894.982C151.579 890.827 162.136 873.534 157.981 856.356C153.827 839.178 136.533 828.621 119.355 832.776C102.178 836.931 91.6204 854.224 95.7752 871.402C99.9301 888.58 117.224 899.137 134.401 894.982Z" stroke="#42679F" stroke-opacity="0.1" stroke-width="15" stroke-linecap="round" stroke-linejoin="round"/>
<path d="M108.071 786.121L111.832 801.673M141.924 926.085L145.686 941.637M58.6066 822.201L72.2224 830.513M181.534 897.245L195.15 905.557M49.1206 882.687L64.6721 878.925M189.085 848.833L204.636 845.071M93.5126 918.535L85.2006 932.151M168.556 795.607L160.244 809.223" stroke="#42679F" stroke-opacity="0.1" stroke-width="15" stroke-linecap="round" stroke-linejoin="round"/>
</g>
<g clip-path="url(#clip27_183_25)">
<path d="M-103.577 788.047C-109.493 794.749 -117.546 799.998 -128.311 799.842C-144.794 799.599 -154.079 787.221 -152.628 781.753C-150.576 774.021 -124.854 736.546 -102.462 741.263C-87.2058 744.47 -77.7306 758.184 -81.7767 768.536C-71.4224 769.827 -61.5839 773.797 -53.2334 780.053C-49.1873 769.701 -31.9376 766.072 -18.5504 774.061C1.10585 785.778 -5.40162 830.763 -9.13664 837.837C-11.7788 842.84 -26.9962 845.64 -39.2757 834.642C-47.2931 827.456 -48.8701 818.444 -48.6735 809.506" stroke="#42679F" stroke-opacity="0.1" stroke-width="15" stroke-linecap="round" stroke-linejoin="round"/>
</g>
<path d="M314.675 500.6C314.675 500.6 314.675 500.6 312.315 491.066C309.59 480.012 302.76 469.932 291.328 465.045C273.081 457.244 251.901 465.324 243.909 483.134C240.924 489.786 240.216 496.815 241.455 503.397C243.507 514.589 272.952 593.584 272.952 593.584M314.675 500.6C314.675 500.6 314.675 500.6 323.454 495.828C333.626 490.288 345.848 488.352 357.28 493.239C375.526 501.039 383.804 521.713 375.813 539.523C372.828 546.175 368.016 551.449 362.22 555.024C352.401 561.141 272.952 593.584 272.952 593.584" stroke="#42679F" stroke-opacity="0.1" stroke-width="15" stroke-linecap="round" stroke-linejoin="round"/>
<path d="M-16.6563 557.931C4.55392 555.998 21.8474 539.118 21.9699 520.229C22.0924 501.34 4.9974 487.594 -16.2128 489.527C-37.4229 491.46 -54.7165 508.34 -54.8389 527.229C-54.9614 546.118 -37.8664 559.864 -16.6563 557.931Z" stroke="#42679F" stroke-opacity="0.1" stroke-width="15" stroke-linecap="round" stroke-linejoin="round"/>
<path d="M-15.8801 438.224L-15.9909 455.325M-16.8779 592.133L-16.9888 609.234M-83.9223 469.463L-70.4629 480.286M37.5941 567.173L51.0534 577.995M-112.445 532.479L-93.2433 530.729M60.3744 516.729L79.5766 514.979M-71.0904 577.078L-84.7062 590.368M51.8373 457.091L38.2216 470.381" stroke="#42679F" stroke-opacity="0.1" stroke-width="15" stroke-linecap="round" stroke-linejoin="round"/>
<path d="M-19.0833 144.773C-19.0833 149.392 -17.4063 153.822 -14.4214 157.088C-11.4364 160.354 -7.38795 162.189 -3.16659 162.189C1.05478 162.189 5.10324 160.354 8.08819 157.088C11.0731 153.822 12.7501 149.392 12.7501 144.773C12.7501 140.154 11.0731 135.724 8.08819 132.458C5.10324 129.191 1.05478 127.356 -3.16659 127.356C-7.38795 127.356 -11.4364 129.191 -14.4214 132.458C-17.4063 135.724 -19.0833 140.154 -19.0833 144.773ZM60.5001 144.773C60.5001 149.392 62.177 153.822 65.162 157.088C68.1469 160.354 72.1954 162.189 76.4167 162.189C80.6381 162.189 84.6866 160.354 87.6715 157.088C90.6565 153.822 92.3334 149.392 92.3334 144.773C92.3334 140.154 90.6565 135.724 87.6715 132.458C84.6866 129.191 80.6381 127.356 76.4167 127.356C72.1954 127.356 68.1469 129.191 65.162 132.458C62.177 135.724 60.5001 140.154 60.5001 144.773Z" stroke="#42679F" stroke-opacity="0.1" stroke-width="15" stroke-linecap="round" stroke-linejoin="round"/>
<path d="M-19.0833 144.773H-35V92.5241M-35 92.5241L-19.0833 48.9834H52.5417L84.375 92.5241M-35 92.5241H84.375M84.375 92.5241H92.3333C96.5547 92.5241 100.603 94.359 103.588 97.6252C106.573 100.891 108.25 105.321 108.25 109.94V144.773H92.3333M60.5 144.773H12.75M36.625 92.5241V48.9834" stroke="#42679F" stroke-opacity="0.1" stroke-width="15" stroke-linecap="round" stroke-linejoin="round"/>
<path d="M164.176 1244.6L166.091 1248.02M139.729 1281.16L150.171 1274.46L147.823 1282.93L139.729 1281.16Z" stroke="#42679F" stroke-opacity="0.1" stroke-width="15" stroke-linecap="round" stroke-linejoin="round"/>
<path d="M75.3189 1277.85C77.5051 1286.49 80.7695 1294.72 85.0339 1302.34C100.959 1330.86 134.496 1330.37 165.165 1310.6C195.834 1290.84 212.027 1259.28 196.102 1230.77C191.789 1223.13 186.383 1216.25 180.049 1210.36M110.679 1280.65L112.587 1284.07" stroke="#42679F" stroke-opacity="0.1" stroke-width="15" stroke-linecap="round" stroke-linejoin="round"/>
<path d="M81.9786 1248.67C83.2582 1257.72 82.1405 1267.72 75.3514 1276.76C64.9522 1290.6 50.0583 1291.04 46.9207 1286.52C42.4851 1280.12 30.7681 1235.74 48.1335 1219.58C59.9595 1208.56 75.9579 1208.76 81.0914 1218.43C88.4636 1210.41 97.4939 1204.45 107.29 1201.13C102.156 1191.47 110.172 1174.64 124.369 1168.08C145.206 1158.45 174.38 1191.04 177.287 1198.46C179.342 1203.72 171.974 1218.32 156.242 1222.12C145.967 1224.61 138.336 1220.52 131.86 1214.98" stroke="#42679F" stroke-opacity="0.1" stroke-width="15" stroke-linecap="round" stroke-linejoin="round"/>
<path d="M1314 21.464L1398 -37.0098L1482 21.464M1464 8.46983V105.926H1332V8.46983M1380 53.9494H1416V105.926H1380V53.9494Z" stroke="#42679F" stroke-opacity="0.1" stroke-width="15" stroke-linejoin="round"/>
<g clip-path="url(#clip28_183_25)">
<path d="M170.665 328.677C178.979 363.016 154.402 398.432 115.772 407.784C77.1433 417.136 39.0886 396.884 30.775 362.545M52.7085 300.22C61.7187 292.444 72.9261 286.522 85.6678 283.437C98.4094 280.352 111.084 280.492 122.654 283.286" stroke="#42679F" stroke-opacity="0.1" stroke-width="15" stroke-linecap="round"/>
<path d="M30.7751 362.544L14.3003 294.496C12.6719 287.769 19.778 282.289 25.8684 285.578L52.6644 300.037M170.665 328.677L154.191 260.628C152.562 253.902 143.736 252.278 139.825 257.989L122.609 283.103" stroke="#42679F" stroke-opacity="0.1" stroke-width="15" stroke-linecap="round" stroke-linejoin="round"/>
<path d="M122.154 332.194C126.446 331.155 129.083 326.833 128.044 322.541C127.005 318.249 122.683 315.612 118.391 316.651C114.098 317.69 111.461 322.012 112.5 326.304C113.54 330.596 117.861 333.233 122.154 332.194Z" fill="#42679F" fill-opacity="0.1"/>
<path d="M75.5235 343.484C79.8157 342.444 82.4528 338.123 81.4137 333.83C80.3745 329.538 76.0526 326.901 71.7604 327.94C67.4683 328.979 64.8312 333.301 65.8703 337.593C66.9095 341.886 71.2313 344.523 75.5235 343.484Z" fill="#42679F" fill-opacity="0.1"/>
<path d="M104.483 361.154C108.775 360.115 111.413 355.793 110.373 351.501C109.334 347.209 105.012 344.572 100.72 345.611C96.428 346.65 93.7909 350.972 94.83 355.264C95.8692 359.556 100.191 362.193 104.483 361.154Z" fill="#42679F" fill-opacity="0.1"/>
<path d="M73.3964 368.68L27.7071 383.855M89.7578 385.287L48.7723 419.891M135.57 353.628L183.141 346.224M128.616 375.879L180.891 387.905" stroke="#42679F" stroke-opacity="0.1" stroke-width="15" stroke-linecap="round" stroke-linejoin="round"/>
</g>
<path d="M578.477 1328.35C578.477 1328.35 578.477 1328.35 570.819 1321.6C561.947 1313.78 550.345 1309.3 538.157 1312.08C518.703 1316.52 506.459 1336.38 510.745 1356.55C512.345 1364.08 516.013 1370.54 520.985 1375.43C529.396 1383.79 600.851 1433.61 600.851 1433.61M578.477 1328.35C578.477 1328.35 578.477 1328.35 582.694 1318.89C587.573 1307.93 596.283 1298.81 608.471 1296.03C627.925 1291.58 647.088 1304.28 651.373 1324.44C652.974 1331.97 652.266 1339.43 649.738 1346.04C645.492 1357.28 600.851 1433.61 600.851 1433.61" stroke="#42679F" stroke-opacity="0.1" stroke-width="15" stroke-linecap="round" stroke-linejoin="round"/>
<path d="M944.792 1416L928.875 1416L928.875 1368M928.875 1368L944.792 1328L1016.42 1328L1048.25 1368M928.875 1368L1048.25 1368M1048.25 1368L1056.21 1368C1060.43 1368 1064.48 1369.69 1067.46 1372.69C1070.45 1375.69 1072.13 1379.76 1072.13 1384L1072.13 1416L1056.21 1416M1024.38 1416L976.625 1416M1000.5 1368L1000.5 1328" stroke="#42679F" stroke-opacity="0.1" stroke-width="15" stroke-linecap="round" stroke-linejoin="round"/>
<path d="M289.626 1310.34C288.928 1314.53 289.912 1318.82 292.363 1322.27C294.813 1325.72 298.529 1328.05 302.693 1328.74C306.856 1329.44 311.127 1328.44 314.565 1325.97C318.003 1323.5 320.327 1319.77 321.026 1315.58C321.724 1311.39 320.74 1307.1 318.289 1303.65C315.839 1300.2 312.123 1297.87 307.959 1297.18C303.796 1296.48 299.525 1297.48 296.087 1299.95C292.649 1302.42 290.325 1306.15 289.626 1310.34ZM368.124 1323.44C367.426 1327.62 368.41 1331.91 370.861 1335.37C373.311 1338.82 377.027 1341.15 381.191 1341.84C385.355 1342.53 389.625 1341.54 393.063 1339.07C396.501 1336.6 398.825 1332.86 399.524 1328.68C400.222 1324.49 399.238 1320.2 396.787 1316.75C394.337 1313.3 390.621 1310.97 386.457 1310.28C382.294 1309.58 378.023 1310.58 374.585 1313.05C371.147 1315.51 368.823 1319.25 368.124 1323.44Z" stroke="#42679F" stroke-opacity="0.1" stroke-width="15" stroke-linecap="round" stroke-linejoin="round"/>
<path d="M289.626 1310.34L273.927 1307.72L281.827 1260.38M281.827 1260.38L304.11 1223.54L374.758 1235.33L399.574 1280.02M281.827 1260.38L399.574 1280.02M399.574 1280.02L407.424 1281.33C411.587 1282.03 415.303 1284.36 417.754 1287.81C420.204 1291.26 421.188 1295.55 420.49 1299.73L415.223 1331.3L399.524 1328.68M368.124 1323.44L321.026 1315.58M352.475 1272.16L359.058 1232.71" stroke="#42679F" stroke-opacity="0.1" stroke-width="15" stroke-linecap="round" stroke-linejoin="round"/>
<path d="M1314 1321.56L1398 1267.84L1482 1321.56M1464 1309.62V1399.16H1332V1309.62M1380 1351.41H1416V1399.16H1380V1351.41Z" stroke="#42679F" stroke-opacity="0.1" stroke-width="15" stroke-linejoin="round"/>
</g>
<defs>
<clipPath id="clip0_183_25">
<rect width="1517" height="1365" fill="white"/>
</clipPath>
<clipPath id="clip1_183_25">
<rect width="192" height="192" fill="white" transform="translate(683 771.001) rotate(-22.9939)"/>
</clipPath>
<clipPath id="clip2_183_25">
<rect width="191.909" height="191.909" fill="white" transform="translate(844 546.157) rotate(-13.6096)"/>
</clipPath>
<clipPath id="clip3_183_25">
<rect width="192" height="192" fill="white" transform="translate(612 562.138) rotate(-13.5972)"/>
</clipPath>
<clipPath id="clip4_183_25">
<rect width="192" height="192" fill="white" transform="translate(1310 588.138) rotate(-13.5972)"/>
</clipPath>
<clipPath id="clip5_183_25">
<rect width="191.909" height="191.909" fill="white" transform="translate(465.862 483) rotate(21.3483)"/>
</clipPath>
<clipPath id="clip6_183_25">
<rect width="192" height="192" fill="white" transform="translate(434 324.001) rotate(-22.9939)"/>
</clipPath>
<clipPath id="clip7_183_25">
<rect width="191.909" height="191.909" fill="white" transform="translate(586 119.157) rotate(-13.6096)"/>
</clipPath>
<clipPath id="clip8_183_25">
<rect width="192" height="192" fill="white" transform="translate(354 117.138) rotate(-13.5972)"/>
</clipPath>
<clipPath id="clip9_183_25">
<rect width="191.909" height="191.909" fill="white" transform="translate(200.862 24) rotate(21.3483)"/>
</clipPath>
<clipPath id="clip10_183_25">
<rect width="192" height="192" fill="white" transform="translate(1187.71 345.88) rotate(28.2333)"/>
</clipPath>
<clipPath id="clip11_183_25">
<rect width="192" height="192" fill="white" transform="translate(851.525 152.493) rotate(-134.062)"/>
</clipPath>
<clipPath id="clip12_183_25">
<rect width="191.909" height="191.909" fill="white" transform="translate(1251 192.157) rotate(-13.6096)"/>
</clipPath>
<clipPath id="clip13_183_25">
<rect width="192" height="192" fill="white" transform="translate(1019 190.138) rotate(-13.5972)"/>
</clipPath>
<clipPath id="clip14_183_25">
<rect width="191.909" height="191.909" fill="white" transform="translate(865.862 97) rotate(21.3483)"/>
</clipPath>
<clipPath id="clip15_183_25">
<rect width="192" height="192" fill="white" transform="translate(1210 1008) rotate(-22.9939)"/>
</clipPath>
<clipPath id="clip16_183_25">
<rect width="191.909" height="191.909" fill="white" transform="translate(1355 807.157) rotate(-13.6096)"/>
</clipPath>
<clipPath id="clip17_183_25">
<rect width="192" height="192" fill="white" transform="translate(1123 805.139) rotate(-13.5972)"/>
</clipPath>
<clipPath id="clip18_183_25">
<rect width="191.909" height="191.909" fill="white" transform="translate(969.862 712) rotate(21.3483)"/>
</clipPath>
<clipPath id="clip19_183_25">
<rect width="191.909" height="191.909" fill="white" transform="translate(1404.86 319) rotate(21.3483)"/>
</clipPath>
<clipPath id="clip20_183_25">
<rect width="191.909" height="191.909" fill="white" transform="translate(1126.86 1116) rotate(21.3483)"/>
</clipPath>
<clipPath id="clip21_183_25">
<rect width="191.909" height="191.909" fill="white" transform="translate(792 1140.16) rotate(-13.6096)"/>
</clipPath>
<clipPath id="clip22_183_25">
<rect width="192" height="192" fill="white" transform="translate(547 1101.14) rotate(-13.5972)"/>
</clipPath>
<clipPath id="clip23_183_25">
<rect width="191.909" height="191.909" fill="white" transform="translate(393.862 1008) rotate(21.3483)"/>
</clipPath>
<clipPath id="clip24_183_25">
<rect width="192" height="192" fill="white" transform="translate(91 1000) rotate(-22.9939)"/>
</clipPath>
<clipPath id="clip25_183_25">
<rect width="191.909" height="191.909" fill="white" transform="translate(243 716.157) rotate(-13.6096)"/>
</clipPath>
<clipPath id="clip26_183_25">
<rect width="192" height="192" fill="white" transform="translate(11 793.139) rotate(-13.5972)"/>
</clipPath>
<clipPath id="clip27_183_25">
<rect width="191.909" height="191.909" fill="white" transform="translate(-142.138 700) rotate(21.3483)"/>
</clipPath>
<clipPath id="clip28_183_25">
<rect width="191.909" height="191.909" fill="white" transform="translate(-17 267.157) rotate(-13.6096)"/>
</clipPath>
</defs>
</svg>
