<svg width="584" height="584" viewBox="0 0 584 584" fill="none" xmlns="http://www.w3.org/2000/svg">
<path d="M137.525 153.884L136.811 157.159L136.436 163.595L136.06 170.032L136.138 180.685L136.216 191.337L135.352 203.157L133.025 231.125L132.501 246.107L132.918 259.921L133.561 275.844L134.318 292.82L134.437 323.724L132.859 338.818L132.336 353.8L130.645 367.84L129.895 380.714L129.031 392.534L128.168 404.353L127.305 416.173L127.269 425.772L127.234 435.37L126.031 444.028L126.936 452.46L126.448 457.843L126.561 458.897L126.335 456.789L126.109 454.681L125.882 452.573L125.43 448.357L124.864 443.087L123.959 434.656" stroke="#42679F" stroke-width="5"/>
<path d="M119.093 389.336L117.735 376.689L117.432 363.929L117.015 350.114L117.425 334.079L117.008 320.264L117.758 307.391L118.508 294.517L118.127 271.104L117.109 261.618L116.203 253.187L116.465 245.696L115.673 238.319L114.542 227.779L114.917 221.342L114.238 215.019L113.785 210.803L113.446 207.641L112.993 203.425L112.654 200.263L112.314 197.102L112.201 196.048L112.088 194.994L113.029 193.827L114.797 190.438L114.571 188.331L114.458 187.277L114.231 185.169L114.118 184.115L115.172 184.002L115.059 182.948L114.833 180.84L115.774 179.673L116.714 178.506L116.488 176.398L116.262 174.29L118.03 170.902L117.917 169.848L118.745 167.627L118.632 166.573L118.292 163.411" stroke="#42679F" stroke-width="5"/>
<path d="M118.179 162.357L119.947 158.969L119.608 155.807L120.549 154.64L120.436 153.586L120.322 152.532L124.538 152.079L125.592 151.966L128.641 150.573L132.857 150.12L139.18 149.441L148.666 148.423L160.259 147.178L175.014 145.594L193.985 143.558L214.01 141.408L238.251 138.805L260.384 136.429L283.571 133.94L319.292 129.039L333.934 126.401L346.468 123.989L355.727 120.863L363.105 120.071L368.374 119.505L369.428 119.392L370.482 119.279L367.207 118.564L363.819 116.796L359.49 116.194L353.166 116.873L344.735 117.778L332.915 116.915L320.268 118.273L304.459 119.97L287.596 121.781L265.463 124.157L241.222 126.759L215.927 129.475L190.633 132.191L167.446 134.68L147.421 136.83L129.504 138.753L114.749 140.337L103.156 141.582M103.156 141.582L94.724 142.487L93.67 142.6L95.7779 142.374L98.9397 142.035L103.156 141.582ZM103.156 141.582L110.533 140.79L132.666 138.414L149.529 136.603L172.716 134.114L201.172 131.059L229.629 128.004L258.085 124.949L290.757 121.441L319.214 118.386L345.563 115.557L367.695 113.181L388.774 110.918L403.529 109.334L416.177 107.976L424.608 107.071L425.662 106.958L425.775 108.012L425.889 109.066L425.174 112.341L425.287 113.395L423.292 114.675L423.745 118.891L423.031 122.166L422.316 125.441L422.542 127.549L421.828 130.824L421.453 137.26L422.245 144.638L422.096 153.183L421.947 161.727L420.971 172.493L422.103 183.033L423.46 195.68L425.044 210.435L426.515 224.136L429.684 253.647L431.268 268.402L432.852 283.157L434.436 297.913L435.907 311.614L437.378 325.315L438.849 339.016L440.207 351.664L441.451 363.257L442.696 374.85M442.696 374.85L444.054 387.498L445.411 400.145L446.543 410.684L447.788 422.278L448.806 431.763L449.938 442.303M442.696 374.85L444.167 388.552L445.638 402.253L446.996 414.9L448.24 426.494L449.259 435.979L449.938 442.303M442.696 374.85L442.053 358.928L443.517 342.779L441.933 328.024L443.058 308.714L442.528 293.845L441.885 277.923L442.218 251.235L440.973 239.642L440.782 227.935L441.872 218.223L440.854 208.738L439.722 198.199L438.817 189.767L438.138 183.443L437.685 179.228L437.12 173.958L436.667 169.742L436.441 167.634L435.988 163.418L435.875 162.364L435.649 160.257L435.422 158.149L435.196 156.041L435.083 154.987L434.743 151.825L434.517 149.717L434.178 146.555L434.065 145.501L433.951 144.447L433.838 143.393L433.725 142.34L432.671 142.453L431.844 144.674L432.07 146.782L431.242 149.003L430.415 151.224L428.759 155.666L428.158 159.995L428.611 164.21L428.235 170.647L427.86 177.084L426.771 186.796L426.735 196.394L426.402 223.083L427.873 236.784L427.236 250.711L428.707 264.413L430.065 277.06L431.423 289.707L432.781 302.355L433.912 312.894L435.044 323.433L435.949 331.865L436.854 340.297L436.705 348.841L436.33 355.278L436.896 360.548L437.575 366.871L438.028 371.087L438.593 376.357L439.046 380.573L439.498 384.788L440.517 394.274L440.969 398.49L441.422 402.706L441.875 406.921L442.214 410.083L442.667 414.299L443.119 418.515L442.292 420.736L442.631 423.898L442.971 427.059L443.423 431.275L442.482 432.442L442.709 434.55L442.822 435.604L442.935 436.658L443.048 437.712L441.167 440.046L436.951 440.499L433.789 440.838L431.681 441.064L426.411 441.63L415.872 442.762L405.332 443.893L390.577 445.477L373.714 447.288L356.851 449.098L335.772 451.361L318.909 453.172L302.046 454.982L268.32 458.603L255.672 459.961L243.025 461.318L230.378 462.676L218.784 463.921L197.706 466.184M449.938 442.303L450.616 448.626L450.73 449.68L450.503 447.572L450.277 445.465L449.938 442.303ZM197.706 466.184L188.22 467.202L179.788 468.107L172.411 468.899L167.254 470.519L165.26 471.799L163.265 473.08L161.383 475.414L158.448 477.861L153.404 480.535L151.296 480.761L147.307 483.322L145.312 484.602L142.15 484.941L137.935 485.394L134.773 485.733M197.706 466.184L198.759 466.071L199.813 465.958L200.867 465.844L201.921 465.731L204.029 465.505L205.083 465.392L207.078 464.112L210.127 462.718L211.18 462.605L217.504 461.926L225.936 461.021L235.421 460.003L247.015 458.758L259.662 457.4L274.417 455.816L292.334 453.892L312.359 451.743L329.222 449.932L348.419 450.003L365.283 448.193L382.485 449.544L396.3 449.127L409.173 449.877L420.993 450.741L429.538 450.889L435.974 451.264L440.19 450.812L444.519 451.413M197.706 466.184L196.652 466.297M134.773 485.733L131.611 486.073M134.773 485.733L138.989 485.281L149.528 484.149L162.062 481.737L178.925 479.927L198.95 477.777L225.299 474.948L253.755 471.893L285.374 468.499L320.154 464.765L351.772 461.37L377.067 458.655L400.253 456.166L417.117 454.355L432.926 452.658L444.519 451.413M131.611 486.073L130.557 486.186L128.449 486.412M131.611 486.073L129.503 486.299L128.449 486.412M128.449 486.412L127.395 486.525M444.519 451.413L454.005 450.395M444.519 451.413L447.681 451.074L451.897 450.621L454.005 450.395M454.005 450.395L455.058 450.282" stroke="#42679F" stroke-width="5"/>
<path d="M193.49 466.636L192.436 466.75L191.382 466.863L188.22 467.202L187.166 467.315L185.058 467.542L184.004 467.655L179.788 468.107L178.734 468.221L177.681 468.334" stroke="#42679F" stroke-width="5"/>
<path d="M127.318 475.873L127.204 474.819L127.091 473.765L124.644 470.829L124.191 466.614L123.626 461.344L123.512 460.29L123.06 456.074L122.72 452.912L122.268 448.697L121.815 444.481L121.249 439.211L120.457 431.833L119.892 426.564" stroke="#42679F" stroke-width="5"/>
</svg>
